<mxfile host="app.diagrams.net" modified="2022-08-30T05:31:35.816Z" agent="5.0 (Macintosh; Intel Mac OS X 10_15_7) AppleWebKit/537.36 (KHTML, like Gecko) Chrome/104.0.0.0 Safari/537.36" etag="YbZp-KvfsF2zjW1QIbDv" version="20.2.6" type="github">
  <diagram id="IGIGw9GbF1plSsEe_rFE" name="Page-1">
    <mxGraphModel dx="776" dy="512" grid="1" gridSize="10" guides="1" tooltips="1" connect="1" arrows="1" fold="1" page="1" pageScale="1" pageWidth="850" pageHeight="1100" math="0" shadow="0">
      <root>
        <mxCell id="0" />
        <mxCell id="1" parent="0" />
        <mxCell id="LMVX7M_dMNZhRoX6le78-2" value="Developer" style="text;html=1;strokeColor=none;fillColor=none;align=center;verticalAlign=middle;whiteSpace=wrap;rounded=0;fontStyle=1;fontSize=14;" vertex="1" parent="1">
          <mxGeometry x="100" y="400" width="60" height="30" as="geometry" />
        </mxCell>
        <mxCell id="LMVX7M_dMNZhRoX6le78-3" value="CodeCommit&lt;span style=&quot;color: rgba(0, 0, 0, 0); font-family: monospace; font-size: 14px; text-align: start;&quot;&gt;%3CmxGraphModel%3E%3Croot%3E%3CmxCell%20id%3D%220%22%2F%3E%3CmxCell%20id%3D%221%22%20parent%3D%220%22%2F%3E%3CmxCell%20id%3D%222%22%20value%3D%22Developer%22%20style%3D%22text%3Bhtml%3D1%3BstrokeColor%3Dnone%3BfillColor%3Dnone%3Balign%3Dcenter%3BverticalAlign%3Dmiddle%3BwhiteSpace%3Dwrap%3Brounded%3D0%3B%22%20vertex%3D%221%22%20parent%3D%221%22%3E%3CmxGeometry%20x%3D%22160%22%20y%3D%22400%22%20width%3D%2260%22%20height%3D%2230%22%20as%3D%22geometry%22%2F%3E%3C%2FmxCell%3E%3C%2Froot%3E%3C%2FmxGraphModel%3E&lt;/span&gt;" style="text;html=1;strokeColor=none;fillColor=none;align=center;verticalAlign=middle;whiteSpace=wrap;rounded=0;fontStyle=1;fontSize=14;" vertex="1" parent="1">
          <mxGeometry x="2440" y="390" width="100" height="50" as="geometry" />
        </mxCell>
        <mxCell id="LMVX7M_dMNZhRoX6le78-4" value="CloudWatch" style="text;html=1;strokeColor=none;fillColor=none;align=center;verticalAlign=middle;whiteSpace=wrap;rounded=0;fontStyle=1;fontSize=14;" vertex="1" parent="1">
          <mxGeometry x="540" y="400" width="60" height="30" as="geometry" />
        </mxCell>
        <mxCell id="LMVX7M_dMNZhRoX6le78-5" value="CodePipeline" style="text;html=1;strokeColor=none;fillColor=none;align=center;verticalAlign=middle;whiteSpace=wrap;rounded=0;fontStyle=1;fontSize=14;" vertex="1" parent="1">
          <mxGeometry x="747" y="400" width="60" height="30" as="geometry" />
        </mxCell>
        <mxCell id="LMVX7M_dMNZhRoX6le78-6" value="git push" style="text;html=1;strokeColor=none;fillColor=none;align=center;verticalAlign=middle;whiteSpace=wrap;rounded=0;" vertex="1" parent="1">
          <mxGeometry x="200" y="378" width="60" height="30" as="geometry" />
        </mxCell>
        <mxCell id="LMVX7M_dMNZhRoX6le78-7" value="Event" style="text;html=1;strokeColor=none;fillColor=none;align=center;verticalAlign=middle;whiteSpace=wrap;rounded=0;" vertex="1" parent="1">
          <mxGeometry x="430" y="378" width="60" height="30" as="geometry" />
        </mxCell>
        <mxCell id="LMVX7M_dMNZhRoX6le78-8" value="Tridder" style="text;html=1;strokeColor=none;fillColor=none;align=center;verticalAlign=middle;whiteSpace=wrap;rounded=0;" vertex="1" parent="1">
          <mxGeometry x="640" y="378" width="60" height="30" as="geometry" />
        </mxCell>
        <mxCell id="LMVX7M_dMNZhRoX6le78-9" value="" style="endArrow=classic;html=1;rounded=0;" edge="1" parent="1">
          <mxGeometry width="50" height="50" relative="1" as="geometry">
            <mxPoint x="180" y="415" as="sourcePoint" />
            <mxPoint x="300" y="415" as="targetPoint" />
          </mxGeometry>
        </mxCell>
        <mxCell id="LMVX7M_dMNZhRoX6le78-10" value="" style="endArrow=classic;html=1;rounded=0;" edge="1" parent="1">
          <mxGeometry width="50" height="50" relative="1" as="geometry">
            <mxPoint x="401" y="416" as="sourcePoint" />
            <mxPoint x="521" y="416" as="targetPoint" />
          </mxGeometry>
        </mxCell>
        <mxCell id="LMVX7M_dMNZhRoX6le78-11" value="" style="endArrow=classic;html=1;rounded=0;" edge="1" parent="1">
          <mxGeometry width="50" height="50" relative="1" as="geometry">
            <mxPoint x="613" y="414.5" as="sourcePoint" />
            <mxPoint x="733" y="414.5" as="targetPoint" />
          </mxGeometry>
        </mxCell>
        <mxCell id="LMVX7M_dMNZhRoX6le78-13" value="" style="shape=image;verticalLabelPosition=bottom;labelBackgroundColor=default;verticalAlign=top;aspect=fixed;imageAspect=0;image=data:image/png,iVBORw0KGgoAAAANSUhEUgAAAggAAAEuCAYAAADr4erVAAAAAXNSR0IArs4c6QAAIABJREFUeF7svQeYHNWVNvxW6NzTk/OMNEqjgEASWQSTM8YmGUywDbYJBsMu3v3sXWcvXv+7NtgsOIDB2NjGRAMGI3ISYLICSihnafJ093Su8D/vqeqe1iCBJAuQoIpHTHd11a17z711z3uyYtu2De/wKOBRwKOARwGPAh4FPAqUUUDxAIK3HjwKeBTwKOBRwKOAR4GRFPAAgrcmPAp4FPAo4FHAo4BHgXdRwAMI3qLwKOBRwKOARwGPAh4FPIDgrQGPAh4FPAp4FPAo4FHg/SngaRDen0beFR4FPAp4FPAo4FHgE0cBDyB84qbcG7BHAY8CHgU8CngUeH8KeADh/Wn0EV1RjD5VPqLne4/1KOBRwKOAR4Gdp8Cev4d7AGHnZ3/X3cl15K4lWwFsxQJgAbYNBar8Kx6lpBUKoMADD7tuEryWPAp4FPAosIMUsGxu01CKW7Fa2sqhwHQb40leULZf7yFbtwcQdnA9fFCXW4IQnFXjfBpGDfzs/Occzl8FmoCHPWSlfVCE89r1KOBRwKPAR0QB287DhuUIcYISuFs7Al1xZy5+L+7ezlV7xr7tAYSPaGGVP5b6AlMWmaMvUN6V25IQVXQKclVxoel70ELbDcjsdcGjgEcBjwK7kAI2LLvgim4qFIV7N8HBsMbXku26XLijVhjQy67ZhR3a5U15AGGXk3THGyQesGwuKy4ex7TAT4QLTiJsRcDpMG4gVOBpnt8zkOiOU8W7w6OARwGPArs3BWxu3EV9QbmKl1KeasKR9rinu8DB1kTY21O2bQ8g7C7rz8EFoksgSLAUWrBUmJYNwzBRMC0oqgq/T4VftaARLig6FEUDy2l4QGF3mUivHx4FPAp8YihAH4Qy42/xMzUHtmJDsS1X8KMfgg7FoikCgLZnUMgDCLvJPAmTp/3KBgq2jf6siRUbU3hn3WZs6OlHIp1GKBREa20ME9vqML6lDg0VGsTM4MJRDyTsJpPpdcOjgEeBTwQFbNsQyc6EhoxlI5G1MZQzYVoK/BoQCWqIBhX4YcPneo6J8nfYCrFb08kDCB/i9GzphjismrJAF0UThq2hO2HgraX9ePHtjViyoR+bUhryagimqoqmKmhnUB0wMLGlBkdNiuGAyQ1oro3AJ2orGimKCi/P9PBhTK3M6RZuzB/GU71neBTwKPDhUoA7tIhwUMVkAFiKhqxhoWsgg8Wr+7BoXR/W9GTQlzBhmCqCPhv1lTrGNkcxsaMeE1ur0BzTodPsoGiA7ZiKbX7eMsbhwx3aezzNAwgf4lQY7iJQJfzF8TMQlxXbhmVZWN6bxj0vr8JzS7LozwSgKiZUxS/XWgx9NKOw1SwMJQ3b9KNZz+HADuBzR43B5OZqBFRdTF2EG9qeosP6EOn/fo8qVj6nJoafy78L3HLPl7djUfMjPiOAqjqOSu93lJuEyqutb8+9xbbfz6w0st0tqrqzzwSc/+RhW9Z2+cEUn01aqR+wtqtEF3dOnGl7/zn5J0mxzduL64jrQ9sFNP+g+um1+x4UsC2JUsyLC7kFn50Xn4JEQcPL7/TjiTfXYcH6FPpMHRkx/mrQbRWWoiJsZxGwC4hGNOzfEcXZBzRjclslfH4NilWAonBvp35BdU0RuxdU8ADCh/hmOKGMZPfDQYxFB8W13Wn86bH5eGppHElfAywlJPYrUy0go6VhKIBmVsFvW/AhgwBCgGkgavThwGYFXzp1Bia1Vwk6pe1L3VN0WB8i/d/rUY6Jx3UEHakRKH53/5auo/uRyyQJ8nYEIJQzrnIgsr3kKDLCrQGFdwEQl1kWGSV/Z1//2YMAQZi+29a2GLFcRwD1AYMDebdG+OO8H5DaKg12oUaIz+caEQ93z6n4n11yH9n9FAEM0SBYUG0LQ1kFT7y5Hve9sBYbU1Gk1BjSuoKcmgNgIGgDum0jRGHQsmBw77eHMCGax1dOmYGDO2sR1ejEaIrxgVoEVdhDeVKFj2y4pQd7AOFDmwNKpNQhDJsCZPOyLQykbdzx7Go8/Go3+rRqpHVHbR20/bLh5QgSVAWmHYAPJiJWFn4bSGsa/IaCumwCR0wO4gunTMLo2qAsNEX75xnAh0aa3eBBpmkiNTSErp4eWKaJyspK1NbWIp1OY2BgwAECAKqrq+U3bvY8t2rVKuRyOUycOBG6To+Q7TuKkqVhGNA0Tf5tL1DgdXIfNRYjtBZFoGNyUzIM+Hw++btp0ybpd0VFxXYDmfcaCce+Zs0aZDIZGfu2wJFpGOjt7UU4EkEkHIZhms54VccctsulexcMccykBcdf1Ahtz7O4Djg2zuX2XL81GpU0JpaFZcuWSTvjx4/fJXTfvtXlXbUrKbBF9JhtI5kDnp/XhZsfW4Bew4+8FkVWqYClUjdcgA4LfqpybRM+cVJUUVA05GAgbwxhWq2Na04cj/3H1yEgkQ7cq2lykOx3W+RT2pXj2Jm2PICwM1TbznvK1bpEoG5womtYcFTYDJN5ZXEX/nfWSqxLVSGphGFo1BDkEbV8aPZpqI74YPh82JRKYzBrwLJ1QaQJ1YJuRVBt2GjRN+CCo5pw2szxCNNRVt1+ZrWdw/lYX9bf34+//e1vWLliBWKVlejo6MAxxxwj31/+xz/A37nZn3/eeXLe5/ejUCjgvvvuQ19fHy6++GIEg8GSlFhuonBAoZsEywlVke+ZdBpz5s3FhPETUF9fXwIIxd9Lpg53zyhKw+lUCouXLMGoUaPkPpE7LDfVFqVUAN09PViyZAmmT58uvz/22GOYOnUqJk2aCEXVStk0ttav0rql0FPcs8rMLryHDJj0Wr9uHS67/PISIx5pnslls0I/9rW9rQ1z581DW1sbWltatjDZbEu6LtKxnFlvSytAxl7UZixfvhyDg4PYe++9EQgE3kXb8sVcbpZYu24duru7sPfe+8h98tyiuWKEJmbkvJaPvag5uO222+RRF3/5y9BdQMfvu0KD87F+IXejwTmCPf9vwLA0vL58ADc/uhjz+/3I6TpsxQfLDohRV0cOQddgkFIscV5UbZ+jnVRM5GEhZA7g1LE6Lj11Gtqq/VAlFJKAwo1w+OgsYu+iugcQPsCFWC4RUhVrWCZsIw+fzrWgoQAfBnLALX+bhwcXJpDTqpGlzwFtVsihvTKMk/dtwqgav9isNvTF8eQb67G0L4CESl0Cs3j5odsaqq1uzGwz8I2zDkRbpR+a6/jyAQ7vY9X0okWL8Nvf/haf+cxnMGHCBNnAa2pqkM/nsWnjRjz99NN4Z+lSXHrppZjY2SmSO3+7++67RYtw3HHHibZhzJgOjB41GoPxONhmMpHA+AkTMGr0aAEECxYsEOY6duxYbN68GXfccQeOPOJIHP6pw6W9FStWIOD3Y/KUKaiqqpKNJZ3NYvGiRaLJIJNNpdO49957sc8+++DQQw8VaXzlqlUYGhqSdhsbG/Hcc89h1qxZOPPMM4VJrlq5CqNGO4CCkv/6DevRWN+AzkmT4NN1JBIJrFu3TiRdagU2btwobbFPXV1daG1txerVq7Fh4wbU19Vj/LhxeOSRR7Bw0SKceOKJMibSje2THnxGTXW1jH3t2rVCy3g8jltuuQXTpk3DUUcdJRqNpcuWIRGPy7MIIvw+brY2qAHZsH49Vq5ciUgkgk5qKRQFCxculOtJT/aVbVJDwT73dHfLeWp5OC/s7+c//3nss/fe2NzdjRUrlsPv82PSpEmiIaBWhaCC81BXV4eO0aPxyN//jjlz5sg6IH1jsZiscz5j6TvvSL+oMSlqGlpaWgQgDiWTaGtvFzouXbpUfueYCCAJVIrro7OzE80tLTJnHkjYM7YQByDQMdHEQFbBLY8vxgNzBxFX62BAFWBAL4KIlsHYRh2jG6PwqQpWbk5jcXcOSSOMgG3Dbxso0OcABbQocVx27DicfGA7ghpFR77prtbXAwh7xsL4Z3vpAASKYTaMbBq5NXORXLsA1Q01CLRPglHRgQV9Oq790+tYOhSGpevIQ4fPDiAME+Mb/ZjcEUG8qw9NET8OP6QdL8zpwt9eH0CP5oPPJqa1kVKBiJHHeC2Jb545FQdPqYF/D8nU9c/SeFfdT8Z8ww3/Jwz++OOPF2YVDodlo39x9ov46wN/xdlnnYX9DzgA4VBIpF+aFsiIHv7bw9j/gP2xfv16YU5XX3UVHn7kESxauBChcBiZVAbnX3Ae3l6wAG+99RbGjRuHyZMnC7O75557cPDBB+Pss8/Gs88+i9RQCq1trcJAyXB5vPLKK/KctvY2jOkYg2w2iz/+8Y/Ya6+9cOYZZyKXz2HxosXo6e1BJpPFZz/zGTz40IN46aWXcMoppwhzIqA44YQTRMtxy29vQVtrmzDAk08+WcZJpn7DDT/HpZdchs1dXQKWrr32WvT09OCF2bNxyMyZojEgU+/q6sbpp39WAAVBwkEHHSSAorm5GZ/+9KcF9LDN0aNHY+bBB+PZ554TpkpG/Otf/1rGftZZZ6G3rxdvvfmWXEvGevlll6FjzBgBAitWrsStt94qkj/pRSD0+uuv44UXXhCwEo8ncNFFXxLmfO+992DChE7pAw+Oifd2be7CBRdegKOPOgr33HuvgB0yawK8vaZOlTGOHz8O6XRGxvmlL30JDzzwAN5++20ce+yx+NznPof29nah95/+/Gdh/GPHjMF+++2HdwgWDBPnnfd5GR/vOeecc/Dggw8KkBjd0YHDDjsUr776Gl75xz9w4IEHYtny5RjT0YHLLrsM0YoKzydhV728H3g71PQyhgFYsCmF//7rPLzVHwbUChTsnAMObBPj63WceMhYRP02YkEdimHhL7NX4+UNBWjwIWiZKKhAGn6E83Ec05rHf154CGojKlTHC/oDH8mOPsDTIOwoxeR6qnOd1Mj0PnXc2xwHN9r/HWUUoFl52MnNSK1fibXz52DwjfsQGVqESWOaEeyYBnP8kXg5ORnffzKHQX8DLNWEaavQEYRmA341i7xqAYaO0bqBy04dg1V9adzxyib0WgEEbR0FJY+UasJn+dGST+LSIxtx5pFjENJ3v8W2U6T+kG4is3/zrbfwyMMPizRKJkYpsiIaxazHHsNrr78OVVVw9NFH41OHfwp+vx95AoR7qEFYLZoFqvT/+te/CgMg8zn3nHMwZa8puPHGm4R5UsInIyTDpnTZ092D393+O5FyadL45S9/iaamJhxyyCEYTYASichievrpp/DU008LcKH0y/7deeefccopp2LKXnthoK9PmPbA4IAw7HPPPVeY2kMPPYQrrrhCVOVk9nwuwQaZvDCpaLRka6ckfv311wsoIVN+4okn5Hn0F2C/qUXgX4KMp558Eg2NjaiqrhLtwDeu+YaM/c9//jNOPfVUPP7448IQ9913BioqYnKe38eMHYsbfvELnHzSSaIR+OnPfoZxY8fKvwcefBCfP/dcHHrYYSJZP/zww5g7dy6+9rWviRRPMPLjH/8YX/jCF7DPPnvj5ptvEYa/7777CujidQRot99+Oy6//HK8/PLLosX4l3/5FwFPd919lwAHjoPA7FOf+pQ885v//u/wBwIy9vPOP0/mhNdf/OWLxQelOH4CDpqUaF4ieCSQII0v+eoleOzxx/DGG28IqKOG5JprrhFzDk0O/E7N0te//nUBN+wX+0SNxc76OHxIr8TH8jEiqzuZ6x3Zjbu5JDUyoYnfgButxCRHxRRI4ivG61Q8/MZaXP/kCqw3ahG2A7L/UlCrNHVURxVUVmmIDyTQEgnhguNa8OqaIfzxlR5kEYXPNmEpJrKKAt000FTYgBsuPgTTxla6AKEIEXafvdsDCDvxGtCfgLUTOJ2lckkMhXErJdCvIE9msGYhut56HP3znkeG0k2+F23RJPZqVYCgH0PVbZiV/jR+PvhppMN1blpOtl5MusyVq0FT8tirOo9LTpiMVxb24p63B5FEAD6G0qhpZBX6IgTFWfH8fUO4+NSpiAb3kFRdO0H/D+IWqpqpJk8mk8KY7rv3Xpz7+c9j5syZoimgAyMZCiVNMt2i+eGuu+4SKfaSSy4RxsPvX/ziF0HbMxkV1eAEC5TcyZReffUVLFu2XBjIPnvvg9//4fe44IILhDEvWLgAr732GlavWi2SPzULqqphcHBAmMvCRQuhqRpOOukk/P3vfxdpfXTHaDz04EMiGZPxEwBc9KUviSqcTOyqq64SEPCDH3wfxxxzLJ588knMPGQmPv/580SdL3KLogjzIyjg75TQ2RbNIQQ2lJgfffRRYdyHHXYY6FdA7QDNGpTayfCogfjd736H8847T/oyd84cxBNxATGzZ8/GgQccgImTJuHnP/+5gIiOjtH4wQ9/iM4JnRgzZoyAHtKa7RKgUONBTcZll14qYIw+Bdde+1/45je/JdcTWC1ftlyY8vJlywTwrF6zRmjNz6+/9jpWrlopfXv1lVcFyJG5EyxxLvjv3vvuxXe/812hwS9+8QsBhIlkAosWLpL5pEMnaUMtEjVMZO70Q5kxfTp6entlvXz1q18V/w4ChIMOPBB3/PGP+MlPfiIAkPf95te/Fp5z+dcuw+wXXhRaEMzQFOMBhA/iTX7vNh2lLhGCBdtWhfHT7Gvnk1CCIUDzS46CYtihaIFdv568Bfz20QX4w5v96FPrEbEV5JWC7MMx04e8aiKhF6BbNsYEVHz9pGYs3pzFnS/3IKnEJKTRpllYoSAIFFJduOn0iThx/zZoOjmJo21mPpvd5fAAwk7MBLMYFFyFENmwpD22i7kNDOS61mLNk/dh3cuPIt2zAsF8BsFcBobPRm2tiX1aGRoG5PwB/C1+LP5P/Rf0R5vEIaxojSpapHxmFPX+AZx0eBCj20fhgVkbsLTLxgbdRsiyoSs5pAVwBlCXGcTnpvpx6enTURXyAMKOTC2BwYYNG4RxkNlRpV+U7MkQaRcn8yez4gZP/wAChxJAuPRSLFqwAH/5y19w1dVX4+abb8b+++8vQIBSLbUClHZ50D9g+YoVomG47dbbcOxxx4pdnhIx1da33XYrWlvbRIolEycoyeZyWLx4sWgZ/u3f/g3PPf8cDjrwIIxqb5dnHnDggWhqasRdd90tGgRqt27//e248MIL0dDQgJ/+9H9w8smnimqcTI7gpb6uDo1NTaUICkrplH4JEHjfD77/fYwdP15MJs8//7xoSr7whQsRCoWEudEk8tabb+Krl1yCxYsX4bVXX8cll14iDovxwUHc/vvfy7jpyEgNwqTJk0VSp+MkaXPnnXeCNnyq88lMKbHT34Cb8jPPPIO///1RnH/+59HY2CTamut//nPMmDEDBxxwAP7whz+Ilof309eDc0KfA0rsHBu1Cq+++qqYLdKZjMzn6aefLgCEUSqrVq/Gn/70J3z3uw5AIHA544wzBCDMfmG2mAsI7jhWAoHu7m75S60MtSZsh34JF5x/vmiYNm7aiDNOP0Pmh+Bu//32k7Hcfc89wo8u/9rleGn2i3hh9gsCMEWD4KCzHVmm3rX/JAVkmwbDx/OwbRP2YBLxt+ahsHoFqvfZC8EJnUBFNUwtANVWpJwCc9DYuo2cqeK6v7yJ+9/JYcBXh4gEPjLsUZGMtlnoMBQbESuFg1ujOO/wdsx6bRWeW5FGWovCshXkFFbhJf+g2bkL/3VkPc4+cqKTF4G6aMEjHkD4J6f5o71d4hHEacXthw2YlDRUhr4ZSMybjbnXX4Fg9zswdA2WBvgLDGcBquoVTG1nKg0gr2p4PHscfoyvIxEZBUPRpQYDF4oPBnS7gAYthKMnRbD39CgemNOLBYvz0AxgnW4hZCsS9phWmNtLRW2uH188oAoXnbgXKgO7zyL7aGdr+55O+/jfHnoI69avh2VbYt8/4fgTsHDBArz40kviYEhV96mf/jToaEZpmgzjH//4h5gNyOSo4qYEf8rJJ2PBooV47tlnkc3lhYnTkY+MbN68edIhMs7p06aJVoLA5IgjjhAplZ+pJTjl1FMwaeJEYZb0/H/2uWeRy2TFRs9+vfTySyLhH3rYoejr7RPGT62Goio47thjEauI4a677xbGy7bnzZ2HffebgcrKKnGco7mA5oqTTzoZkWhEGD5V5jQHRCuiOP6440WLUllVJQyP19N80tvTg0g0iiOPPFJU55Sc2cdUcggzDz0E4yeMx6xHZ0nUBxk+zRTsG6V+mlEee2wWFixYiEMPPQQV0Qo8/cwzyOXzaKivF40INRY86JBJrQXBTBFEkCHThMK+8jr6MdDRkAyb9OfvBDI0AxGgkLa8lxoLgjJqBnSfjmn77CO+BW+8+aZoDcjBn3jySQFwBDf0I+C7feZZZ0rEBbUb1KzQjEJNE7UWBIr0yaD/RCAQRHNzo4x13rz5mP3CCwiGQjjyiCNkHKqm4agjj8SSd94RPwb2j5EyEtHmAYTte0F30VU2Rfd8FvmeDdi8+G2snP0y+p54Dh0pA5MmdsJ38DToB8+EMqETZl0tFN0HhfUWVAsFy4fr7pyDv76TR0+gGiG7gDD9wBQgp5gwFB8qLBsTYxY+e9hopJMFPPDaaqzL6ShARUAK8hFS6Ehxl89two+OrsdZR0yE6nMAghN7tvvs3Z4GYScWnpTnoNOKmYc1NIBszwbougW9OgbbX4Hk2/Mw94Z/h9a/FLmAjoJmwmeaCBYIEIDJY5hEQ4Gh+vCicTSuzXwJXbGJyKsBFGwdGkyE7BwiegFHTKzFQWNimL9iE2atyCKb90lmrm5NQ8DWHeTKFMu2gSazF18/dgw+e8gYBDVPMtmRqTUKBVGNM/qAUQTVNTWy+ZNpktkxnp8AoSIWK+U7EMaYSgnToD2favpMJi2Mr2AYch/vr62pEabKa2nrp12bzJNMhoyX56nOzmYyGEqlEAlHUFVVCZ0mANsW7UFfX6/g0ZqqapFqyZyTQ0PSLq8hSOF5ts2/IsXH46LliFVUCBOmdoTn+Uz+43cBFcM4V9oh+KH0S60Kve35DDIythePD0LXfXIfx02tB/9RKqdWhX2myUWeG4sJXchg/QG/RBCw33w2+8h/pHkqlUY4HJI2GVFBqZpt81o+U9c0VFVXl4ADaUoTSFVlpdA3XygI/ThHjPBgvgXSim2z33Qc5XXFfBa8LxAMSr/YPx6cg1AwKMycNCjkC6iuqRZ6cZ55jv+4Nmpqa6V/nF/+Ja1Id/5lH/oHBgSYkR7FJElcS6QJacVneomTduTt3HXXmoUC+t6ej6V//AP635qHTPcmhLsH0RmpxLjaalg1EdgNo6BOnQblM0fDmsKwYF2Yt2X6cNvf38Edb/Zjk16FkGIhaBIcKMioJsK2gcmVfpx6YCuCmokHX+/F/D4TccWHgGUgZtMcwbFoSCkKhlIb8KuzJ+CE/drc0GNHu7A7OSt6AGEn1p6ELGZSSK1Zgu7XHkF2xctoq1VQVR+FVjcR8V4Dbz54DwrpLli6CVs1wKRZwbyK+loTk8Y6WeWYWGMlpuP6wXPxevRQZPxVyDCKAQYiVhp7tVfgi8d1YKh3AHPfSaDfDKAnl8PSTYPImMESzmRqDs1KYWwwju+eNR37ja320rruzLy6yZAkmZnjVixHebjqSIlPfivLvFceo79F4qPy7HxFu2ZZ6ubhZI1OZc5iwqOSCtrNn1D8PjIXAL9zTZWSDxVTRZfF8RczQI5sv9jW1vou8ozbbjk9im0Ufyvvb2nc5XNQHNOIfBDll5SH/ZXnEBlJ3+IWWqo7UtbmyHwJcq1Lg1IwmaqWGPfI+S1+31o7pbZGrAuhwYg5Lbddb9Gmm+nxA0kStRNr/pN2SyEzhCX334e3v//fiCQSksnQly1gTEMdxjXWQlMMqH1+WJXNwDXnQDn9FJh60DUl6HjszY24/rHlWGdXQ1d0qKaBvOKDrSroCCRx9kFtaK/y4akXF2L+gI5upQIDVgBhSXxXKJkR6MOmW724+aL9MKMjCluhqMeQyeGKPbvD3HgAYSdmwUwnsObFv2PpY7+HuvpltPuHMK4D8IeomfRhIBXGvOUppE0VPhSgsWa4HYFiBtBUN4jJHSzd7DCgjFKNvyTPxO2+M5AItYoWQbULiCkZTB8dwzHT6sVRMWuqcn5FPI+/ze1HfoiqKlqyHDdJvz2IYyaE8I3TpqIhrLqZFD0twvZOb5EhbS0JT4n5ORxiC7XwFoys7GHFdoqMdGuMyK3v7WRlLAKAEWrn8vaLUufWnln+nGI3ioBgW2Mqv67oiFWiw4gqoTy/TfDjNlRcbcWxFJlsuYaifD6Y3ElqQpQlIBqZuEkkcKl+N3xdOW1LYyhL5ESgsS2AUU6nEmAqptjeonNuytsyhl5cB+zL9rT/fmvPMy+8H4V24HeXrxbZq1S6kXdKqtg5QJ/eB0MJLL/3Lsz94Y/gzydR8OvwZ4EJ0UZ01jYBoRx8A3kUKutgf/1C+D97BmwlKI6FbGXxpiH894ML8GZfEH4mtbPyyKghSa18bAdwwTGjkI4nsbnXQF7TsC6p4Mk5m5DMq+JjlmYEg23BbwxhRkcI1547FU3hAqBQW0hNxW6lQCANy3amHZiPT/KlhUQPltz1c2yYdRN0M4nWCDC+A/AFHC/DwaSNuauBvKkhYDoZ7nJaSLxbWyuz6BxrQ6UuSVaDinmFGbgxewGW+GaiO1gHU0sjbBYQ8ikI+Rn2qMFPhxnkMGBb6M3pCFkB5FRAsxUEzRTaQ3FcfFwnjt+nBUG+EF6Y4w4t0ZGMuHjzFuddgLAlH3EYJ1XYPIrZFMulxnLGSoZXyOdFJU11PH8T50RTvKfkczmTpEqbDIn3UQVeZE40Z/Afn8e/bI8mi61J8uVjYftU3ZOJUxUfCPiRyznneK9zLoCCm3qaz+V3qs8FoLg0KAdUXODZbEbGQ5X8FscIzUdRG1DSMpRJ/3wWVf1Uxcszw2FR+Zec+UYUYCrSjuNn/4QRjKjFwDa3VihpJBBxhuWYNsrpVawfMVLiH6lhKH3fhjaBh5gnAAAgAElEQVSpfD3s0ML0Lt4qBZwMM8P5aVWDEV30A7OgpTPIDvRDy6YQCIWBSCXsYAimTwMyGay6+x4s+M/vQLPSyEQDCGRMTArWYkJNA6xYAf4hC7mqJuDyCxA45TSnVoKRh5nNord/ADc/tRx/3BhEVK9DwQbiuoaIZWJKtYIZHTHZf7mKcrqKgSEb85f0IJVnumUfMgqFxjza1DguOqEDnzmwXvIoOACBwsfuNeEeQNiJ+Sgke7HkL7/ApkdvhG0n0BIFJo4mQAAUQ0V/ysbcVUDBjCBoZgV9ZnQfdMtEW8zCxDE2JBOys58hbUfw/NBhuD9zOubUzETGZ0G3TQwqURQUBTV2ASFTQ1a1kaRHLTSELQ2qaiFg5lFj9uO0A+pw1tHj0BzxCWiAV4thJ2Z2x2+hFEz7/lNPPSWM7bjjj0c0HN7CO70kSbuOgAx1rKurFy98Ojq++cYbEqlAW//8efPED4H3RCNR7Lf/fvKZHvp0gmN4HP0beA+jLU6gY9z8eWhqbJLsi+9iXK7kRGbKGH+G2b2z9B1hwIwG2G///fHM009Loh/ey1A9JoNiyCYjCXgfcxZ8+pRTJOnTu1TvrBVSKOCF558XR0QmNSoy262Cq6K2wO1XsT0CJIYyMmMl/S0YxcG8DYyoECZdNBO4AEA0AZYl2S1Xr1qFI488AoFgSPpbMlXYtmShXLN6NUa1M6/EcP/Lx1EEBUXtAtugHwEdU5kSulj5shwcFbU5O75ivDt2FQWK4eb86ytoMFXAKKQx+OxsdD/1DCryadTV18Pf0g6trQ1qSz3sijBWzJqFuT/9CdS8AcMXQDCVw4RYFSbU1kGJmtCTCvIVdbAuPhM48kgkegaRWLMag2uXYnDZCqzZEMRTVdMwt21f+NSg1F6gTxqFPk1nzRwWzIM4JVqWBoNVHplBUXXCHP1GGqeMi+Hy0yZiVBU1wNQuUGJ0tGWek+KuWiEfUTsCEO78Obpm/RKWHUdLGOjsUOAL2lAMBf0pCEDIWHUIWCnoVhqGJgExAhAmdXAT46ZH71gn/UGf3Yr7kifj/vyx6K0eA/gYpxsBky47JUZpjrCQ0AxotoFKs4CAZSJqpXHS3rU459gJaK2hkwtDb1hoZoQk9xHR6uP8WDISMhdGL3zve98TZs+wOWYN5Gc6tdERjs5qdFIjU6Hj36233SohdKeefIqAij/ccYekFGZYZdfmzfjLXXeJJM6wOzJcgo/bf/c7XHvtj3Hc8cdJJAETH23ctAn/8z//IyF8xayI5UWTyjUXlMwZDjl//nwcduhh4oDH8EfLMnHjjTfixBNPkiRN7Cel8RtuuEEyJPL5zKPA2H965m8BENxKlnQ6ZPji4YcfLhkPOW6On8541HBQa8Hx0AGRYIq/8WCfuCHS8ZOOhrf+9rdCD0YJSOrm8RPQ0FAv9wwlh6DpmrRZLMTEdvksRi/sNWUKDMsSJ0HSnACIY2FkCMfHvAbMwxAMBJwtuKyaJTUQjmNiDrHKKvmdOSE4r8ymyEgOghGOk+OnQ2SxCNTHeX3v9mOzGIJoS/piv8GN1ER68zrM/rf/AF58DtNaG1GvBwEtAjsShloVRb65Hms2b8Sil2fDLujQczqCyQzam6sxvr4eesiCmrRQCASxYWIDFusK4hv7UOheBTu7AYEhE23WWPROORJ3jPkUVld3wq+HJUNi3o1mcPLhMLuihbztQ0YNIqfYCNgpBIwE9qpVcNVJe+OAcdUIKpJSD7asR8eMIYWbdpPD0yDsxEQUEt1YdufPsPnRm2BbGTRHgQkECISMJhBPAm+vVpACSzYb4jtAexhVYC1RG5NGAarPqYIjKiWGyqgBLEiMxv1dh+LN2KfQVVkHVauBokWk5DOvyaks0kR1Vg7VVhp1FSYO3YsFmsagpVKHrlhOARzWD9uNYml3gsR7xC1kwGRWTJTD8DoyViYVOukkhjQulnO8phi7T2ZJJnPzLbegsaFBQvPIEJlumUzuu9/5jhSBIrMlU77iyisQ8Adw2+9uw1/v/yuOPPIoXHbZJXjzzbck1TKZ1be/823cc/c9AhAYjliurSiX4JlVkMmAmIaZ2QppkiC4oSbit7feKnkPmLOBzI9g5brrrsNnT/8s9p2xL6qrqiTboDDWojRfLHXNWhHpNH72s58JOKDEzeJMjBhgFAMzL1IbQe0C6zIw7bCYRFQVixYvQjLp1I9gEikmWiKYYlgiIw9IL7bNzIwMZSSgIWhhMimaadinsWPHoKenVxI4MXkUwQEjSbLZHA4/7DApakV6MnkV2yV4K0r//EuQwVBN1l/gXLL/zJTI1MoECOeffz4OOuhASZlMLQ4jLZhwieGPXi2Fj/g1JUBg1lrVhm7R/GWgsG4lnvv6N2DPeQXTWhrRqIUAS4et6bA01kLQsKp/EG8P9iOjBWFnTNiZJCqqg5gYbkBlJIhKyye1bFakerGyr0/2bp8Vh6mryEUqMBY62tom4flRB+FvY47CIr0GecaeKazbqIjJgHUd8wQsCg0KPgSNHJqQxsQqDece24kDJ1WiQmPmXSm9K4Ii8+86RjwPIHzEK+ufe3wh3o3ld/4UXbN+BQMZNEVsdI4FaH4lj07EFSxZaWPQUpCBAlYItyyGydio1oFRtQC10HRqDPmBkAL4VKAroeL1ja1YpU/H6mAbeiLjMBgZg5SqI69YyAQroAUq0Fqh4qBRURzYWY29RlWhLqKKhoH6A8kOxsW2m9my/jmK7553kwGTEZKZ0lxApk6JlYl6GDfPAksnnHiiMBNK5/ydAIHMlMyGeQgYXsk0zvxMLQQl3+uvuw6aAIQrJayOjJPXM7xw6tS9hIGTuZGBXX311aJBIHNnHoF3RSq4dnVqDggQvvnNb2LypMmS64EHwzrv/POfpd80Xxx37HEYM3aMgJsXXnhe8iYwoyPzHjAskUfJ0c+1t1MTwDGRSU+ZMkVyOXR1d+OxWbNEK8LaBNQ+ECz8/ve/l76yMNLA4KDkFiCD/ta3viV9IBgg0yao4jM5buZtOPXUT6OtrVXG9+vf/BrTp03Hvvvth3Xr1mPevLmSjZKagr2ZoXLaNKmP4fPr6OycKPPz7W9/W5I1EXgUD84fgRmTKzEvApn/Sy++KGYi5rPg3F500UUYHBgQLQ9zJlCjwrmsjMVKpofdc3V+/HslS1ixJQcN6x1ZigF77Qq8cNk3UZg3FzNaG9Gg+WFbGmxdhakbUAoGuhIZzB9MoKuQw1A2gVQhh7xmIQI/YoEgGhBCTUWFMPhkagiGWoBmm/CnYshGQ2gPF7B3rBrJfadj4elfxuODGt5a1YvunB8ZNQpFpbaQfkMGbMtAQMljTMTAEROqcfyMURjbFkHAR3AgOZ6dQo6KApUDEolx99m8PQ3CTrxH+WQvFv/559j42K9gqHnUBm1M6DBREWQ4o450xsDGzRa6chHEQ6MQ16qQyJnIpeJAZgh+1UYwWoVYLISagAlfciViyKJg+5FMpmCaAWS0GljV7Qg1dSBl2Uj6Qqjb+yQ0dB6K5pZa1Mb8CAQUqKoBRcJnWNLWidd10nHtPsk2doLEe8QttJvTds/0v0cddaQ4Gr726mv4r2v/Sz4zUx+Z6WmnnSaZDqneJkD41a9+JXH8TJhDDQITELGE83e++11xNPz59de/CyBQMiYTI5OntH3IzENEDX7l168UgMCKjZSQ5XAZd9EeT/X4goUL5V5mSiSYKWoairkMaP+///77xab/3z/+sdj+6RfBipBk2v/xrW9h+owZwxqKMt+GIkCgBoH5Hei7wHOkDVMdkxb0faAPBdui2n7lyhWYM2euMGFqByjls74DmTGLMv31/vtx9DHHyPMIIr7xjW9IgaPNmzZJ+mIWtyLQYDZHahQu/MIX8Jvf/EaewSRUjz3+uGRSPPaYY/C///u/uO766yStcxHcFP8SlPzohz9CY1Ojm7Mhi7PPPksSWjGPwle/8hU8/sTjeP655/Gd731XKmAKiUdEeewRC/Zj1EliA/HGYpSL5IFRYComrLXL8cxV30Tu7bk4oKkRzVYASkYDLHJhA9ByMBUfsnYYQ/4s+o0+DCRz6N6UxfqKlCQsCioq/NCgyxZqSaI7xfIhkNGhqkNoDUawd3QssH8LfN/8BuLNkzB3VS9eXLwZSzalMJixYdoKwtBQF9Uxqb0KM6c2YvKoGCoDNDQzqo0Oyk55Z4v1duiJwKIQw0EXu8VseQBhJ6bByCSx4aXH0PfG40hm49CyvYj4BsQ7lZEKgaCOcEUN1KqpCIw/BGpjJ1KGgmw6iXwuA1XzIxCqQCgUgL8whFWvPY3k6kWw4t1IZ7qRVSNQlRpURgbRXFeFYKwFanMHavc9Db6mKbA01hc3nQXFBAssDaX4odr0fKRNi1kbd9YHoTz4ayeIs7VbSgHru6i98ma21vb7hRK/3+/b2c1M2knhS/U0GTY3LEre+++/n0jzvb19kr9/6dJ3pCYCHe8IEFj4Z8L48Tjl1FORzWRxxx/vkDTG3/3Ot+HzB1yAoJVMDEzVTKmaQIPMkP4LBBT33HOvXPOXO+9Ex5gOHHfs8aL2ZrQDneyqKqtQEXMSAXV39+DGm24UTQVt/NRm0I5ONX3GdYpk6eabbrxRpO3Wtjbouoa1a9bippt+ic+dcw72m7EvTMtETW2NPIf2fpoAmDCIzPmII47EP/7xskQfsFoia0F8+ctfRktrq/hQcAzjxo+XypcEKyeceJLUdSCT/68f/UgYtG1ayOWyIrHX1daira0dzzz7DL7yla+IiSGeSOC2396Ksz93NqbuvbeAEWpgLrzwAtx40y+leiRNAg888CDSqbSU0f7hD36IH/7gB5g0ZQoS8UFEIlFJRMVjw8aNMmaahpgKmnSpq6/D3x95BGvWrJX+M2MlK0Ze8bUrpEojEz5xzAR5scqYi8e3LvUVl+fWltR7yYnbum9nZcud6cd73bOr+1cEXSPptK3xSvyCbYlDtkSflADCKjx/5dWw5r6GGa3NaFCCUCwm3/LBUrlP5gHTBxhh2L48cuECcoofXcsTWD24SaIguINajEhTLJg0A5gaLARRCCehKwmM0hqxT2AfqPu3w//NK4Fxe0kBpmTORnIoD+4LBMWq34+KSABVQQ3hgAs4XMJJ5QU3kpbAhqYFxeLZ3cpH0Qtz3E5esMVltm3ByA7BzKRgFvKw8jlYRhZmIScbHMO9QuEo9GAUSqhCwhuoQnL+K9cgqQBLgKZTMFIDKLAkdD5L1g9d9yOgA7pPg+YPQg36oARjMPQwcgUFg/E0gjpQFQtAU3gH7Va6FIziwlYco9aWh+sJXjrpVi4rT6VXPOWkkS57PbcVzF6seOY2WgpJG/nGlzIBueXU5PoiGHE/l57B17/sEH/ObWwV0uHyq0deNwINbOWrPL38NmnObXMLmm3Z9mB/P+6+625MmjwJM2ceItpCFlV69bVXpU7C2nVr0d/XJ6p51keoq61DOp0SjQHt3Icf/ilxwPvbw49gw/r1uPTSS2Tt3PGHP8q8n3PO5+D3+/DgAw/BMA0BCPQdoP3+nSXvYNasR3HOOefi/vvuw/oNG8R+Hg5HMGnSZFGVn3DCiZix3wxRhRv5Ama/PFuiBMj4Q6GwaB2YNprmkGw6jYH+QdTX1+GEk04U34TNm7sEAHBgF37hAsyf/7b4D5x88ikIBJwaEaw0uWLlCuiqjtM+8xkpjb127RqMamsXU8i5531enkGGS5PDZVdeifrGBnFILDr7sR06ES5dtFg0GEwpzeeeeNKJaG9rl0qMNMU0tbRIzQrWNDjuhOMFbFDbMH/B2zjllJPxk5/8f+KYSCDBQk+fOe0zGNU+WuostLQ045CDZ+Klf7wsEQ8EKfSnoGaG6ZuXLl0m5oem5mYcfPBBElFBgHPQwQeLfwerS+azeUnxzOgP1npgX6ZP20e0dWU+jzuzpXyg9zhvE/eELdev84qXdqXt7sNwIOhWtpjyfWA7W3RCFrd+bEvhTjAuGjJbha06NQzIZu21q/DcFVfAnDMHM9qa0KARIFBYIkjIg6mWU5qJoUIBasZGxjaQouN3XpUCZwUjB/6XUW2kCiYylLVsPyytANOfRSDjR2sogqm1zdD2ngrf//uGpGVmoqSRckcxDcP763I/SAlqOydhW/T38iDsOAHldWO4FW9107NJmWdZIQ6DJvOzqfpijYai6wlzcctv7ivm2qDYkhOtXcyE5/bJKT3mZN9SbGRNBRsHDMxZMYC3l27A4VPqMXN6u6Q8YF/oImNKxTDm9Kbuyll4ok51298SIzjnS7HexRXtxhiLGloYO/vtjs9lpsXwdumhi4SLHpcODOILvJViNC7dHBV3+YsxPP7Sefd+XjlyUyoCLbd7zhNLldeG2y1+KhtaMWLOLYyyJRAploAVyhQzKkpoHltyXvUifsgX8iKZV1dXOXkCbFtCFHmOknnX5i5xBGTlQqZbVjVVJIvenl7JP8ByyZKyd6BfJOmmlmZZKWRulNDJrEmmvt5eeWoNw7DcDT2TTqG/fwCNDfXo6u6RUs/CAFieOZmUqoLX/Ou/OmGHvIe5CvJZ9PR0S/QD57ylpRU11VVi+0/E4xJmyTLTBA8bNqyX64L+INraR0la4zv+9EeMGT0GRx19pEQkpNIpMRVQqu8YNRoNjQ0YSqWxdvVqAUU0qdTW1UnqaKZM7uvpRlt7u0jgGzdslHDGaLQCPl1DQ1OTaD3oU1AwC2hpbkFLazP8uh+9fb0CVgiO2trbkEwkJN0xnzGUSCA1xDTJIfzsp/+LGfvui46OMULb9nbHkZB1NuKDcdFg3HP3XfjKJZdi7PhxTrl2zlkigXVr1yKRSKKuoV58RliRlUCHaZ5b2tpFy8KCTKQ/zS8cD6MbKqsqt4js2PHdZCt3fBBqgm2y4PcoGLUtrj1CdthiBO91z3v24T0ot402LSmU5IPJ7If0RbB18UF49sqvwXprAaa3NaFRD0ChxoDaVaUAw7KxPteP5Zs3QkspyOu2pMLvaBiF0Q0N0AxL3smMZmNdTw/W9w3A8Adg6XnYeh7+oRhaon5Mra+BNnUafP/v36F0TvjYFt3yTAw79UY7i8h5j9WyxDYuYqBNyWXOkuvA9RoUqZ7fS+yOG7fDKItpYLfoDhm/6VzD5lZ3ZfDgq+vwxPIMNhp+XLF/GKce3ArVNpBJZhCrrEA6l0OhkEFtrBKJxJBskLGKKOKJJHRNRzQaxGDcycPv01UkEinEKp0KeslEFlWVEeRzhrRTXRXF0FBGwEtFRQiJeEIcv7gxJxNDwuQo4SaSKUSjYaEH1bpkNIzVZ6GiilgEmXQepm2K6pl59zVNRTgYRCqZFJu77vchlcogHAoILdPpDGIVEeQNE7lMDhF+zuZQYLKgaAjpoaw8KxwOyrP9Ph1BaSONYDAg7bM9FiGiGjKTySMcDcMoGCgUDEQiAWQzokhEKBhANp0V5s2+sA2OS9dVZDJZydlPxp/LFxAMB2EYpvQrEg7IOTISf9CPXIae+Qr8uoZsNu9ofjQV2XQegSCTHdlC10DQJw6rpmHBH9AFMPA7JXKG+vEg82U/SQu2kc8X4PM5WdYKBj87CZYM05KxG6Yp33k+my8IwFiy+B0cdNABqIhGS4WlfK6Yy7nx+ejQChiGJZXkTNMpPsbnsKKkuLzqKvIFQ5gkPfxffeU1KUvd2NjgqFB1VcZPyYt9pq+D2IWZaVASDinQmeTJRZMCRC0CXgdC8j65trj+meiGYMyyZdxFkMmsozznaHnct85V+RSz5XEt3f77P0gkxfTplOoVAbUO4HM4DIECHSYZCREKR9wse3QgNkvvYRENO112OZOosR3fnmI/HOzK87RtlzmXFXGvy+TLAerIJDjvhQPeS6LemS1rW+nwttRobtnyFoq5EQ/dlkLvPe95F8wfAc63NbCtEkN0CFAEIJgieBUBwnNXXgHrrbe3DhBgY1mmDwsGNwAI0cMAummis6oFnZU1CPAVNIGCBqzY3IUVqW5kAyHYugFbZxIlDyDszPr7RN3DhWmIC60jOlNyL8q4tIXxnEZJ2aZaz9k8CCcURZNqjUUHG26TUnm8JIaP0LrLxuloFwgSeodMvLp8AE8tSWBJfxYXTY/huP1aocNEIVdAMBREzsjLhhfxB0Uq5SbGanNkdmSC9IpPZ7LCCLgJp9NZYbRkUhky40hYmBOL1YQjIaRSzBBoIxIJIjWUhqpqCIb9SCXT8Ad8rmd+Wu4jx6EEWVEREWacyuURi0XlGWSsBBFk6JQYI6GgSHVkxpQ0E8kkwiFmzlME2NTUVgmjJeCorq4Uhp83TQFBg4NJ2fxjsQr09Q0gGPAL4KAUHY1EpE+D8QSqqyqFdnwmpT2WDGb4W3VNTIARTAtVsQoMDLIgkC6JdPr6+qWfZLaDA4OorIrJ2qZ0WVtbg0wuj1Qmg7q6GiTiSWHOVVUxDA4khBlG2UbvAEKhoICV3r5+6T+Zw+BAHLV1NaKmZ3gfVeH8m88baKivRX//oDDt6uqYtKH7NZGMWa2xorJCJGhqH5gbgG0QzNTX1Qr4I8Oub6hFV08/FE1DZSyKnt4BRCIhmXO2V11ZIXPJ5zQ21iGXzSM5lEJTQ70UfiII4BhJDwLLupoYNncPIBBkToEQenr6ZW75m4ylulLGn0wkUVNXg0w6KyaT2poqGRfXd6wyinh8SMwa7Ev/YALBUECcMOPxpKwPAafJFGoqK5DPseAVwWlMyjRzXcZiLByVcgsiheQ+0tbv0zCYGEK4IixgY9myVWhrbUEo6JdQR0YaMMNlwTSkYNXQUErmsqIiiqFkSujiC/iQ4udQUMAKNUA0U5iWkx2T6zqfc9+pSFjsyzxC4ZB8Zm6GYhEq9om0Yb/DoZAAo0wui0iIZsGCkxuCBcByTvnwSDAk1/IevgP8zLYIzPiOEsTzoCMr/UoMy4RZMBEK+AW40dRJTRXXNc0cfr8ucypZOnVN5iLg94kOUgBuwC904rsYCOgCDmFZAvL5vlPbSaBHQKprKnya04ZP90neFp7ntZLuh234fbLuSCvORcEwRXkqANcoSKg16eO0p8m7TXDKzzy4dvieUdgybQdk8hwPjoFAle8Nq5uaJrUENOUo0n+CU4IRmwzdzzT0rLYI6BvX4fmvXwlrzluY3tr4bg2CCSzP9mNechMszUlo5k9lMLmyCeOrK+HPO25crMK7or8LS7I9yPlYi8EAPIDwieLzOz1YMh2moiUokELL9I61ClAsSnLE5JqTh0BhyCHjb/1u+iIngQZfRAEMBAcW4Sql2ZKs4SroFceuxexb4i+jSjtZQ0VvsoC1GwfQWOXH6NYq6Cr74RgZHFOF0/rwwTfJSczkqjBK7gWOVt79XVxo3btczYbzTdQewwYBMTc4kqDTa6fAkHwq8zUQhO8W+ikm7SnG5jOBbtFMQ1KREZS3UcynL3ZGhgyV5esv5e5neW3TqWvBLYcblSPV0bXDhuJWtGTb0p5U4XQ+U7PAYVPql/tkmE52vmLmPLZNECX4zbIEHLEf3My4gfEch8uNT/pBT2S2VzClT2yHGxuvFYnZNGXDFKnbNMXfwDIcWyo1Dtz4+DBeI1I8p8MtK80NmycIvFiymA/mxkowROmfUJKfuQGL5C4bM5/t5MSgdoJaA45ZNAh+n/SZz2GlRT6b4+F5AkS2QSaSzRUc+pLhZPlsZ6XlcgZCAWdzJwMgUy4YZD4WwiGfMCS2QRCZzeQdDY1Pw1AuD82vyTyRmVG7QhpSQxQNBIVe+ZyJcCQg7VIREQ6R4eeEFkFqeTJZ0ZxQy5PgZ8YKQxWGTcdf02QFzKyARSY/IkCgCYgOoZxjao3SKQck634dqaGMo3lSVAylncqSbMNh7iHpB31AyNzJuLmOImHmtEhL6Cm1PwQwYYIMTROwFXW1VwTVdBTN5QrCyCtiFQLsSHuCIwJPjovAMh5PIBQkONUF9LHsNonD9ipjFTKHBLj8TMBsEfhUViBOwKw5bQzGBxHwB2VOaQZhLgruQ4MDQ6ipqUChYCGVzqC6qgKpNH2n8qiqIohLCA35zIGBQaEzQS4/E1xx/vm5pqZa1m5iKCWmNdLcAYWVGIgnZX1RY9k/MChriXTvJ2COBBFghdHBOCoqY6J14bgYWprJZpHL5lBTW+1GcZkCzPv7+gU0UAvW0+v48hAo9fT1SW4OmlYTfWlUNlTCzOWQSGXRmBvCK9/4F1hvvY7pbVsBCIaFlZl+vB3vgY2Q7K++XBaTKusxrq4aPtZuNhXkfRqW93fjnaE+FAgQ7BzgmRh2mmd+om60s0OIL38b6f5NCGkGwj4Lfs2EUkgBRkpiX23FDzNQA7WpE1rDWJhaGGoh44AIRRMpj2+TlU6ja/F8WIProKtUi6rCAOjNrgcCCPgKjiOjXgVf+95QKhphqT6wrLmDtKldIFghotZgiyp0qwYL5wYXI5Q+O1x9OP62qActwxQOcy+qasugR9EvoQxXCJAofndcKIaPUtuOX0PxcDwhtjhR+m042Y9jRy91nyCAzL6oapZxu4ClpB4eoecdfqBbJ8kugYHy2gAO+HHp4gKHLRd4uf9EWaNUQUs3HA9lx3+k2GeHEMOgyp2OImZz//L6onvGFqQbScqRb9yw24VL8xLSGyaag/PedUjuo5IPTXHcziTKFMo8Oz0vv5+ar5LavDgxZRh0eBLdLnC9uyBULivvc/G7e67korINPTznqORXUhxXsb6S+2BnSZSviWG32C3CzcvMCQTvWxzlwHirM1hmiSibO1EqFu8tvicjiL+FX0/Ze+jQ21k9Lux2zSG2+2qXOwS5c8crXEWmYHv+K4YAyrp0w59Lr3uRaEUzpztqpgcuvo0Ex262TP7KjwTUYhIiqC4WrZL01qxj4cyJrili/pLQPU0RcxrfU5KW5wnsHPMWQbImjoME3X4BuASqtgC3Qsnibk4AACAASURBVC4vYF60ELmCgCD+y2fyovmhYFNIW9DDPulczjAR7N6E2VdfCfutt7YOECwDK9J9WDTQC8ViEjoLmpXExMpGTKiuh246glbOp2N5dy9WxvtR0HVYetbzQdjK3uGd2goFjHg3Vtzzf1j7wj3wqWk0V/nR0RJAQC3ANhIw8mnEC9Uwq/ZCuGM6fC2dgK8KtqqBATOSZVlMEwbMbAKb5j2PwqqXkRjoR9+QAt0fkJelviqCjvo8VKSRqxyP4Ik/Atr3g6FGxFShU9rkLui+xLZNyay40757o3P3t2Fvw3eziq0zkPdwLpI9rxwglPjq8Pa2Q4vI1XKUNv/i5u062g1zO4cTOdCizPBb4t3lSGgbPXA1ISW6uBzRYU4lt07n5hGYYFuty/nS/j0MCrbWA+cJw1ytDJu5wyyWki52wAEYLrQodaroqDlMiyKHGMGRxIF1eDjCk0pWfWeAJaBU1A65Dq5crQ5EHOZ6jrHMLTBTAjrlHH5LsDHM0YvUeBeqGV5M74WORqxHd7pc0Fm2FkoAZst3wRlDEaQO979Ev3JtWIlCzgBLdCgrCuWAHae991r1I6lf1tMtcLtDHUfj5Vzj9L/cT748S2aRmqIJlKN8dbrvies0MPyuuBqzcueEcsfh4kIutVe2gkdEQ5U0f+6jt2xmeCK31GqWt+f2emvotXRZGVxyax0UtwamOGDSIfGAWbsaz339KlgECFsxMRRgYmWqDwsGBmEqYcl46M8kMK6xHp3ROvgoa9F3SPNjxeYerCJA8PkkgsFzUtyhnfyTe3Eh3oPld16HTbNuhIk0mqJA5xjAH1DA1NqJIWDpRg1ZXx30cBT+cBRasBa+iB/1MQ11FRoUIwsYCdiFOOzsoPzr6spg0UYicRopLLRUKpjYxrTMgM365Gf8GUr7IaJBUCR2lpv2+wfRfHJnyhu5RwGPAh9HCgi0FkxmgelgGO5ownTDHK+BOeeNrWsQYGJjMo7FyX6k/X4p2KSnEmhra0JnpA6+ArUZQEpVsKqvD2tTcVhaALaW8wDCx3EhfRBjyrsAoWvW/8GwM2iqKAIERtKoiCdtLFxtI2kzNW3ecTO0fPDbBbRXKxg3pkw1S0chzZESuvtsLNqoirMN72mpBCa10/4LoLIR9hl3uQCBITvDfgcfxBi9Nj0KeBTwKLC7UqAIEOh1RauAAxCYank1nr/iGzDmbN0HgdkUc6qJhFIQkwR9H+jXYft9COeDKCRzkqtkSDGQ9AGpIP2HmEPf0yDsrmtht+tXIdGDZXdej82P3gBTYS0GYCILMPpZ7hkYTCpYuMJGmsWakBMPW9YUZ7KOlsosJo61oZDpU8tH+Ouqs/v6FCzYaAtAoEaQAGFyO/0MlGGAMOoQWLzZAwi73brwOuRRwKPAh0OBnQYIkkiOW64FFGjE8cPyh7C+tx+Lkr3IsHIOEypxGJTMVB2qoXk+CB/OtH48nlJI9GLpndc5AAEZNLsAwU9nagKEIQULl7M8M8NjCBC43FiIOYLmqiFMHmsyn41reKO3neP9398LLNgI5KWAh43mSgWT222uUaCyGcrpdwOjZsIUgGDC8Y33TAwfj1XljcKjgEeB7aXATgMEVnak02HUB4W5WyIx2DXVGLBNrEr2IBnvQ36gH0b/IIxEGgxeoIrCCHiJkrZ3bj7x1xWSvVhy53XomnUDLCuDlgjQ2aFAAILllHteQA2CwnLPOTeTAROqaGiLGY4GQbK4DIMEItq+XmDhRk00CFBNNFfDKQ1NgBBrEYBgjzpYAIKiWG5RUA8gfOIXpEcAjwKfMArsLECwTA1JWEi31iAwcQyCLS0INNSAee2tVA5m3yDMzV1IrlqDVQsWobu7G5YegOkreImSPmFrbKeHawwNYP2s32Hdw79EOrEeLeECJo52AIINDfEhDfOXFZBBEFCpQTAZpS4FltpjNiaOZupip8ynHOJUzQQ2OhZuCiFXYORCHi3VCiaOUqCEg0BTJ5QTbobdvC9Mhkl6AGGn58+70aOAR4E9mwLDAIHlnp2aDEUfhGeuvAb2nNcxo7UJDaqballsugUUVBtrEwNYkByE0VCPyso6tNTVoLmlHtG8CqUvAWVwCNlMGiu71mHp4AZYOvdxUwBCYCiK1rAfUxrroe+9D3z//m9QOju9VMt79nLatb23zTyM7nUYmP8GNsx5FP7eVzC2wUCoohp2VQfiSQVvPv04jAzT5dLkRZDguN22xoDO0TZUmhgk3tFJHMCkSJnK/bFJOxj9PUtR6N6ABqTRMa0J2thDoIw7GHbbp2AHat3c+swy5pkYdu3Meq15FPAosCdQoBQRKdunmx/CLiC/eQOe+MF3oT3/DA6MtaBGCcEOBYHKGLSKShQaqrBq8zrM/cdLUrHGn1MRGhrC6FE1GFPTAr/kJ1NgqgH0tFVhpc9AqjuJVLwPmUwvwv1ZtKtRjBnfgdB+0xC67DJg7HgPIOwJi+bD6qPFgBomISlYMHvXw+iaJzkQtMpWKNEq9K+Yj1d//W2EetdCsxQYqg1DZURDAK2xOCaNNR2AwMN1UrR8AWDGRcD+1yBnDCHfE4eWHECkLQKlbiwQroOlVwDUHkgaZ5YuZbIlz8TwYc279xyPAh4Fdi8KuAnvoTDTqWXAymaw6eUXkHjsadTFc6hpbYI9pgnK6Fao9Y2w/UGseOIJzLn+JgSG8iKYKVYO7U3VmFTdiKBbFc6M1ACfOwnWUTOR60lhaOMG9K5fidTy5QgPZjFq8l6IzdwP6oz9oFRUewBh91oWH21vmJCDsbI2iyzbTLXMBN7M1k0bg4m+uS/h9ZuuQuWmt8EAhLRfQUavgmppGF0xgCkdhmQkKx2WLWosZb9LgKO/j3yoSjLO6UwHrJhitnDsEYq05zg9iqPCx3ZhfrQz7D3do4BHgd2fAk4qKQckMG0992KmUzdhDaWBoSzUcABK2I9CwC8ZbJFJYfl99+LtH14LXyaFXEiDP62iM9KASZXV8Fl5wGejUFUDfPk86GeeBigh2dctOwc7NQQM5aCFwkAsArBaJNv9mB5eNcedmVimFLXcvGasRa4QINjI03nQVJBbsxxLH/gNEgseQz6xGaaVEDUYMx+2R5jbgHUCHP5uawoUXwx27SRg/4uAqefCCLCADQs+WbBUpqf1SVEnKQAlaQtZ9c61UOxM/717PAp4FPAosKdTwE0f7VTEcYwONOU6VXKEzzvwQVKfK1BNBVY2hWX33IX5P/oeLHUA6YiOyn4/ppktGNVWCd3OQ1FNGNUNwFfOh3rGGTA1+iA4WVsptKkU6BQFeVUVzzI3Yn1Pp+ZW++8BhJ2YVjoUcgEyQQf1AI4Wgc4yTrpPpTAEu38T+pcsxKY3ZiM+/ylo3StgaCaaKy10jmFdXcAKVEKp2Qtqx2HAuKNgNe8NM9QoOc7ZprPMucqZSUliIQWt2orOaEpZmNtIVb8To/Ju8SjgUcCjwB5EgWKaaIkULxaOc1JSO1V0nVTmjtWA0hhgp9JYde99mP8f34NmDSIbUxDI2JgQacToUdUI521oWR1mpBH25efDPONUQAu5YIPtDJcdZy7bcl/zPYhy291VDyBsN6mGLyRaZVyCIUYGFbrNcqMEDDYKEl1gQCczZ9rOwX6kF7+BjS/8HRuXvIxq3wpMGR+EVj8a6oSToHaeAlR3wgxWwdBYShVOjQW3SI5jyHDwsWgP6NCoOBUGixn3d2II3i0eBTwKeBTYsylQ7qkoYMCtvCqiVXHPdM4SNIhQZxhIzHsbC359M/rfnIN8fy8C+SGMrqvElMoG6PDBrKqHf58DoZx1EozpU6DC59TaKBadcaWyknD2MZbS9myAUCqoUyyj9iGtdzexETT6BzghNpINUSnAtrmYhL07ZZ3J080srIEuxOc9jczKN9DS1gx9wgygaSrMaCsMhWmYHXTKVKAKK+cpKkyWJS4rz1MEBOKDIAjZ80H4kGbce4xHAY8CuxMFtqhL5WgKnCppw9U7SyWrBDtQeHMu0wo5GN2bsPnVN7Huyecx9MKraFYMTG4ZA21GJ3D0wVCm7oNCQxNMXxAhKfYwXK+NFaF5UJAbWfxzdyLRrujLngcQXFBQGnypVLFzplhZbFcQZ5ttFBdnqXqay9zlz7Bc79a+c0AE/5/PwMymoek+VnZyqjCpumgDJOLRqdFaKtf7rtKzbodkfbp0kLK3cr+zaoervLk6BymzuuMQt9SOS19pYSfa+UDnwWvco4BHAY8CIymwjaqQUkbbLVlusUR1voD8hk3oe+MNGOvXo3nyZPinTACa6mH4Q7AUzdHmSmZb5yHlTe/4rrrnTdUeBxCKjIt1yhlqmEqloOs6wuGwMMKdYYYf1LSxr+xjPpdDMpmEZVmIRqPy/Z2lS9HR0YGmpqad7rdhGFi1ahV6enowZcoUhIJBLFu2DEuXL0NbaxumTZsGn88nNdV39BDgIR7BjpOPpmnDpYA9oLCj5PSu9yjgUWC3oIAT+UBHRso+DI1U8ikgk4USCsL2+6VaLsGBSgdEy4UE5VFnu8U4PpxO7HkAgQyLcrZtY97cubjr7rsxenQHvvjFLyASiTgAwZV6S7Xt3XMiU5cxt/Ka6qWa5mX10bd27chz/L7Fc8rmjQx8xcqVePCBB7Bw4UJ59syZM4WZ/+xnP8NXvvIVnHzyycLAy9st78u2AA+fmc1mceutt+Khhx7CddddJ0DpP//zP7Fp0yace+65uPjiixGrqBCnx+0aSzlCtm1kslnMnzcP1TU1GDdunIAER5HwScDOH84L6D3Fo4BHgR2nwLb23PdvyeEfotO1qa+lczlDGJkhidVtFAg0ED8wfnMBwg7ueUUBq7hflvOJ8j7u7nvpngcQxP5uo2Ca+OVNN+GnP/0pGhubcPvtv8PeU6eiYBjo7emBz+dHKp1CoVBAbU2NfE6nM6ivZ3rNSqSGhtDd0wMy8VgshoaGBqRTKQwMDjqSs22joqICVVVVyOXz6Nq8udQWGSaZ8+DgIILBoPzlRLe0tooULwvQtoVRX3vttZg9ezaOOfoYNDY1or29Hc3NzfjBD36Aq6++Gmecfrr0mVqAeHwQ0WhFSavQ29sLv9+PylhM+mWaJmpra0ttJxIJ3H333XjkkUdwyy23YPXq1fjXf/1XfPWrX8U5n/scKquqhKnrmiaAivfG43F5FvtH7UW0ogLJRALpdBqaqspzqI1hX5ctW44rLr8chx1+OC655BK0tbdDpzZiN9PUvP+m4F3hUcCjwJ5OgeK+zL135cqVsodRcAmFmKegjJFvxTeNmlDWv6HzIo25qkW/MTp8A4bqOJirNnPPuHlmXL8FhjNS56BJ3pstj5FCHTXEPMd9euPGjVi+fLnwCfKWiRMnirZ7zZo1oknmQYG2s7NTeMjueuyZAAEAmec111yDfC4v0vlVV1+FCy+8UJjyD3/4QwQCAWF669atw9S99kK+UMCKFStw7LHHynUvvvgiHn/8cbmGE0VmzXvvuusuYfiJeBwnn3IKzj7rLDz8yCN48oknxFwwatQoYZYDAwPClNv+f/auAz6K6uue7ZveK72E3ntTEAWpUpSmqKCggGJFsYtYwQYI1k9QQBQVxV7oqPTeew01pJfNttnvd+7uxCUChhDyDzjrL5Lszrx5c+ftu+ee28qXx7HkZKSlp8sYnTt3LrC0ly1bhkcffVTGGDZ8uHchA1i/fr1Y+g888AB69eqFFStW4JNPPkFaWirMZovMr27denj3/fdQrUoVOebzzz+XefHavN/3339fFlbysWMCdl555RV8//33mDlzJpo1a4ZbbrlFjidoIMipXr06OnfqhBmffIJt27YJMGrXrh1uu/VW/LViBb788ktUrlwJ+/cfELcEZbtq1SqRJe958O2DMWLESISHhv6DkSiri1ublyYBTQJXjwRUl+eOHTvw1NNPQ/EoeGn8i2jQsGGBUeaLQxTwoLpW+btEhun1cNG5wM/cOslAUzMTJA5R9LYa8Agw9pwVbni82VexloaWyp9S0ausqj+jsWvXLrw24TWknklFdEw0rBYrRo8ejVOnTsk+brPZZF+uVasWXn31VTFayyqTcEUCBMWtYPXqVbh/9GiMvv9+zPvmG1hMJrwzbRrSUlPRp29fdOjQAR07dhQqnwDgvvvuw5zP58hDmzZtmjzYjMwMJB9NxpQpU3DnnXeiS5cuOHToMBYvXoSPP/5YlDsRHhV5z549UbduXUyYMAE33XQT6tevjyfGjsXIUaNQtWpVYTIIDl588UUBAkSsX8+bh7ffflveu+6662QRcCGtWLkSTz75BB4Y/QCu79gRYx57TADP8GHD5Bwqdl5zwuuvo16dOjJ3LiQewzlNnTpVkCnBwk8//SQAY8rkydi4aZMwFlTunTp1wuTJk7F48WIMGTJEWICjR45gyjvvYMS998o8PvjgAzz55JOCat9//z08//zzyM3JxetvvCEMR3R0NEaNGiVyue++Uahbpy4sVutZQZFXz/aj3YkmAU0CZVkC3LMcDgdmzZol+xzZ1ccffxxDhw4Vpbt7925hP8n2kvWtVrUqzqSeQWpqGmokJaFylao4efI4du/eJUxpYkICatWujeysHBw+eFiYAsXjQnhEKJJqJCEnx4ZNW7YjNzsHNapXQ1JSkuy73C9pgB45dFgYCMZ6kSUgICFjPX36dDz77LN45eWX0eG66+Q9Xovg4uTJk1i9erUYhDTi6GamoacBhBJaeVwkpNbHv/AC5nz+OW677TZs2LBB2AFaz+FhYejXv78o/D59+4hCDQ4KFgubQGDNmjUCEKiE16xejTybTSxvHn/vPfdg9dq1omzr1asnD49Mw9jHH8eHH30kiO/++++X8Tpe3xGvvfaaKOEaNWti1MiRaNSokSyKgMBAQZ3zv/8Or7zyKp568klhAVSAQMt87NixeGD0aDRv0UIUfcuWLTFmzBh8PmcOZs6ahYceeggzZsxA7dq1RUnzWmw9evfdd2P8+PHo3bu3vM8YBKLSjz76CMnJyQIseJ/t27cvYEUIBIhSJ0ycgIULFuKjDz+UBT7o1ltlHM5r3rx5cr2cnBz5wj35xBNo1Kgxbr7lZgwdMgSPPf64dyH7kHhZXdAltMy0YTQJaBIoYxLg3k8rnG5UMqB0AXMfmjhxohiGox94ABaLGZGRUcLSJiYmolLFitiwYSPq1PXGfa386y8sWPA7zmSk4vDho7hn5AiEhYbh2/nf4eSp49i2dRs6d+uEkcNH4IvPv8SaFWsRGREOt+KSvZ9GE1lVumup+Mlm3H3XXRgxapS4cule+OGHH8RI4x5MY7JJkyYyFxqlDCIfO/ZxhISG4emnnhLXQ+EYtLIk9iuOQSCtQwqHQXhkBqhYqeyXLl0qyrFt27ZC0dNq7tu3rzwoHkeA8M477wh6I7ojmIiKjEKDBg0wfcZ0DBo0SB4og/0CgwJx36j7xH2wfPlyWRi0rgkaCDiotNu0aVMAOqonVceoUfehcaNGeIkMgg8grF+/AfePvl+QJ+ehxg8cOXIETzzxhACQ66+/XsAA4wEeefhhQcdLly0TsPDee+/Jwho+bDgmT5ksPqyRI0fi5ZdfRv169WVsggMGKRK1Hj1yVFwtk6dMEQbl4YcewrFjxzD9448FIEydNg2zZ88WtoOL+cGHHhLAwXG/+vorfPrJp8jJzsadQ4bI/Jo2aYKbb7lFQATvOy4uTuIUCgc9lqUFrc1Fk4AmgatTAlS+K1eulD2LeydfX331FSa9PQkRkRFi2LRs0QK3DR6MiRMmIj0jXZjX2bNmY8PGDWJ8Md5r7549OJ1yGjNmfIJrr71WDDQCj88++wzr1q2TvZpswhuvv4Fbb71VdMTEia9L/NhNN/UU9oK6hbqG7DD3dxqGZotFmNkzqan4+quvBCikpJyWIHrup9QfjEebPGkScnJzxRVMBoTsQ1k1uK44gECKibT6iBEjRNERoREgkO6nYiZwoHV+26BbcVPvXvJ7SFAwnn9hHN59711sWL9B3ps1exYy0jMkyIWxAncNHQqT2SwoM6l6dQk4bNGihfzwPaYTUsEzToHuAfquSMPT5cAFQlTLuIEXXhgnNBdfnBddFYxVINplcCRdE/3798cTTzyJxMQEWWyMhZg9a5b4+g8cOIiu3bti0MCBeOONN/HXX3/JHIhUOdenn35aGA8qejIWDIYh7UUwQTDABcc5XXttezz22BiZL+MVypUrh3Xr1+GJsU9IjAGBFhkBjsdF+9VXX+Ojjz6UQE3GSzz22GPy5SF4IaU2YMAA3HvvvYiMjCx2WubVuW1pd6VJQJNAaUiA8WJkQ2nBMxuMLAIZYe55Pbp3x4iRI9G1a1fJ3qIRyIDsqVPfwYcffoQFCxbg008/xaJFi+QnKjoaf/35p+iPR8eMweJFizBz5iwMGNAPvXv3EeU+adIk2Z+ZdUadwevT8Jw06W0BFdxjacjRcOJxarAh91a73Q4agt9++63oKdUdzTnTVfz1V1+L0ffNN9+gVatWxUpFLw2ZX3EAgQJmdOjOnTuFPYiLj5fymZs2bZIFwWA8BvFVqVJFlCKpJrPJJCiQtQcYXEjFmpx8FOvXrUN0TCysFgsqVqokASo7d+4SmoiIrkL58oL6jp84gbVr18oCoZuhcePGMs6WLVvE/8QsCLo5+C//Zrohz+dC4XGbN28WaonokmCCyJHzpbXetl07oaroduCCio2JRes2rYXK4j2uXbMWsXGxAi5IRZGloMW/ctUqWYQREREyLsekH27T5s1o2KCBMBK8d4IHfkaAQnDF63LeDMVp0by5xFgwIpjBnM2bN5d7Z0xDvXp1UbFiJZElwUlCfDxat2kjX4Li1FUojcWsXUOTgCaBq1cCDAanMmdNGVrw3DdpgHkNnacwbtwLEi9FduG5556TvZfxWnS/EhTQ9Trx9ddhMZslpoyuZu55115zDV4YP14MsIEDBqBCxYpIPXMGr772mgRyM/aMrtzWrVvhuus6CoM7/J7h6NC+Ax5+5GHEx8Xj5ZdehsXqZRConxgPQX3Avf+NN9/Eo488ImOpmWnz58/HL7/8IsHh1Ecag1BC61ZiTBVFlC99Oqpg+bc3lUUvn6l+HTWlhH/7/84HyQWmjuE/jjpVvsfzeCyBCf+l8leLBlGZqlGsaoqL0O+F7pXHEcSoBYfUuXA89Xw5xu2W6/kDDHWO6jxU5cxj+VLn7f8+f+ePeowqCzVNiGPyPF7Hfy7nGsPjUeByeedVln1lJbS8tGE0CWgSKGMSUDME6Bqg+5TsAQGCy+nCzFkzxb1MtzKZ2KZNm6Jnjx4SBJiVnS1xWGSc6Tqgm5SKef2G9ahSuYowrlTOjMeiolZT4Glk3tSzJxYsWIily5bK5zTQyEwwMJKxWt27d0eTxk0wddpUyRIjo8DPOFcysnT5Uicwyy6hXCKG3X23xIh9/fXXokto3DFwnS4MFs/TAEIZW3TadDQJaBLQJKBJ4MqRAJlT1nChsmYwOo3F9LQ0yUigkubnrEPD31PT0kRZU+nT1cvPGM9F0HDy+HFhHRgzQKXudQene9vh6XQCCMjAkn2lC5fMLOMEYmJjofhcBKwxQ1cyA8dp5JHxVQ0sXotggP96x4pDRESkMNAcj4HgZBfKJSbCGhBQpg2vK87FcOUs55KfqeTzXmRFr5KfhTaiJgFNApoESl8Cah0EtSfM390U/1k9159dVRkIdcbn20fVfjNSS8FXeImpiepYag0E7sH+1W7Vz/2vI70eeJz3Q78eOd6x/ffxsuyyvaoAgip49UGRYnc6HIIE9QaDID7S6v6v85XA9D/G/8GrhTj+0bzIr7zzWUrcv8JXwQoF7A67zI0vo8lU0DNBFp96nG9hkapKTU0VBEpky1gCHldQWtpvQRcscrW8tN+8uGD9q4F5G0j+/U5ZXqilvx1pV9QkoEmgJCVQUEzIVypfdKefAlX3Yn8FrDal+7d5qHtmQZNHP8V+wT1erbpYyPAqil74tzn9vY17AcL5xiyO0VcY9BRnjKLM/6oCCF595610xcqJDAxkFgAj+UNDQtG1axckMe/Up3jP9cBUAKCORXBBGik+IcFLR/kqdPk/cH9E6B/LoEaskg5jhoX6ZWAMAINmtm7dKumGoaFhaNS4kQREqpSX/wPn8T//8hP27NqD2++4Q/xpHPvGG288b5nOcy5Gyoalkgv1qvBBZG+NA42hKMr3RjtGk4AmgYuUgCg1v+676l5NC1uND+OQTKUu6BxbqHtvUfans5SnuuedY66lpWQvUkxFOlyVJav7qrFyRZFNkQb3O+jqAgh+LZAZRcoIVkbvM+uAzAEzGapUrQrF7ZZKWwQK9BHxX5cv6I+sAxcrUwHpW9q2dSumz5ghNRaYhsjFy1xaKmiOyR8ery5w9X2T0SjZD/O+/loqOrKYEpkCXos+LUbCMuuC9Qr27NkjP0wjZMaBWpGLgY1kPvjgmaPLrASmJTK4hguEgILzlLRFCSZ0Qa/z1ikgO6HeB+eoBkFyLAni1OkkrZMvnscvrtFsLmgbfbELSTtek4AmAU0CF5IA9x0aXGRDbXl5EksQGRUl+6ya7cUsMDWVmmPxeFYf5HshDOYrQmda2Y89vkB1X1zBuebFPVSC2/2CxS+Hkr0cq4JzZizDurVrJQOPWXvCAPsBsJK47tUFEHwMAhUe6wQwnY+RqwwwoUApQKaZLFmyRJQsF2azpk1Rr359Se1jsQy++BnTGRkRyyJEVM6DBw+WPg4MbmHULPsfkOK/oVMnqeK1Y+dOAQtMVWRebPdu3bBs+XIpyMRKWoxYZVomGQJGsLL6V1xcLIYOvUuaNH300f9JM5H777tfAlnIfDCdh2mMLMrEgk0bN2yUghu79+wWNwODcVSQwS8Sqz5yofCzNavXIN+eL3MhQGHtb6YrEhBx7mRY2NCJbhfOk/NquwU4QgAAIABJREFUd007mE1e0KC9NAloEtAkUBISUBUxA/d+/fVXSakWpsBgkJTs62+4Qfa8t956S3oWsO6AmjF1+tQpfDt/vhQlqlunzln+fP9eC/5sAF2xTBGvXLmyBA8WdvlKLIPvxtiwb/++fWjYqBGCWL+moPMvmWhfrIGfG0LNVuPpBCE8Rp2Hyj6rWXQqs6waZf69G3i+P8urGpjnAij+4/A8mb/Hg+MnjmPc8+PQvXsPKeBE/XO++IriPserEiA47HbJYaUyZwEjlbYncGCRIdYCYE4qXQ/MU2WqCQtaENn279cPe/ftw7JlS/Hoo2MEZDBlhkCjZo2amP/dfFHAzZo1x5LFi1G7Tm3Jq2V/BabepKWlSVGO+0aNQsqZM3IuXQGtW7VCpcqV5SFSmU+cMAHxCfG46667BcXy+nQ7sDcC82N5DaJpKn2m3RAscC4sYETQ4nQ60KBBQ0ntYTEjNpf6/Isv0KNnDyz4fYF8MQgWCGYIbAh6fv75Z6n/TbfGrNmz5bxKlSrhzTffQvfu3eQ4Ne2yuAtKO0+TgCYBTQKqIhNJeDxS0p6N8Oj2Zdl5GjdkeVkoiMWHoqIi8dprE6TkPQ0vsgvsn0Cmd+PGjVKjgPFXzGIg28o9nUYcjyMjy1L73CNZ7ZAuYVaYJaigccaKuGpqOtkIHksmmABi3fr1si+ywB4r5NIgo15gYTwyFjVr1RI9QsNSr9chIyOzIPZr3/59cLsVVK5USdhl7uM0xAh2WLsmwBogBhoZXo53/NgxxERHo1pSkhhqAjIURcbmnAhsOA73ZLIDzL6gMcn5sKYPe/4QQNCQZe2a/Hwb3nvvfandwIq36t5dkizIVQcQKHR7vh0vv/KyWMf+AIFpJ2yeRGFzQfABsLQyrXsqUi5auhIo/PHjX8Dzz48Thc8qhaxOyDoLLNRRsUJF1KhZQ7oicpGS/jp2LBn33Xe/tJB+Z9IU3Db4NoRHhEuBDebocvGpwTeFAQL9SPN9AIF5u6x8yLlTwe/bu1cWKa+9ZetWqdxFMMG4BAIS5tvyi0BAwcXJ0s0sC82KjXGxscJsUPGTaaCLggVBTAYDpr37rixSzp+A5rGxjyMhLl6LQdD2dk0CmgRKRAIFVr2vSRELBrE6K2sIcC+kQieTyn23/bXXYtz4F1Ajydv+mAYNgQONo5mffooePXtKyiIVP90R3O/INBBssN09aw9wv2vRsqXsg3PnzhUDizURruvYUdIfmfrIoknc08NCQ9G4SROpokvDjI32evToIcCDxZf4L/fYBvXro3ffvvj2m2+kABL3TO63dJHs2L4daRkZ8h73bRqYPJd/U1nTiBs1cpTsvbM/+0zeP3MmBbfeepuMQTd0vt0uc2ehPPYYIkgYPny4uFU+/PADMQIJiggYaDzSwGTLABq7lNMvP/+McS+8ILpAAwhFWLZclCygMeOTGdKzgRWsYuPihHqx5dswbeo0REdFSaMiVstiuctOnTqL24EL9cEHHsD+AweknCcVLUEEK3CxXCbRHktusrjGNddcI2MS1RLhkjYb/QBbep6WZk+3Dx6M0LAwWZBsKMVqXCoVRcTrdTHESf1wXoOKng+4X79+cj7RbZOmTSVwkPOni4EKniU7BSC4XFIxjOiXQIXFNpo0bixI+7nnnxfQQ1DCaxKVkhFh05LxL76IoMAA+X3OZ58hJDRUgAjnSKRbkuizCI9LO0STgCaBq1gCKkg4eOAA3p40SfY3srdiyDkcmDplClJSzqBX75uktPGwu4ejbv26+HLul2I5s+T8//3fxxh06yBRklTmVOTcu9euWyeVExlrRiOMJempNA8eOIj/+/hjDBo4QAwl7nHcW1kyntcgq0C3LePTyNByD5VeOZGR0iiPFj3jwch20IB85plnsGTJUlH4ZJvpsqYiz87KxrHjx4QZYY8cstE8l+5oGpksvjR8+DB8//0PotBpqNEQ5Z5MVwrnxboKNCoJWuj6ZTlouq15/KczP8UrL78ieocGKgs1ETiQYX72uedgz8+XmLQ77rgDN998swYQ/vV75Je7SqVJep8UlKooqTyJTJcvWyZdFLkAGTPABzp37pcICwuVxkx8uKytzYVBpMqAQjYsIjAgpU+qiH59Ftqg8mU2AgEC3Qp82CzhOWjQQMTGxuGdKVNQvkKFAh8alTDptgmvvSYFPgg0jhw+jCNHj0rDKM6VDZtII7Vr1xYmk1koMroXWIWLDAcDUxhUyUVMtPzSSy9Lx7FHHn1U2AwiTH4hmjdrJoGRROFEqVzAXFhBQYHSwpT3ePjIkQLQc1Z60b8KWztAk4AmAU0CF5aAChAYf8AYA7pb2Yqevn72faGhRGud73HfogHGPfDXX3/Bt9/Ol8ZMNGQGDBwoCpvt61lJUfXDV6xYAR9/PF0MOJax5+vQwYP44MMPhYEgQ8oX9zYCDLIN3AepFwguaJ2z0uIzTz8tAZBsvkRjjkr36NEjGDZsuOy5jGmgMUiDjuP8/vvvOHjwEBTFLdY/DVHGcrEkPZtFUYeQTSBTPW3qVDHgGOvG9tOVKlZCnz59hCWmC4GggfFhbAmw7I/l6HdLPyiKBz///JP0ASKTMe6Fceh1Uy85jiBEjNf0dDw+dqywKBpAKMI3sSBAw+MRdMoFtXbNGqFuAoOCBDXyIbNJBxUylTVrcVOB8iEHBAQICiWFRWTZrm1bQaSLliwWOqxZ02ZSAWv5H8vF5x8YGCTHM0MgMysTLZu3QHZurvR44CILj4jA6lWrhJpiW081SJEPnNQWGQ6r1YKQ4BDpS85MBy4Sgg0GKZKaIqvBOZIiW7J0qdBqUtdBr5cgSjIJixYulHle066dgJY9u3dj1erVwphER0XLfROhEnSQ4hP6zOGQBUyAxFbO9L1pAKEIi0w7RJOAJoEiScA/cJBKlWwq2VMqX1rv3P/efnsSbr11kBha7LhLS5zZWXO/+AJHk5OlSRzZVRpP3L8YTH7brV73Lel27msvvDge94+6D02bNYXFZMax48fx7rvvinImg0Bqn3sbrXLu7QQrc+bMkcqKBBBszMTYLs6JjfWotDkP6o/x48fjqaeewspVK6XnAmMkOG/2dOh3yy2yl7LR3shRo7Bzxw6ZM6/LmAPGit17zz1yLeoCGpmcS3BwEKKjY8SI4z0RGHGeZHLpku7cqZPENvzw04946803vQBh3DhxIzC+gWw3jTvKko2qaOAytkxzMRRpWXoPUhEmhcu0RqJD+nyYNsj3yAwwWE8NYJR8UkA+V6NuVYFTCTMGQO1dwAwAF9Mk/c7nNf17GRTuscC//XtHcLGqTaG4eDkXld5nhK06R4IYtTcDz1F7PajKnHOWCFhf3whVRLw/NeWSoEPtYcE5MxZj9+49+PbbbwR8dOvWzXt99pHQ6iBcxCrTDtUkoEngfBJQAQL3FO51O3ftwqeffAIGkbNUMYMJk2rUwODbbhPFTTo9Oia6IAaBQIIBe4wbI0BgDAJZYY5HN3G58uXF4GFcwo6dOyQ2rFmzpmjYoCHe/+ADGZMsAd2ttNaZdk56PisjAzt37UanzjegapWqwmywMR0zAbiXEpDQ/UujsHy5ct4g9vnzpZsv53H0yFFxVQSHBMu4BAxkGZgF8enMmd6+O9DhxMkTwkwQsNANUaFCeVgtVomTYAdHNglkXAQ7VNKIpeuCTDGBAOXF2DC6uunaeP2NN9G7Vy+ZA+URFhqGoOAgLFu6TALoe/ToLvpIZUtKalVelUGKKkAoKSGdc5wL5Jueq7zmxczlXFXBRHH7pef4K/LC1ytcJKlwZUb6sdi0hOCI4IBfBnU8DSBczJPSjtUkoEngQhLwT7uj0UMLmHQ9jRQqRDKtpPtz8/Jw5NBhOF1OpJxOQWRUJOrUri0WORW4xBg0by7ML2l2phdWrlJZutGSnWDX2ZzcXMl8YCYDu/Xu339AmAlG/9PQ4jV5HIFJRHi4UP7MQGMgN8FErVo1ERUVLYwvXQQEAPXr1Ze+D8nHjskYBAw0GMkQ8Dhmi5F55jW5n9Llq7IU7PDLWANmLmzfsUOYCzIIvGeyF2qjvMOHDmHv3n3CihBw8HgadGRHyG4TLDCGg52LyWAzloLz4++cP8fiZ+q+X5J7+FULEErqa+tPk/k/AH90XFLXOtc4hat9ceHofEChWKWR2cXS5RL3BRc0U4rUTpGai+FyPkltbE0C/20JqKyu2nlXGFW1uA9ZX5941FoDVPyMu6K7ldlbtWrWFKZUmFQfY1pQC0GKI3lr3aj7dOH6ATSweIxap8B//yzoxstCcjyGrLNOJ+mQBeOdo3ZBAZOr0+HQwUP4fcHvyMrMEvaARe9uuukmBAYEnDVvlRFWVwOvLZ2B1Wv5PvBX9P5AS2W4pU6D3luavygFpIqz+jSAcAGp+Stn/xbS6gPyX2Alidr8p6TOgS6QfJtNUKxa8plfluJc9x+gw695SHHGK87C087RJKBJ4L8lgcJGlQoY/kGL+wwgxgKwZg2BRP169bxl5f2YVFHOfsBClWZhZep/nH+cmhhb3ovLqfxMjCXvH2c9HH/QwQ9Uo8r/ILokyG4QHCTEJ0iwJWspcCT/4/9hiPlVAFbHK+j549fo6az79WewL1BO+lJXmAYQ/gUgkBZjviszDpgew0AW+otY2IL0D2mewg+V6DMtPUMCEP0bKl3sw1IXs6Ro2mziFmCkLoMTC6p3+fWVKM74hc/RAMLFSlE7XpOAJoFLkcBZBksh160ap1XAcvopdP/qgwXxWz5jx78jo8cHKvyP8W9c5//+uYwzFTgUlDE+h3u5AEAoimSYMaaroJ+E36Dn2l/PBXIKy7OADTkHIPoHwLqUh1HoXA0g/AtAoN+KhYuY1sIyxwyKoZ+J1BejVenjYlAKAxeJdGnhE0my1HPdevXQqmVLsfLVAEeVHuOxXPx88GqvBLVLIxkCUkYEGuqXh2NOmTJZKjgy8EZ9n4GX8iomm1CCa0kbSpOAJgFNAhctgcKMpv8A51OeBAdMWef+nFS9OgyFuvT6j8G9OeX0aYl1oMFWYND5mIPCMV/+JZMZN0CDkIbZuRrp+Y9VwJAUUuIMcFfBAmMtsrOyJHaBusK/d4J/7Nj/wp19rgenAYQLAQRFQW5eLt56620BCCx0Mfr++6ViFksVMyeWaZNMiWThIdZRYH0EBpEwn5YpiczvZeXvenXrSVONVStXSrQrq3gx+pWxAGwitX79OqxevUaCWNq3by/nMgiGKY+k2shUMF+2RYvmaNGipaRScrzatWoVfDk06/+i9ybtBE0CmgTKgAT82dICpev7hTEB/gqTv9OYYtl8KnDWg6H7QcZQ4wT87olBiayG27lTZ9StV1fq33DvZOq47JmFOkaqp/IaTFVkZgHL0jODoDC4UK/p76YoOMjjESNw1+7diI2JRVR0lHTiZS0H6o6Y2NizmuOdL8iwtOLdNIBwkV8EPhgi1MmTJ0tkKqNV2RmSkbPM0x0ydKgsUBbfaNSwoUTYEgzUrlVb8lRZ9vj6G67H0iVLJUWHGQMsfMFxGHQzb948xMXGoVLlSlJ1i2PTlcAI1TvvuAMbNm6UWuUEHSwbumjRQknlYXlOMgrMEWYakBqYowGEi3zA2uGaBDQJ/M8lQDeu1KoJDBQrXQ2g5t/MTKAFzkA/pgRy32NtGBYe+uqrr8TVy9oEfLGWC1kCsrRqeWJmK3DM1WvWiEuYxh3Z3/79+0vVWY6Tk52NtPR0sei5T3N/5t5Pw4z7MoMkmY3AcXgNtWYMCxZxPjTqYqJjYLGYYcvPl2sTXHAurFnDKohMtST7zAqMe/ftRfNmzSWVnUwydQyvxWvTha3On70WAgODYTIZ5Z7JNJf2S2MQLsQgsMlIXh4mT54kD7Ju3XpSVOPGG7uIxX/nkCH46ccfJXWGFcJIefGHi++FceMw9K67xB3AwhZEooxo5e9cVCxsQeah7819sWXzFgEaLM7B6mJvvvWWVF7kF0Vt0ESE/Oorr0iDE+YOjxgxQtJ3JBKY96C5GEr7u6NdT5OAJoESkACVNvdVdnZk1dnPZs9G1WrVhH39/bffRGFTKS9eskTAAg2hbt27S+l51gpgTQEqa6Zrc+9l8Te+bzQYUbVaVTGuqOi5p27atBFffDFX2OBON9yAxHLlpDYC92SOTXa2fYf2EkPAYntzv5yL2bNmS68G7sesTDvkzjtF8bO2AWMZyHBQ4bdt1xarV6/G2nVrERgQKG4Jjss0TcavsRJiXHyc7PssmsTrMlODwINMMVM0+w8YIP13vpo3T9IrGeBoMZmEcWCxpdI2AjWAUESAYLUGSMEMlkGm0ibyJO1ENMrSy1ywer0BISHB4nZ4+KGHcPewYdKYhJQWGQW+z5gFVs8iYuTCv+eeeyT4MD0tDSMIEPLypKIYCxhxEdLNwCpfBAKspsUS0kS+Yx8fi4qVKsrsZdEw7UcrclQC25U2hCYBTQKlKQEqXlZZ5P7IioITJ0yUzrcjR47AjBkzxAXLCor021PJsxcNe9XQaGKWA/dQ1gyYOXOmVBUkQKD7ln0faJWT5n/k0Ucw7O5h8HgUfPbZHDGwyCisXbtWaP9uXbpg6/btOJacLCXr2cyJ6eBfzP0C383/TkopEzCwLw8NOe7DZApo6LHiIkvws2HTL7/+KgWQCG7IIJxJScHTzzwjxxGU8FjGp5FBZg8J3jPLLnMO7AnByo0s/cwXGWeyF6zG+/Irr0jdiGKltl/Cw9QAQhEAAoMDLVYrRt47QpT7Qw89jJzcHAleZKOmP/78U+j+yMgIWMwWQYQsz0nkSqTIRcpj//jjTzz00IPIycnGtHenYdCAQVK3m22jubC4iIg4f/3lF0GSu3bvwv59+wUgcGG8+cYb0ony1OnTcDmdAkBYuEMWjcYgXMLXQDtVk4Amgf+VBEjH//brr+JS5Z7JXglsYEfX6voNG6T0MBUn3akEBgcPHpAuh6T2GV/Ajr00ptgzh/1yaLmzumJQQABu7NpVCgmxxwOBBJU2FfRYlpePjJRy82QiWN6ZTAZBBxU9GQtS/WQJ2PuGSp7B6I+NeRy9+/TG4iWLReGzW+SBgwel2RO7LXLeAmAqVUKXrl0FALAcMhstdejQQRQ+QQ8D3skstGt3DQYOHCDMA6sz8n2yHV27dBUmg/EK7PT7/LhxZxW0K61npQGEfwEIXLy//vqrAISO110nFbwWLFwg+a5Eq4ymJT1GNElaqV79emL9cyEQ9fJ3LiQiztWr1uCWm2+G0+WQGIYbu3RFw0YNZWEyjuHI0SPQ6/SyWLmYtmzdIt27unXtJoGIP//0k3xBGCxDxMrjOP6FomtLayFp19EkoElAk0BxJMA9lNUVGUhIpc/+NuwnwxLF3ONoSVPBc69jADcNoqioSCxf/odY5FTopOoZ39W1a1fpFknKnv11yBAMGDAQ06ZNFdaAvnyWayb7S5cE20Iz5ouGHGMQyAzTdUt/P2MECDRo3bPJHfvXUNnTkFu5cqX0TqBLg3Mg68GGSmysx/GWLV+GrIws9Ot3C1555VVp3se20wQbM2fPxmNjxkjJZDIizIbjXNmTgd0ZCTDINJN9Zs+ehQsXCvjxr3hbHDkX5xwNIPwLQODiJTolja9GykqfBLoIWIVQp5MgEwbZMBggPDQMAYGBEqSSnZMNs8ksi47NNxz5DgnEcXtcsOXlynEmk0V8X8yWINXG6xC98lq8BnNq6YpgnAEDYLhw6W5gR0hem+NpMQjFWfraOZoENAmUFQnQRcDOjnTfvjh+vLgIpr37Lp599tmCfgtU9szu4h7IWjB79uwRQ4nB3bTc6Z4dNWqUxIHt3bNHAssPHjok7C6bNw0bNgwVylfAlHemICYmGh07Xi/BiGymRFBA8FClcmUxzthFl2Wfac2zZPKTTz0l+zFZAvaIoE5gkCTLQaecOSNG2+2DB0vZZjUWjbK97dZbpbMkmeHu3bqBrmoahw8+/JB0/WX8BEHGmjVr5G+6ohl4yeB0gg0y1hnpGXjzrTc1gFBWFmvBPHylOdXAEEm38Su3KY2SWCWLJ/gVLCqcsqOmrzgdLHPsRECgWcole8tjqlW8vME3MqZfZcNzVR9Ti3yon6l/l3YAS5l7XtqENAloErjiJMB9jHECTA8nm0oQQKOL/QfY4ZaKm39TUTO+gG4CggIaVjyeReyogKmsq1StIm2Yt23dKjEDdDkkJCSI0qWrgefSwmcvBWajlUtMxN59+wSQ0PDitdl5V+2TQGVP44/xCnyR6aDiZqr6tu3bZdyI8Ag0b9FcaiyQTeAxZCPk2omJEodABjkhIV56Jpw6eUrYB84hMjJS5sUYNN5/7Tp1pIoCG0Jl5+RIjAVBE4EDU91Le4/XGIR/YRBE9/sBADn8Qo2aCgEF/+Fzch3IyclFTGw49Iwr9P3nLerp/b9/YRD/whn+nxUuw+lfLvSK2x20CWsS0CTw35aArw4BDSPurQV9BXzljmUfpOHkdguQoPIuyN4CwDL0ZHr5nqrY/Ssw8j2114FqyPn3XqDwGW/Al9rVVn0g/gaaf0Enzolj8Dz2UFALNanv8XyCBPW4gkqI5wgk9y/jLI2ZDh6U7pR0aWzZshW169RG/379C7r6luZi0QBCKUmbCzzfocDhdCMw0ASDzsc8lNL1tctoEtAkoElAk0DZloDb5Zb4iXXr10nKOzMXmjZriujomLP6RpTWXWgAoZQkLe07s/KRlpGFCuVjYNbrvK4J7aVJQJOAJgFNApoEfA2jyCLwh2yEGnMmDPL/IFNNAwiltCwJEDLznMjOyUNMdOjZAKGgrVgpTUa7jCYBTQKaBDQJlEkJFO5yqbpDSrsGgoASz4U6ZZRJ8V2Zk/K6GNzItzsRHGyBkfEH/l1C1N+vzNvTZq1JQJOAJgFNAiUhAV9MRmkHJJ5r6hpAKIkHWoQxCBCycvKRkpqKiuXjYVJLJPNcjUEoggS1QzQJaBLQJKBJoDQloAGEUpR2rt2FnJw8hIcHwaw3aAxCKcpeu5QmAU0CmgQ0CVycBDSAcHHyuqSjbQ43cm35CAsJgFGv91VA0BiESxKqdrImAU0CmgQ0CVwWCWgA4bKI9dyDZuXm41RKKipWiIdZczGUouS1S2kS0CSgSUCTwMVKQAMIFyuxYh4vQYpON/JsdoQFB0gdhIIgFC0GoZhS1U7TJKBJQJOAJoHLJQENIFwuyZ5jXLoYMrNzEREeDJNeL9UU5aUBhFJ8CtqlNAloEtAkoEmgKBLQAEJRpFQCxxADZNscOHHyDCqVj4PZaNAAQgnIVRtCk4AmAU0CmgQujwQ0gHB55PqPUQkQ7G4PbDYnggLNMOr9Si1rDEIpPQXtMpoENAloEtAkUFQJaAChqJK6xOOIAfLsbqRl5CAmmi4Gg8QhaC6GSxSsdromAU0CmgQ0CVwWCWgA4bKI9dyDZtucOJmShvIJ0bCYDH/3YtAYhFJ8CtqlNAloEtAkoEmgKBLQAEJRpFRCx+S7PLDZXQgKMGkuhhKSqTaMJgFNApoENAlcHgloAOHyyPWco7KS4skz6SgfFwkTgxTVo4rAILBXukcBpGe6dPaC9D4vyIQoxfvQLqVJQJOAJgFNAmdLQPEAbG3kVtzygUGq5equ6D1aAwiltMqp1nMdTpxOSUe5uGiYjGz3rEBCFT0sisCJeJU//+Fv7OKVbXPhVHo2jqVk4nS6Hbn5BAlAYIAJsaEBKB8XgMRIC4IDzNDrDfDovLBDzzHVV8HYKhLROkOV0mPXLqNJQJPA1SABGmg6DzzQyY/O44YebrhdOuTmKTiRnocjaVk4nZmD7HwH9B4jQqwWxIRbUCE6CPERQd492rc/yz++fV/RUQ/ooFd8eqAMbc8aQCilxStZDIoHuXkOBAeaYSIDoCPSJEDwogKPRy9AwQMX7G4dDp/Iw+INR7HhUApO5jqQ6TTBDhN4lkHvRJTOjXIhChpWCkaHxjVQLTESFgPHVaCDQRbd3y9exOOlHs56v5QEoF1Gk4AmAU0CV6QEvBabbweFR+cGiVy3C9h1PAvLNh7CpoNZOGHzINfFDdwEvdsE6O0INriQGKxDsyrhuLZJRVQrFwij3g0dzPAoRtmPPXovQNARIPC3Amr5fy8sDSCU0jPwMggOnDqdhvjoaFgtzGJQAQI/dQNuMzx6D3JcNqzdcxJf/n4Y21NMyDEHwaU3wabTIU/ngU6vEE7A7AGsSj4CnZloEGnFre1r4Zq60QgwOQGd+fxAoAwh1FISv3YZTQKaBDQJFEsCHu7NQunS6FKg6J3IdRmwZvsZzPxjH7anuGHXhcKtN1HNw6wYofPokWoik6BHkKJDlCsVjWId6NexEprWjIXVZISOAMEjFh3AfZ0+ZBqMYsSVjZcGEErxOeQ5XUhJzUR0RAQCzPRNqQCBqFMRxsnmUvDHlsP4fMle7EwPgdsYLLEGbo8Rblmcbu9ahQkO6ODQeWD1eBDqyEOdkHwM7lgZrRskINBshE4nTjFvSWcOrnkYSvFpa5fSJKBJ4GqQgAKX7J96xSAxBtnOfCzbdgyzfzuAZFswHMYwOGGGm/u53g6jx7uvZ+k9yNWZ4fJYEKk4Ee1IQ5UAO27rWg9t64ch1KiHTtHDo1eL4jjpaABgLDNi0wBCKT0Kb6EkBXk2B6wWC6xGPxeDWy+MgF1nx9Yj6fj4u13YmhKADGMgHAZF0KhZsUAPB6BzAjBB8QTC6rHBrVfghAlGtwch7gxUDs3B0B4N0bpmHExksKDIktMJQCh7Pq5SEr92GU0CmgQ0CRRLAgoUeDwK9B4DHG5g7e4T+Oi3rdiWHginKRAumOCBBU6dGy69EwaPHgbFhFBFgVOnIMeggHEGgYoCq8OJmpFujOxeFc2rRcNKI05nhEeizWnyaQChWA/pajiJQYostRwbFY3gQOPfDIJChsCDkzYH3v9hAxZtcyLPGId8gxNY2m5vAAAgAElEQVS5ehfcsCLAbYRVn4uIYA8sRivSMvQwup1w65xw6fTweAywkgpzpqNNtUA82qMu4qMDodd5YABBhgoQ1IDIq0Gi2j1oEtAkoEng8kqA8QaKxwWP3o0TmR58/MNOLNhtw0lziIACEw046GE1KogPsyLYbEZengdZGU7Y3E649C44dG64dR64FAWhSi561QzDvT3rIj6YxhsBAoEBYxP4oiujbLw0BqGUnoN0c3S7kZ6ejfCwEFiNTFH0BqfQDeBwK1i2Mw0T523FCUTBpbeATgU3XDDAgAgYULeSFW0bR8Pt0WPu73txJM8Kp56+Kyf0OgMMig4ejxOxxkw80akCrm1aBWYjP/d4U23o7+L1yo6Lq8SkT+rP60pRAzFLbGihFdXOm/6//9sVCp/H4ws6eP7byRfx+aXMqaTnU1r3fBHi+cehFyOvwief69zijneudcX3LmadFPfalyK/q/Xc82abS3q5Ew69A8t2puPd+YdwyBaJFIseVrcHkYoOoXo7OjaJQ91KoQhhcBh0mLcjBWt3pcHtNMMju7kH+XonzG47ksw2PNq3NlrXDIORgYriVvDmSPgV4f+fi1oDCKX4CJjFkJ1rQ1CAFRYDAYI3RoALIz3PhQ9/2YvPN6QjPyBcYhK4ZBiUGOLxoGlsJNo2DEX1SEDR6/DKDwdxNIe41beoPHRZ6KROgsWTi34NgjGqa3WEWrnkTEJcyZHMyy3Fey6VSzEFyXch2TC9O2yJKWN105ZL+ADIvylWnsM01cLHqX//2/nnUkwF11fv7+/EWK9S8b1/PpmfdR9+93IxCunfxv4bqElejtz/WfPyPauLvf9LXUf+itfD5yIW28W91HuT56o2YfUFlBXnfvyfh//vIrMiBKqddU9+IPbi7ko7WpUAQ7/V75H6fMWEU5g27kae4sHEH7dj/pYc6DwhcOgMcOv0CCRAMDjQqHYY7Hn5QHYuOjYvD7fZhNkLj+JQLuMTIEyDDkyPzEewKxe3NI/F3d2rI4hZDMIicF1x/9JiEP6Tq9LmdOH4iRTERkUiOMjCwFXvng8Fh8/k4dUvNuCvU2Y4LCEwelyi/B2yAA0oHxSIiMAMtKsShupVojDxp2NIzuEG7B1ECimRnOLm4rGjXXkPnutTC/ERFnh0jKr1Hsc6CRe/NZb9x8XNUt0wCzZbKVJStM32QneoKnuCDonnEMTvfZ1vI1fnw38ZZOrVx76zfOOInVEERaDOTR1T3bwk2rmQYrjQeKpi41pxOZ0wGI0yt6IqpH+TkXqP3qzdv1kXPoOCyGw/MHcx936pK5D3zjk5XS65Z5PJdNFDFihkX40Sh9MJs8kkYKM491J4vaqAUn0m55vguViaC63Fi77R/+oJPmPNn2H1vsXvmRtnsh14aOYarE0LRAAsYqjZoEegxwyzxw2XyQanW48QuNG7TSKqRAdizsJj2JHHzAQHrIoRRkaF6ewwOuxoFa/gubuaISaAIIRBad4CSzqdBhD+k0vQ4fYgOzsXAVYrrBbGIHjFwPiD7UezMP7z9dhui0C+wQKLx8VMWQkxNClmKIoJFmsm+jSIRbNq4Zjy41EcznNDUVGGbxyqIvrL6oTnYcKA+qgaHwxFp4dBUmi8SbZXoYdBrHW+cnNzcezYMaSmpiIiIgKVKlVCUFBQsdcbN+NTp07JeNWrVy9Q9kaj90t8IYCQkZGB9LQ0lCtfHjze5XLh+PHjiImJ8c5JVaL/AhJUhaAqlDMpKTh58qTcc2hYGGJjYxEQEFAwl/PNSZVRVnY2li5ZgpYtWyIuLk7uQwUxxRWUt9Kn9xns27cPgYGBSEhIEICmN/ztU6UMpLqcDzQVRbGWBI3OMWw2GxYtXIRy5RLRqHHji75nt9sN/vBZ8tmuWrUK9evXR2K5cjAUg5GgLPjiualpabJuk5KSYLVazzs3fxaD51OOcu0SAMLFffZXxXkkcxWCWoDlaOS7Le95f/F43DhwIhujZ2zAblccAnV6uI1uZOkMCHRbEe52I9Saj2px4UiKsaJprUCs23kKv2zJw1GPEQ6dDaGKCSaPCXYGmrscqBuQgVeHt0TVqADoFAN0epcvjlwDCFfEmpINmZu4Xi+bsbrBFnfybim2IXW4vKmvvoHcCrDlaAZe/nIL9jpjkKczw+JxwCyVFhk9a0Y+AuE0Z+H2BnFoWS0Y7/14AIdyiUb91L1vfIY11gy1YWK/ukgqFyJXZKCit1CS4aoDCOpzOnnqFOZ+8QWSjx1DWFgYQkJC0KdPH5QrVw4OuwOKR4HZbJYNni+HwyFKm39zk5Xn7PamkaqKjMfv3r0be/fuxXXXXYcdO3bIec2bN4fFYpHjaUnyZTGbRRmK0aEo+OuvvzB79my89NJLosRPnz6NV195BXcOGSKKxZafLwqUVijnYHc4ChQQLVx1zVEpGQwGOYYKdd68eVi4cCGqVq2KrKws1KlTBz169BClzLnxPCoZ3hPnwvecTieMBgNMZrOAi7feehvDht2NWrVqwW63F1yX96u+VAXG8TgfzoNjcS48jsqJ4/I93jevx2OXLVuG8PBwNGnSROToVhSYfff3xx9/oFrVqqharZqcTyaDVr36XFwuN/R6nVyL1+F4HJ/3Tnmrq52AhPPm5+q5PId/iyJXFHkevGe+R9lSVm+//bbMq1+/fjI+1456DxSW1WqRdeByu2A0eNeJqogPHTqELVu2oEOHDsjOzsFHH32Ivn37ombNmnLvFqvVe7yfTJixxLmqz5JjUZZ8juvWrZN7aNmiJY4mH8XGjRvRqVMnkR3npIIRzpN/uwhO9HqYLRYBwosWLULlypVRp3YdGE3Gv8/xPWf1efFa8rwMf3/3iwLMirvPXannEQx4qyX6atmT/fOQLeR/Luw/koWRMzbgEMojUAc4jE6k64FglxmxHhfKh3nQvn4iakbrERnkwJ+7cvDzVhsOuY2we3IR4rHArJiQr3PBozhRw3gGE+5tiaSYIOgV7j9uub7mYrhCVpBqsbldLuTm5cmXWTYLyRpQSeai34yvUFZBReWCzU4H7D9pwzs/78cuZyzyDFaYmbzoYYKNC0aPEfkIgGLOxuCGBAghePfH/TiUYzwbIPimoihO1I9w4NV+dVE5PsgXd6B4kTD8ekAUfepl+kjVBfD1119j+fLluPPOO1GxYkXZhIOCg3Hk8GHZTCn4unXrieWcn5+PJUuWCDsQHR2N2JgYUVqbNm6UjZjvU+F26dJFFMvhw4dRvnx5fPTRR2I99uzZE23atMHePXuwafNmUXatWrVG3bp1ZDPm5rxwwQJMnjIFH3/8sVjTtBAfffRR3HfffQgJCcaqVauFSeB8CCD+WL4cx0+cRHx8HNq1a4czZ84gOTlZ2IvatWqhdp06oig/++wzHDlyBLfddht27twp9zxs2DDk5eXhrz//FIXasFEjATFUJEuWLsGx5OOIjY1B+/btZe2+/vrruOeeexAfF4eFixYhMzMTNWrUQOs2bWAyepXNir/+8q77/Hy0at0a+/fvl+uRrejQvj0iIiOxevVqbN+2HZFRkQgNDRWZ7Ni+HSEhoYiKjsSyZctlPjVr1ECezYaPPvwINZKS0LtPb3lGK1etEllzbi1btpJr8HjOOympOvbs2SuAplLFimjX7hoEBweJ8t+1exdW/LVCvpPVqlUTpc1ntGfPHnlelF2zZs3QpHFjHDh4ECtWrJBnQoDSs2cPDBgwUAACz1+7dg127Ngpv7dq1UoYhs1btqB502YwmkxYu3YtEhMTsXTpUvzy6y/o2qUrGjZsKECNAIsvs9mETp06i3JfuWIlDhw4IGCDCp8yVIEl10Cd2rVlrU2dOlWeLdcSmYOjR4/immuvRV5ursyTgLJRo0aoUKGCsBVpaWmIjIyU9XLwwAFZWwQn/fv3F/lQlidPnkBsTKw8L463ccMGWWOtW7dGpSpVCpgODSD8c0ujAUeDUK+GhukA2bPFbavgyIksjJqxFvudcQjQGeHUu5Gvd8HqNiKAIMJoh9USgHCTgpbVLGiWVA7zlp3G6hP5cOhdsCgmGCVZ3QGjy4k6Ael4+Z7WqBJllXoIYCyCAAQti6FMK5yCyfl8llQI3HS4wRQHGKjjFQTSFeL4+WdKpoKPFidjc3YYbOYQSYE0spynToHJrYdbMcNsycDNDRPQvHo4Jv94GEdyz10s0eO2o305PZ67mTEIZii0jiW4ji4L5kRcXS8+EyrHl19+WSjze4YPFyuL8k45dQrvvf++KPuY2Fhs27oNt98+GCdOnMCvv/6K1m1aY9/efbJR33zzzXhtwmu4pu01SCyXiN9++03ABhXJmjVrcNNNN+GDDz6QdUDLMTg4GHPnzkXt2rUFcHBDv/eee8SlQGaBivedd94RUKEChEcefQSDbxss7ALfq1+vHqpUrYpdO3di2fLlaNy4MVatXInrb7hB1tzvCxagdatWaNumDWrVrn0WQBg0cCDWb9ggCuyWW24RIEJFQbcD53v//feDVi+VY4vmzbFj505RRB3aX4s3hUEYhkMHD2LR4sUCHKgYGzZsJAAhL8+GMY+Nkfu6/vrrxVXz008/oUGDBti7dw+CgoIFDPD+mzdrhjNpqdiwYQOeeeZZ/PzTT+JG4Wa7dt06dO7cGXGxsUjPyMD7778vivvGG2/E0aNHsGnTZlFyK1eulPc5b7oCOB8yBt9//z169+6NRMqqQQN5jgQIZHX279snSnPD+vV4+OGHsWrNaixetBidOt2AI0eOCughU0C5lEtMFFfAV199hQEDBmDQoEHyXHl/tNzT09MFXHC8jh074pNPPsHjjz+OgMAAAVO9buol11y8ZDEGDhgolvunn36KCuUroEqVylj+xx/o2rWrrL/58+fLc9y6dauAAYvVgtmzPxM269TJk9iydSseeughuQavz7VEhmHx4sUYNWqUsEMEYgQrVapUQXRUlMyNLAiBQ4sWLRAZEYnJUyaLzLguCQbWrluLBvUbiAz5nLZt2yYsEwEU3WMEuLxnr4F8NToai7+vSS1b/s/mQM6JM3Da8hGaEANzWBDcDChXFKRmO/DYrNVYdSYQgboACTd0GhRYFD0seg+yDU5kukwI8hjQOF7BPTdUwK8rUrBoXx5sBiMMije1XYENFns+WiV68OzQ5ogJZJllVlRkvwc6lcvODq1lMVxgTbErV2ZGpmwa3JTkiyWBAzroi8EgeB0MajbB3xfWexTk2g34atVp/HzAjTxrpKBYs06BHcxm0KFicCDqVDSjZeVQVI614peNadhy3IGjKTlweHRwe3RwSdENN6xKDgY2CMO9N9ZAmNVbqYvRs8xguFoZhJycHLw4frxYW/fce28BHb9p0ybMmjkTDzz4oLgc3n33XdkoCQhoCd9xxx1Ys2a1bMpdu3XDW2++hSfGPoHq1avhrbffRuNGjREWHiZKeOSIEfjyyy+Fph88eDB+//13bN68Gffee68otalTp6FP715o2aqVbPhkLUhpT58+XSxQWo+PPPIIhg4dKsqDVvI111wjG/i0aVPF9UQWYuWqleKC4GZOS3jIkCFiBaqb+8yZM/HDDz+IEuCLSoL3Mm3aNAFJZCNeeOEFcT2QgeBx3bp1E+WiMizvvfsuhg0fjoz0dHw9b55Y782bNxMgQLo8JzcPY8Y8Ksroln798NOPP2LhAsqoqygjxlJQsRNoPfLww9h/4AA4L8rixx9/FEVJRoFyvfbaa9G0aVOZ46TJk9Gje3eZE+dLYEdlSvmSyTl86DCaNmuKvn36YPeePfjwww9FUfIeyXCQnicgpCx37tiJtPS0AsW6a9dOJCcfE5C2d98+/EgZNWyIGTNmiJKn9f3ahAlo2qSJgASVut+7Z69Q/LwnPk8qerI0Tz75pMz51VdflXVCy37hwkV4fOzjMm/On0qf7MinM2ciOiYatjwb1q9fL8wB2RCCSN4XmZannnoKR48cxduT3sLzz4+T9cMXx+Y53377rQDSWbNmCUC64YYbhJkiUNyxY7u4NfgMCUj52ZtvvCFzbdGyBd588y1hfVq2aIF169fL9yD1zBlhQMge1KtXT9xu/xYAWXwVWwbPPCfJ681VcKsAidlfNARz7Ug9dBp71mzG3j/XISI0FFUb1UZCraqIrFwOprAA5BuNmPzzDny2OQP5+lAEKUZ4qM4VN6qEG9CybgzyM23Q2Z2oUTkYgWF6fL3kMLanWggJRHcYYWduGkJd+RjQPAZDuichSCgLxpG4fQyCFoNQBlfTP6eU77CLVUiKkIibm0WgLxjMLzbwku+F9JXLo8fqAzZM/W0/kt3h8OjNsMLJ2olSL6FetBVtakYj3MJCSR5k2hRsPebApoOpyHab4NQxyoDo04EYUxYe61wJ1zaqhECJX/LGMnh03joIvsSzS553WRrA6XDggw8/xOFDh/DgQw8hKipKpkcr6vPPPxdrmgrr/ffeQ3xioihGPtPbb79dlBMVZ7duXfH225Pw3LPPCgX8xhtvoH6D+ggPCxerjK4BWqDcZHkeGQYqelL1VBgEH717eQECYxBI+T777LOiSAgCdu3aJfEITzzxhCgrXpdWPRUMFQhdE3QtcF60/Dg2lQOVhn9sAOMaaM2SNaDyIa1NxTZp0iQZn8r5+eefF0VCpUeamq4SKhfGB9w1dKjQ23cPGyaMA618Wv8EOZQTgzsJXsaMGSOKikqQyov3y1gHxjdQ2SQnHxVq/sEHHxRKnXIeOXIkfvj+e7HWGbNBn/369RuEbqc1/8H776NLl66oV7+ezIHuixYtW8qz4nW/nf8tWrdqLVYxKf9tW7eKZZyWlo47br8dlSpXRnZ2NmbPmo3MrEzEx8fLPT0w+gHs2bdX3BXDhw/Hvn178d3878TlM3PmLEyYMEFcIq+9+qqAHtLyBAgEGmQCyHhQwfIZde/eXZT02LFj5V5fe+013H33XcjPt+O3X38TZoWyeu+99zBgQH8kJdUQNoBAMjcnV+6Xa4nj041C2fBZ87kfSz6Gia9PEICw4PffxZ1FAMh4BDIPtw8ejFmzZwtrQyaDYIhAc/26dahTty7+/PNPeZ5du3bBxImv48bOnWW9vf7G63A7XWjTtq2sz+rVqkksBYEH3RsEWZ07d4LZbPnvsAd+AMGbWcP/0VCSzjdMTIAzx460I8exb+127F+xC6d3H4UnMxdJNasirnwczCEBCK0Ug/C65RFapQI2JNvxyqJ9WOMKQLzbAoNigFPnRDmrA+2TIlElMghGkweZTic2HszCzuQcpCtWOHQWeZYBrLuo5KNigB0P962J1kmRKMinkSq5WiXFsqRXLjiXXFuebDik9kxGk1B99B17wwxLsN6Qxy0tnE/bdPj4p934eVs6so0RsOmsslysHhcC9S6EmnllBQ6dDm4yGQ47slwKMqTNswHBihsB9ny0TwrHg72qIiHCCqOiCMAge0D4IAGSV8wTKPpE+eXbvm2buBO42dPa5AZNy52KjYCBP1SEAwcOFCVDpVetenUcS06G3Z4vSmPSpMmi1EntvvXWW2LJUwGvWU2AMEqsY8Yc0HIjBc5NndYwAQIta4IFKgXS67Sunx83TtwV9evVx9q162Aw6EWBUXGT9aByJrUfEhwiCpyMAselK4DsB91bZBxUgEDwQOWVkpKCESNGCGjltRiYSXBQs2YNhIWFY+myZRhx770+P/RGNG/RXBRFhYoVcGPnLnhx/Avo3PlG1KhZQ46hK4JgisCCoIP389hjjwlgoeuFipNMCC15ypHH0BUx57PPEBUTI8eTBh83bpy4Ishi1K1bVwA2Azz5L+dLRiA0JERcKIzf2LhpE1q0YMCnVeRMv36b1q3FL3/0WDJo3aecOSOxIZQDWRGyP2Rm6G4gG0QF+sADD0j2xKlTpzF8+DDx0X87f74oxenTZ4hLgMdyfAKVAf37S9DewYMHMfWdd+Q55+TmCvDi53QLUalSvnzGTz75BAwGo7zfuVMnVKxUSd6/ddAgVE9KwqeffILIqCh51t/M+0Ysebp6KlWqiL1794mipsuCsiZYGT9+vIBSAoPu3buBwZm8D8qIzMKRw0fE/UWwt337duzbu1eYALqtGGRJAEVWhAwFYyp27dotY7Vq2RKBQUECnOhiybMxLuUvAYv9brlFXG+XmrFS9G/l//ZIL1vrfamVUsgfiHFncyP94HHs+GMTdvyxHmcOn4Ij1wWj0wOLAtSsVRWxiTE0q6AwbjfcjJDEGAQl1sSc/RmYk2qHUR8Ol8eMTL0Cq86OCJ0L0SYDnAYdMtwKLDY9nFCQZVCkRqLBY0Sgx4oAZxa61w3AiJ41ERfAFFlJnvYyCKJZys4OrbkYLrCGc/Jywch4AgRu2vExsQgKCiyoflhyy5/hs4ATBmw/ko335m/FulQDjhqjYdErCFZsMAjq9cCl08FJgMA1q7hghxGpBgtMihOxzgzUCXZhVK+maJkUBAvZA2kCxWXO7uWsgVCWQmBKToJqNDqVDi13uoWoxK7r0EEYIFqZtBCpzBnAxRiBLZu3ICXlNA4dPiwKjKyA6vulhUwwER0dJcqLyp4b84njx0WRB4eEoHXrVti3b78cZzAa0KZ1G9SrW1doXSpyxipQaTEYMjU1DXFxsUI901L+a8Vf2L9vv7AaBAVUusuXLcOhw4cQGBgkipnn00fNOavuBd4nFT3fZ6Ac3+eWQhcYaegVK1aKddusaVM0bdZMmAAG1zGALyEhHu3bd5Br8R44z5joaPH/81q0TAkAGAhJWTFOggqKYIXjr129Glu2bZV7a9qkqSgdKlgGJWZmZYkiI+vAoEIqVs6RSotzpOx4HwQ9ZEYa1KuPipUrYfWqVTh85Ii4fzhnggEqNwI8xkdw7mTyaiTVkJiHoMBAyXrgOIzViI2Lg9ViRcuWLZCWni5AhXJhTAFZhNq16whLwCA/sgEEFXSNcO5UlJQVrXIGfRJYBgcFoV79+sLIEDAlxMfDGhAgAZ9083AdpZxOQbNmTYXdqVGzpsiTx/KeGX+ycsUKAUuUY9u2bcUtwvVF5U05cb1Q2ZPFIpBj2jPncyY1VVwxBK+cE0EgWYPEhHgJfCSg4dohu0T5bNy4Qa7LuAMCFt4jgR5l2ahxIyQfTcaRI4eFAbtWYkzK/WdcDAQE3rwtXwtlSVHwwJXvQnpyCnYuW4/dSzcgfe9JKDlU32y7zKhElk72oGataoiJj5JsM3bYVegGgAu6wHAcq1wNs7Ic2JVrQZAuAHY9kKv3wOL2IBh09eqliJJRMUoMWa7eDYPHjUC6Mxwu1I7U45Ge1dCkahjM5Ij1JqlPI0lm4scuuX3xUkfSAMIFJEjFcvL0KYmqpt+ZgVbBgV6AULLP0Fvkh4s5z+HBH9tOY9byg9iSYYRTZ5ZSnFx0KhY2snGIjw+wwwqHYkWIJw91InJxa/tEtKsXizCzmq3gK5Dka9vkw6qXum7K5PlqISE1fVFNx6NCo7JiXACBHt8nM0QwQAW6ceMmiTmgVUZLnZ9LB023u6CIEM9V0+I4PseUVEQqcbtd/pbUQl/qnBoEJil2drsoXB4vqXoEeQ5HQfoerTp5T02P0xtgMZsKigv5+40Lijb58uel2JJsKjpvOh/v0+ORhmBq/QF1XCos3h+vpaYw8nfeD1+cm/+11FRP9Z78x2cKIWVHBUWlR4udlDb96ZLH7ysmxXtXx+Y4lKmkljItkul7LhccdrvMlXPj3BkDwXmospPnxpRFH/CiDDgOx+YY6o/6/NX0SPWZ8fpyjzpdwdhyT2JaemQ+/FGfuxqboKZXcj4sKqU+Ix6rMjqcJ++VAEotOMXPud54Hp+t9zIeAQzq3FXAx2fDOfDe+Jn/+5Lq6UvBVdecmuoq8vGl2HJdyZwdDjFm1HRWns/x+RmfyX8lMNG7l/pYA49ODHNnrg1njpzAgQ07sWvFFpzafhhKul2sevY+YNEjVkukO5bJwdVrVUFCXAxMjN9SPFJvhkpeZzHA3L4ptscnYM6y/UjPMCDXEoRUI4G6HsEKKyZC4sEUxoZJIycDzIodwUom4kPcuKNzHXSsHYFQlsFnZhn3dg0glEmdcmEXgwoQfBXTSJsGB3qL7pQsQFApMHYNAzLzgfX70/HTqoNYdyAHebpgeEyBcMIolRJZRMngccEBl2yUAYoLTSuGomfrBLSsFYpgswKDVOMqKAjr2wxZVfDKew4XO+PCmSbcGP3f4+8M/qMVykJG4RERYj3TmlZL8F5oM1XH8i+3e6FiPhfKfClcHtn/2OJs6Oe6d1VBqeMVnmvB/RSlYJMPjPAcWrqUIdkVWt60dtX0Un8a+0Ky4YI/Z0VJX0nrwnMr6lwvds0U5fgL3offAOpxpTVX//XIL/j51kBR7vFqOEa4A6lho4c7343T+5Kxa8Um7FmxGRmHzsCVlQ/YfX1wWHNDT/YAMLgUL1ugU1AtqRLKxzOdkT1u+J7XKNSbPYi6oSE8DWph/vyN+GNzKk4GR+N0WCjsxkCYCQbgkR46BAUGlml2KYjQ5aNZ5UB0a1MJDauHI9QIGHxtYwhOpAougyMuh3K5hIeqMQhFYRAuM0Dg4lCdADq4oHj0sHuMOJPpxsJ1x/HbxmQcyMhHhiEQdpglZdHicUvAS+UwBZ0aRuHGZlVQPpwVGL0gwEOfhN9L/G6qufkfAAln3bxfAyexwKV5lXcjVTfTwn7ZIgGEgkhon6ezCOjrLABQqJ6/z9T8uyxxMb7Yopz8fK+FAcgFh/QrBf2vx1F+vswedVl508i9JZYLl5f+N7DzD+VbAk23iqrQz3uvlzKHSzm3GM+9KM+rpIctq+OxNTN/dB4DTu0/hm8mz0byit0IzDPQxIKb6YQGWvcEBDzOeycetwIH3Mh32hEUYkW52GgkhkciIjAIRksAYLRAZ3YioUNt2CJDMOulmUjLtiAzoRzS4hKQYg2FwxQMu8EAh17r2e0AACAASURBVA4I9CgwwYYKYQq6NC6Prk0qo3I4++K4vN9xlleme5BIgdlqUsKxbDXT0wBCGQAIsjhlHmzW4Q1UYftmbvXZDg+OpeXj8Kks7D56GqfScwVAxESGo2a5CFSOD0b5aDOCzfC2+GDBDS4yvzgXURJqtM5/DRzIvf+zw+OFLG0B8UVQ9gVL5xyKVQUfKu3sD0b8lXYBu1EIxJxl7Xsn9I+VepYC9L9H/34Hhc4tDFBkUL+xBUAJXe7Ld/ErIezf5KgwK6OCEhWg/Nt8/c8/3zkF9+cDHSoAUQWhjiEy5rz9JMR6A9k5ORKcSKaDc2cWgz8QFL8zlYn/86b7wgd81BgFskyMdVD7N5yLgSm8Xi5q/VxOTVtU0Hc551DqYxP4czXocWzTQXz94sfI3psCvdsFj0cvbICkhJMZ8LjgMihw6hUYTHpYggMQGh2OwEAr8jOy4czMkzTzMEsQwqKiEJEQhqROTaAEWvHV89Nhy3IjqkIFhFUpj+yYcJhrV0W22euWCA8KQFx0MColBCM+0oJQkw4mRpJxwfF7Jc2bfMWYfC7jkuemL034GkAoIwDhfNOQMq0Mj3F7cDIlHakZWbKUoiIikBAVBLPB24zIW/Drv6j9L+0LcLnOVhWxv0L2Vyz+CtLfVeE/n3OBmPMqJx8zoq4FlWpWjy+skHkdNU5APUfyw91uSctj+WemFApLoNLW51hn53MB+LsOChS5P2PiU/pc3+qqLcCwfjT5WaSXH+ujrvXzASz2XNi5a6fUq9i8aZOUw1aLL/mDL5VVk43axygdOHgA+bZ8CRxk0B+DIbv36CEBgiqAKhwX4sWhf7MnpeVeuFzr90of17tr6nB840F8O246MveehmJ0wO1S4HArsBMQmI0IDg9CaLloRFRNQFzVBCRULIfouBgpm52TmY3UE6dw/FAy8k9kIDQoGBWqVUBi4+rIOJ2BuU99CHu2HVXj4lG1WjkYasejSp9roIsKhsmjg5l1D4x6iSGTMAOVxpVFXXYyFS70rDWAUMYBAruFcLFz8zqTmo7UzEyp183NKiY8EiamOF5kD/kr/ct/RczfZ4kzgI8Ba4yu50/5cuUk/Y3R80ePHBFrgqlxVNZUYkz1Y3Q8A91o8eZkZ0uAXVR0tBzDwDxaxDyOypxpkGHh4RIRzyZOfD8uPl4+Y5Ek/strMsKelQzJDuTbbHIOo+Q5HqsUMg6DipPZH3PmzJHjWQExNjZOrseaB8wAYCS82vyKY/N4Bjcy3Y73ydQ61nhIS03F6ZQUqZeQEJ8g0IDpiXIfbE6UmioZHGrPAVtenmSGMAKfgMSWm4sTJ09IcSBmUjAjhWmhLpcTGRmZMlfGO3AsyoBzUcdkFgSrZLJC4v333Ye0jHS4XW7pAcH+F8yy4Pkcl8+BGQYch3IiezBr1kxv3YU7bpfgvpMnT0kVSwYdnjhxXK5HubA8N4MsKR8+I77PjAZeX0CIr4/LFbFer7JJngUQnp+OvANnEBofLN8rpwmIrVcV5etVRoXqlRBRPg4BkSEwWr3BngJYaeBLsyYFTvb4cCjeLqBGAyvY4dD6vZjz+LtwZtqQFBeLpGqJMNeNR81+HWGMDYNJ0UnwIcfwdoAtJOArxJbTAEKZBwjSgUkWakp6GtIz06XpUERkBGIio2GQ4kfnptGvsu/8FXU7BG1UWqybwDRHpssxnZK1+2/u2xcLFi7AwYOHJLKdNReo7DZt3oS+ffrKOVRad911l6TVUamzdgMpbqY4LliwQCoBUhlTmbMPAdMBmQJIq5+lmVk+mSmT7FBHxcjCO199/bUoWWY4UFEz9ZEKuU3bNmjerLm378CaNVIgii/WemDa488//yxKkJsrUxV79eolIIGAgJUluXGymBJTGlkFsm2btlLdkMqflQVv6HSD3B9rBYwYOVKABktWs7oj00BZY4GAhHNkOiQV8ZZt27Bs6VJR+hyHNSqYxsey2KxYyDoSTCFk0SPWhSBIIQCz2fIxcGB/HD2SjK3btuCee+7FsmVL5X0WbmIdBKY0cj43XH+9VGtkNguvw/RB1j5gfQH+zUJUrHFAmbBYFefJWgVqpgHlwHv/4osvpO4D58Tn/tiYMUhITCxg9v4TkcFl6dspW6aX+Tq28SDmPz8djkPpqNGoKgJDrAitHIe6t3SEJS4YOhN7IOjEM+t1OUmnNV92gdq8iS4spi56iyCz8m3ymt34/LH34cjKR/X4OCRVTYCldixq9+8Ic0wodAw49FXdlbo5/6DJypLAzj8XDSCUeYDg5WW58aSkpouVQoAQGRmO6KizfapXxpL7b8xSpaJZpY9KnSWIqYjYW6BP795SpKlHz56iZJkJQAXIKo1Ukt999528z34BBBd8j7USaJUyh/6LuXMx+v77RYmxmBMV+epVq6V6H/PyuUZYiIdj8kXFyvTDb775RsoaU6myVDOVPsemYiTzQIYiIzMT//d//yc1AW66qSeWLV0u9RXuuPNOqXnA81gMSmojuN1YvGiRzIclpH//7TdhJjh3fsYeCrTiWeSobbt20oeBJaCZ8TDuhRek7gTrDWRlZuK2wYNFyRJ48D55b1TkBEHz53+La665VuTETXzkqJFSJ4AyZIEkgiQWc2K1Sv5O0EPWYtu2rSL3+d99J+MQ3PAcFiMiQCCoYLrr6VOnsX7DeqxdsxZPP/0U5n75pTAr7Iuwf/8+zPn8c4waOUqAEq/BegyUJYEbi0GxYBL7WvC+X584EU8/84zUYuBLjUH5b6z6MnKXfgAheeNBfPfcdDgPpaNO46riUgivXR61B10PT5hZwICS74Yjzw57vhP2fDuc9nyYTAYEBFhhMBlhMhthNJrhDLJCbwBMigfHVu/C3MfeR262C9USEpBUJR7W2rGo1f86WGJD4GGwOGsnCDLwogO/wo4lngV3uSSvAYQyDhAkvtUHEFhsJyM9Q6qCsVlLdFSEtMbVXmVTAgQJM2ZMF4qayoaFhFiN8LoO12H+9/PRuVNnL21pMhXU/1dz6KkoeT4tfio5Kk++qHBZ0nj06NGiRCe9PQmjR98vHQtZgIj0PisGsuwyWQda61RSqlKj24AdDnfu2iXgg0qfDARr+1Nh5tvz8eknnwr93uumm/DZnDlCww8ZOhTJR49KJUSOS6DB1/Fjx/DiSy/J3ywi1at3b6lcyeBAsgqsosgW3CwHzHLEBC68N1ZcJEDgnEOCg3H7HXcUWOYEF2ROWH2Qyp7NptjcicWH6JYgKCBQYglkNj364YcfpRQyq2J+8fnnovSpyFVgRgVOlwGrGrK40FNPPS2uD8qPlSBZO4CuErIZEydOxLfffgOHwynX2bx5k/RZuGfYcPz400/ocmMXNGnaREAB58MmWGRrOA/K6ZlnnsbDDz8iTIgGEP5H30sfQGD12GObDmD+szOgHMxAnUZVEBwRhLA65VDrthvgDjVDl+/GvpVbsW3JBuSn5sKWmQ0lz4byFRMRl8BYBDMMgRYExIYhtnUDWGOCvQzC6p2YM/Z92LKdqB4Xj+pVEmCtHYdaAzrCFBN2tlvBt0V720Z76/CWdCWdyyVpDSCUcYAgqTjSZcGD1DOp0jzKo+gQGRkhpZ/Zevpcr+LABn+EW3jM4ox3uRbt/3rc88mpsIxoYX4y4xOcOnUSI0eNws6dO6TsL6lpliMeOnQIKlasJCAhIjwCP/z4g9DlfXv3QURUpDQZ6nLjjbjjjjthYuEkQHobsGXy0CFDkJJ6BjM/nYnnnntWXAZUjAQPSTWSRGmSZaBLg0WIWFRn+sfT0aVrFzRq2FCKG9Hvz3K/BB2PjhkjbYJpBU+fMV0of3YwXP7HcrHc6e6gAqX7gz0pqv4/e98BZkV1vv/O3Lm9bd+lSe9NUMReABOxd401iamW5K+mGDUaNSaxJRqNmvw0ajRq7AWwggUVFcUCSJPel+31tpn5P+83dy6XpVi4wKJn8hju7t45c853zpzvPV95v759BLnS/P/ss8/hySefkJoK5513nlhCGEdx8kknCQkVlSxBCAth/b9LLhaAcMvf/oqf/uSn+PTTTxCLxsSE72YY0FVw1113C4sli1f9+957hKeCCp8ne9aLYBlpVlbkGNnf448/QawaLBhFem26IVjf4mc//ZnEI4gFYfhwqT5JcNW9Rw8ZD+tkEICtW7tO5E/g8tyzzwqjI+tKLFu2FI888qjEMhAgsJjVQQceKO4auhqGDBqEl159FZcQICQSQlVNwOYABCeAeGsuht35nfqy78AOe1fzsrK4PzpMAsJU4FhcpfaMhlUfL8GzV90Hc0kDho/ojXBpGLEh3TDwzAmwY36gOYO3H5iMV+55HrDIfggEAAwY2AcVFaXQDZtsM/BVxjDotMMR61MpZEor3v8MD11+F5INCQyorEC/Xl3hG1aFQaeOh7e8CAYtCPl2AqmkuxEgkNN2d7gUQOjkAMFFnQxSJECob6KLwUZJkRODsCVe9c0NWnmD3AYKcHk6vhI42BaqkCPUV38NCrr57KL+0ffPVKtXX34VtfW1OObYY7Fi+XKpBnjU0UeJv540zfFYTCrvsZgSyxfTvM2TN+MJaC7niZ9+cZf0iqdeAgSmSUUjYbS0tEoMASsH0mVAxs/Dxo8Tpc9shEgkLMpwn73H4O03p0tMAZXc9DenC78/T84kOGKcAK0NmXQGb775hpjwSUk8fM+ReHXaa2hpbZYI8CFDh0gtgnAw5Ji2AKxYtkwqaZ548sn47sTv4vOFizB58hQJKEyn0kIbTaBCsJTIpFBWWYHVa1bjlJNPwbJly8WUyxLNLvcn+/DqKy8LFTZLdG+orpZ+06rAU/t+++8vbomDDj4Y3Xv1wHXX/wl9evXKsQUed/xxTmGlF17AhHHjsXbdOjndM2ZhygtTsHb1GgnMJA3zW9PfgsejwfD5pFrjD887T55Bd8LAQYPRq3dPfPrJJzj11NNkfgioWJOBlrvDv3M4PLpTCvyE408Q8PLQgw/i2OOPk/LKsvx1XYoDFQrEf/W36Qvu+KL3Yyu3b3VMhT5lbK09ZilaNkyJAEzDIMshWF3RyKMSIEBYiqeu+TcySxowcmQfhIvCKBncDf3OmgDEfEi3mnjvvhfw2v9Ngp4mIT3Aith9B/RC18oyeJl4rpnwVcVE+Yf7lYsNYOX78/HIZXch2ZhAr65VGNK9C3zDKtHve+MQLI0LOMllFG2y/bqVfAo+kzukQQUQOjlAcLvH6Oqa2prNAIJnixYEhxp0a5vSVnX2Nl5uaxub3Nbak3ifr7hsBVdv5SZp7ysCjo0ewE078nX6xha+bP8ks8QGmluaxR8vEfupNFpaWwQUMGOBio8ncGY1kMUxnUmjqalZ/s6Lp95YJIpAMJCTCdtdX71eCgtFozHoHl2sC6w9QP8p019pjaCJvKZmg0TX89kElK3trQgEgvD5vaivaxATO60LVVWVCAVDTilzG6JMyTTJyn/FxUXi5mDGA+mOqbDFbcGUSNtCU2MTPp09G9OmTcW555wrAZcZMyNtMxaC7VZUVsDn9aGurhYN9Y0CWnj6ZtZCJp0WJSqxB1l3GcfY1tqGDTUb4PX6JKiSMrzrrjslqJOpi3TLlJdXiIvj77ffLtaKqi5ViESiKCkulmyEusZ6KVzkgrVwOCKBjPW1dRJvUVpSIqf+puZmRMIh6VOsqEiCMWtra6DpTh9JYRyLx2BlTOlTc0sriuJxuZ9tsyASC1Axwo0xHHSL+H1+OS9uzcIny9wR9y69tvZ+fGGnvqjjHd7Tr/u+bal/TnyPjYbWdmh+P4I+Az7LYSJk3RmQ/IjB2zZdDEvx5LX3IbO4PgsQIlmAMB5a1IdUWwbv3/sC3rhnMjxJAgTSXWvoO7AXulSVSboi6yl4u0Qx8PRx8PcvFy6Fle8vwKO/vROZhiR6dqvE0G5d4R9WiT5njEOwJC51HRwukd37UgDhywCEVBo+n1f8wDumFsMXL6ItAoRipr5tbqrixrMJQHCtb1nlK3EzeSY69/NWlV+2POomCet5K18+bqE9fv+L9hEZeV7/GNcj5dG3IBKClE0AQv64tiHC/P5ls88ctsGv2b9Nxus+V2TupEY546YFwXmIkKYxMto1Oefd434UdsesodQNK3G4XFiNk9uW07bocP6gO3n77lSKMuL/GBfF3/NesW5nvyGbp8tR7+xcNMtys2X7OblIXzdyS7Edfk/MpTIvzmf2IZlO4ZXXpuHhh/8r1gC6Q/yBjbUH2E1Sg2fJlJ2hSnVRxwycbTA3p86pi7937nEJlDiGtvZ2CRak8mVVQmfd26heu17cBoyX6NWbvA3ZlcM16+aXZeXopB46MnHbFtkKsZR7n6OSnHE643X5ItzxSxukx3Vj0ETm2bnJ40NwTMzZ6oH56zP77kgxoS+rQTq8w19L82zhfXHXclY0m7yLufeyw7stEtoaiM++U5uQjGbH+IV7wVbGKM/KKlu3jWTGwgfz1mHVhgaMHNILfcpC4hrgApJn66RbdgDCU9feh3QWIISKHIDQ/6zx0KM+pNvSAhCm3TsJMJ2Xy6MTIPRGl6oKqaugsZpueRT9zxoHo185MtCxZuYCPPZrBRC+WHN9g7/hFmtKp1NykpEo6+zpqfAFm7YsSJfjgP7smjonzZGX1xeApgcRzZ42m5tbEYtFkUqmJNCsOB4T8zPvKyqKoqmxWcqKRmNRiWMI+H0SlNbQ2IRo1Ikcb2hqRiweRTpjibm1SOrbt8E0Myguisvplt/jCZCfSaZD83BDQ5OcwHia5e/ZD9O00NLahng8Jqc0nmjj8SiamltEafCZvI8nQbbR2NgkVe14Gm5sakFxUQSmaaOluQXxojiSyZS0wz61NJNN0kZRPIq6hkYpThMOBdHY0CRmZrbBky3HSoXa1NiC4hKnjUR7EkVFManwmDYtxGNRGTc3BVbq5AmXSo6nZfaJ/aQbh+PiqTFtZuRenlJb29plXMVFMcnXp8Lg98k3wBMzx8XAUp4u2UeeLhkcxzlloSOezmkK53+lZUVoaGiW+SoujqGhvkmUYDgcFDm5smGwHWXgtNGOopIYEm3tSKYyKCstQn1DE2zGNMSisl54kvUFfWiobUSUc6TrMi4+myWG6ZYoLS2WPtBEznE1tbTKRllaGsWGmibohoFwJIj6+gY5zRuGV7gIimJRNDeRI2GVFLtymAfZRhytrW1yyqOs+Tya5Kncaxsa4ff74Av4pA1mNMjaa2iSNUv3Aq0HTOMlXwMtLcVZbgiCBK6tdDoDn9+HUNCP9TW1osf4e64LWXuWieamVlmzaXkfkigujsv7QLlxHXKtMK2TrhLOSzDol0MA5ReJRQUl0bLgWntoneFa5rzRmlEUj6GpqUWqeHJPkHcqEJCgtvr6RsSiEVlTdY3NiMZpKcmgrZ3r11l7/JnjZRsEG5SDs3590g7fy3DUsWpQfuwHn8vn8zPlTIsT1zgtPBQCn9nY2CxWFq49vgO0zLCPjfJuRwRAtbTwvXT2imQihXhRFNw/CN6c/aHJGZe8Dw0IhoJSnIq/j8Yioqz5HnMsyWRa1o2Mq7UdZjoj650xKNwP+HzOMyuicmwcFzkzSCTIZ7IftNi0tSVQVBxHW1u7cEtwbTU0NovFTt4pvpc+vlNB1HEdRkJY1GDif8/NRZE/hCMP7IrRA8Lw+5iI6IOHqGILACFYFEGpAIRx0CM+JNvTeO++KXjl38/DSOuCK0hs1G9gb1R1KZcqurplI1waQb8zx8HbnyWgNax9byGe+NWdSDQl0aOHsiB8g2HA1ofW2t4mgV+McqYiY2R3OBjMVXP8suB/e4TnImaeZBg4VU+iJFgI0fQcigvjF69UMg2/3yuKmS9cxOcX8zIZR/liUjlyI6JSz1XBMwyppMeNUSpJplOy8dJ0nE5lEAz4kUpnYGdMRPx+pw0NsllIG7oHhtcQ5eLzsdqdLt+hAqACT6bTCAT88sJzcyMg4abEkzKrFXLTpYnb8Hpko+LGBkNHWyqFYMAnCoYKOBD0i//bSmekPT6DOyKVVXsiKYDDZxiiCLyGVzYmZ1w+OVHwMzfdTLaSoDuujG0JUEok03IgoxyYL+81DFHoHCN/x5Mgnylj4bgyKdk06TLImJYjp1RKNhduYgQyzOVnehQ3PsqD9Csim4BPgATHxftIwkL5hEJBeR4VGJ/TnkhJzjXHk0olpaofAQODCPl3rgfOET9LNUIW7QoGRHa0HAToU08knaqJhi7AKEjZkGwp4ciD1gmaz+l2oFtACn8FArLeqXBCIR8a25PQPLqsG8qG88155xi5xjgYaS8YkPvNDPsUENcJx8I5l4qOLDLm96GF68ZgnzxItKdk3VD4bCPE9kwGPrJPARkX1wABG/vJL3KNUzlScVK+zYmEAEIBJ4lE1rTPCpop6R/59amM+Z5I5USwTz4kEqlcBgn7x7Q2XfeIzAheZFyylv3iruC4gj5/dlxOVVCuZbpHvNl3gOvX4LjYht8na6o1lZL22AaBDd9F/muZFsJsL++d4vp15stAO9ee31l7bI/zzHeKa45tpNKmgEmuX3e+OOe599Iw5DP7xvlr5/r1c+1l36nsurEzHIsvV9GT7wyfR3ly7XO9EUhxPTvvgw8mq6NyjoJce6zOaebGpWUsWXtSfRJOxVMZl+HJe6d8smclU9yzfAJaUmZGPjtz7shX+pHdKzi3hmejfG2vFx+vaseMWdXo1aUU+wwOYI8yC4ZOwnlWwN0cIIwY2Qe0IJQO7o7+Zx0GLcq1lMIHj7yCaQ9Ohr8F0NozUrRpwJC+AhB0jwbb0OGrjKP/yQch1KdC3o3VBAiX3om2liS6K4CwPSpu97yXipl+Xkagc/Ol0iCbWzQSlQE5ZuCdAREcDgS+NNUbqtHY3Czug3isCGVl5bl+iNk3ayblZ921decqomdN33nm+3x2Lze+NtdG1uboFJFie8485oYttlGWKs1ajrMFkNzZzpnYs05EMcdm7YTSVn57jiHWISfJpnXSguzUBHD4yrMGaYc1Mufbc/7i9k0skVm621w/xGpoywmWysYdBPvicPd3tLs6khRzv8tjn22MT6PyFdN91uTvDiRHV7xJTYSNzbMeizw9595xniPtuebp3EAdyt6OZtz8pmX/c4z9G0fhujlc8Wb7Lx4J17yez82fNbd3dOjkf8XMylvcG1mzuuPOyNJ7570D7tzk/CxZHoCNTJ+sNuI+zRmjE6rhuB0cd0bW/J+Vhev6cPrEIlB8F7LTyPFmZerOovM9RzJuafPsEHJycteAW7Qrf4fi71znsdtvp7BXlhFv4wLPraV803nutcv2YZPxZmcr6yGCTvdTrprlxl6IizD3I10tWtbNkX9c2NSGKe6cLbk0si4eMy8l35GH05br1trMnbAF9r+NY3P658xNTvK55L2t7Yq5NZtd2NlyCRupvLMunfx9NVfkPu/hfG7aBFbVZGD5bBRFNamOyHgBFmgSjiLxU27uYggWRbMA4VAg5kXCNNG+uBZr565Ay4YGtGyoRWtNvaSQV1aWIRwPw4jF4CuLITCgEt6oF5qpYdV7C/HYb+9Ee1MSe3RXFoT8d+hb8ZnLvr6hXkrZ8kQqtb7DITGP7Sz3gqu+3Jr1DU1NYlbkaSQUDGKPbl0konoTvZO3seQr1txLm+d3z+mq3IM2Tu0mf3MVZN6b7+6j7nubU5hZH7n8vMlOkfXJs9KfqyezQCHn/3Q3pSzvg/gT81abxAxs3I+cPY3KuoNzM7/v7mfxKWfb27jNdljKeW3nNqZ8nZ6HJ2Rjz0NY7ng7Kgu3f/mbaS4sIPv4LNbaBG923GTz53JzcOVu1jmdla+jc4PMl/NW/cuujLfylrvy3GR95AMmV7G7QK/jmtlau+66zJsDt795uCmXMegAC0dkm/i73bXqKht3kXQEgnl93sT/ngc43Fvc5+f3I+81cwBrntzy+52PMTeZw/x1lYdR3XuzOCc3oTl55383BwQ3zrvbr/z+yLLNNsA4lPy3Kn9sjkzd2AuCkizdcP7BoCNA2sp85r9v8vwOB4IcUHafsSVU0bHGWvZnty3L0mHpCSlwp1shaKRDlCCmDGzNkI8SgyBZDPUYMaIPwsUxFIsF4RBYMT/vhDelQRdqZFusGVYq48QiGLS+OJPLdz3tZQCkDSPDLIYFePiyO6QWQ+8uVdkgxS6SxRAojQma/CbUxlFBiltb4LYtXPJMBaPPl35XTjhNb6KodlKIKquCCfLOWhF4qmaKVzAcxpDBg8V0p67CSKCjLaEwrapWlASUBAovAQdRbAy73Rj4KlY5WlRsG2s/XoIn/+AwKRIgROMxRId1w8AzDoYZC8FjGxJjQMUv1qu8QmGkS86VgqZLT7PEhetJmlj30RK89I9H0VTTgq6ROPpWVMI/rAsGnH4YfOVRseBuiwOj8PLYMS0qgLANuTJ1jGQrNDGSW1182rxors6aw3fMtGxs1cnacaAzwQFTxxgURipX5lpviQdhR/dJta8koCSgJNCZJSDkSTaEB+Hxa+9HckU9hg/ri+IiMil2xaDTD4EVCpJCQWKbLN2E4fOK1cCiKy1rmdQYf5IykWIwcVsbUi1tsJuSSK9tQu3itWha1wCtoQ0hXYc+xGVSjEKiusS0tTWHS2eWXp7+sTs6WnePfu+UXtKc/9ncz/DWW9NRXFyCrqxkFwo5ypo92FquTwF756BYO5ubXSsFYVgxjgQ6dHd8E8xYBRSXakpJQElAScAp1iQAYRmeuO5+hyhpeD9EigIoGtwF/Y8/EPMXLYbZnEHQ74fut+GPhhCKRRApikE3GETdjqbGBiSa2pBpSUJrTSHT2IJETTOS9c3ItKahJ2wEkjZg2NAHV2LwKYfBWxHLUi3v3uDAUXEKIGz1deKJncQqpLddMH++5GLv7MvN2eY0MSK5S5euwnvPsruqEMzOng31PCUBJYHOPmrrmwAAIABJREFULgEGmpKinnFEaz9ZjmeuewCZBXUYNbIf/KUBqcXQ5zv74ql7HsHyD5egrKwYxd1LUFJZinh5iQAEf9CHTCrlWA2a25BpSsFsbAOa2qElCT5I5QwYGR0eZmH4bPiGdMXg41msySE6E+Kv3RwjKICwjdVOgMCL6T3V69dLmiHTfnYmpnItBEwLK4oXSaol86CZHiiLMD8VobO/uap/SgJKAkoCO1gCDGJk9hU0Cy2rGvDeI9Ow/M2P0btbOWLdy1A2pBe6jx6Op279DxZO/RS6ZcIO2fAFgojEoyipLEGPnt3hNzxIt7XDZsomaZgzGjymw8HEtulmFkI6VnusiqNi70HosvcgeCJMPbcVQNjB87zLm88HAszP7QwX4yEIDgSYKnDQGaZE9UFJQEmgM0lAvAus02BBN3WY9UnULFwJO9WKWEU5AuUlMNMmnrjxASx5dTYMy0LKIPeHBzopmk0TA4b0Qdeqcint7OSJWZLxAN2QGiu2nYHh0eApj6J8cF9UjB4oBZ3sADMrsqnSHbKwOpOIvmxflAVhG5JySUVa21qEJIbEMtt95YXKd8jO23LT2TQtN53L6zEQCocQDIXAOgzKgrDdM6IaUBJQEvgmSSC7sTJtUbIZTC1LwU23ALMdNJi1bXjy5gew8KWPINhAt5ExHC4WAoaBA/qgqorVch0vgXBWQBc2ZoQ98JaEUdGvB8qG9IS/Wzm0oJcUjLDdZArhpdj9LwUQtjGHZLirr69DfVMTbNPc/tl2ecqFF99N0dl2s0Iek5fozc/MpiBJEutCKICw/dOiWlASUBL4dkggQ9M/t/KmDGY8/hI+nPQ2mpfXSlwBicCc2hkm+g/pK9UcjeyBztQ16IaOSGUx4gO6Iz6oB4Jdy6CHs8CA5GHkj/6GXQogbGNCWaVtXXU1kimHAlfY6Lbjci0GHs0j9KdfVrk7lQGZycCV7aQ8lhaXoLS0RKwI6lISUBJQElAS+GIJiBWYW2hGQ6KuBevmLsOcaTOx5MPPkFzeAKY1km+p35A+6FZRBh8JlPwafF3iKB/YC8VDesNbGRdgYHk0cPt193EpALadOuKLR7Bzv6EAwlbkTWUuxZrWr3P417fA2PdVp4p+MXLrs/Quuea//GULeyKL5bQn2gWsMO2yvKxUAYQvL0T1TSUBJYFvuwQYeC5ESk5pWD0NZBrbsXrOYnz64gwsfn8OUjWN6D+gDyr36IJgWQzlA/dA6bBeCHQrhx0yyMCUpUx3KrQKs+43DBi4y0QBhG28MCzWtG79eqeQyfYZD+QpUrzG60eXqkr4fP4vFWPoUq6yEE5NXa1U36M1obi4GGWlZVJERV1KAkoCSgJKAl9CAsIRLzRKQiotdVxMwE5baK1twppPFmH59I+k0Fe3Ef1RMqQPgt1LoAcN2B5NrAtUBcQI3IdZK6YQuuFL9HyXfEUBhG2IvaWtNQsQ0mJKKsTFojQMMAx4fV8KILi16VkBrr29XarucY0XxWKorKj4Rvq9CiFn1YaSgJKAkkBHCeRixHO1PLIF4qjvSWufNJGub4WVzMBfFIEe8cP0bMppILVk6Kkg1nALy3xDRa0AwjYmlsWaVq5eDa+XFMtZs5KYAr7+atiU7//LmCXc4ikbn0mXB+ui9+qxh5RTVZeSgJKAksDuJoGNVT7dCp6b/7vZmLLVL93f5wdwb1K1K1tTQf6eVwZVKAyyReIcCwBp88lpwGwHhzsho+myxdNKwOyFXFW4bBnZ/MJsTuG1rcceuHEJW4tPINdOx+DGL7pnZ86zAghbkTYnaX31emFRjESiiITDu5y5kH0iOKiprRUXw8gRIzbWh9iZq0Y9S0lASUBJYDskQJdpU1MTWltbEY/HEQqFnEJ4Hcu1d1S+BAhycu9wuMqVzd60TLsLEJxscafItVN22imC51RqzCuvni30RDZGUtybqTTq6hvQ1tYq/DNlJaUIRRxdkM+Ts60YhM2KwMkYbNnH58yZg0GDBgkBXsY0JRDeQ56bPIDjymRXxDkogLCNRc4F/M4772DlypUIh8O5iduO92K7buVCIZMjUecBBxygijVtlzTVzUoCSgK7SgLcW//36KOY9tprOO200/Dd734XAb9/Y91sKkgJKNzcyrol5Swn8SwA6Ghd2EyRS6n2rEsh234+bb2bNdbc0oK33noLzz37HGrramEYBs4880xMmDABfr9f9mFe7r05i4jzyxzYEbDRQdAESB9++CFuueUW/PSnP8XeY8bgrenT0XOPPTBIqvSSkMkxVTtGimwa5U4OhlQAYRtvCBfA2rVrMfP997Fm7Vo5ve/Kiwg7Foti8KDBGDFypCzSXYEqd6UM1LOVBJQEdn8JLFiwAL/85S/x7rvv4qSTTsL111+P8vJyOQCx/g33OlauDQWDCASDaGxslEFXVDLA2ycl71ltl3s07wuFw2huapL7uScSLERiUQQDQfnuhtoa+AwfysmkGAigpaXFyU6zbdCVHIvGpAie1zBEufNvb775Jn7xi1+goqICRxxxBKLRKIYPG4a9994b7YkENmzYIG2VV1QIuKHSr6utlf7zQKnJfh2TQnu0lLhjYv/Z59q6OnwwcyZGjBgBptSf98PzcMIJJ+Ccc86RZ5Liv2bDBulLSWkpioqKdnrMmQII23rXbBtEf1xMXKy7GiBw4XPh0b1AhKmKNe3+G6UagZLAt0UCVMb8jynbkydNwp133ok+ffqImf2Gv/wF++63n1hsH330UVHGy5YtE+U6YMAArF69WjK4eNqmQn3ooYcwf/581NTUYMiQITj3nHPw4ksvgcCDezUvfrdLly64//77sGDBQlGuBx10EI4//nhMnfoq3nrrbZSVlWHO7Nmi5H/zm9+IuZ/fI9i45a9/xW233Yb//ve/OOzQQ2F4vQJI2N//PPAfrF6zGj6vTywKp552KpYvX45//OMfAgYINqjgf/azn0kfH3jgAVRVVcl3mBVHcERwcfvttwtAYh9uuPFGcRuf/r3v4cQTT8BTTz0lfaTe6dmzJ37yk5+ILOiC2FmXAghfABDEzNPB37SzJmdrz1HAYFfPgHq+koCSwFeVgAsQeMK+8cYbBQCcfPLJuPnmm3HKKSfjvPN+hBdefBE33nCDnKK59f7zn3dj4sSJGD16NP7+97/j2GOPxbnnnisKlYDh7XfeweTJk3H3XXcLBf2ypUvxwH8ekIyEP15/Pd6dMQNPPPkkzj77LKxduw4vvfSSKOdZs2bh+UmTcOGFF2D5suX4z3/+I8r6yCOPlMMXrQNXXH453nvvfTz51JPo17ev6AEeFm+66Sa89tprYl2YMWMGPpo1CzfedJO4I9gXgoJFixbh6aefxi0334zVa9bgiiuuwPnnny+WA7oVfvzjHws4+uEPfyjjpbWBAIUWhLPOOkusEL/61a9kvN27d8c///lPnHHGGQJ6xDqxk1wNCiBsY5VvqWpjR/+Xe7tD0lm4yw2okbekw7WzFkfhRqNaUhJQEvi2S8AFCCtWrMDPf/5zsQ4cdthhePx/j2Ho8GECGuhyIBCgy4Fugt9dfoUod57Sec+YfcaIUp08aTKWLFmCVatW4e3p0/HAfx7EyJEj8Njjj+PJJ58UJX344YfjmmuuwcpVK3HzTTeLu5iKmid23kdrxa233YplS5fhogsvxN/+9jcce9xxkhlWW1uLq666Cq+++qqc5GmlYH8YWPjrX/9a3Am0LvDv1113nXz39TfeEBcDx/HBhx/IM//0pz9hzZo1Mp5bb70VPXr0wI9+9CMce9yx4irmmAiQ9thjDwEGBB1nn322gIs//vGPuPvuu9G/Xz9ccskl6Na9u4yHFuSdReusAELeW8ugGJq/xIeVjaili4ELwwUGXBg08bgT5C56NkOTEv/OFER+Z0sRue7jaKrKD3Lh53QqJXEFRKrkPOBCzY8z6JgWlAMnWTTpPo9tdaz2qEDFt317VuNXEti1EuD+xL3pxRdfxG9+/Vv07ddHFOO8uXPR1t4uJv1169YJQPjLX/4se+5vL7tMrAmHTzhclOlee43G3nuPwZVXXokzzzwDbW3teOjBB3H7HXegekM1brzhRgEQBAElxcW46eab8cEHH4iyZbD5zTfdhPN+9CMsXrxYAAKftXTpUgEUt916qwAE7t2MZbj33ntx+eWX4+qrrpLfcy/mHn/rbbcJ2Ljpxhvxyquv4N///jf+8ue/4N333sVb09/CZZddhnnz5uGBB+7HjTfehDWrVuPPN/xFAMIePXvihz/4AY455hgMHToU3//+93HH7bejb79+OP3003HOuefg++d+XywTtCgQfPTr1w+//e1vse++YwUwRSMR0T87Y09XACHvnWEgzEcffSQIjYiRKJJol34sBo0QsXIx0dxFU1F+9CrR8AsvvIB5n82TSa6sqnJIOPPABR/FF2T9+vWYPXu2+Ka4GIcOGYKGxkaJYj35lFPkd88884w858ADD8yBka0tCAEG2XHQv0XGRQbduKlD/NPOWEy7dvtRT1cSUBLozBLgPsWDD2MPZs6cKSZ0Kr8ZM97BXXfdLSZ0xh7Q3P/b3/xGzO433HAjTjzxeBx00MGirEeMGI5Ro0aL4mQsAq+ZM9/HpZdciqefeQaffPIJxh12GMrKyzF+wgS0trTI8xhrwP09GAjgggsvFBcB3Qw8kTMu4A9XX43Lr7hCsinoYrBME/MXLBCrwvx589GtezfZTw868EA5wD322GPo1auXuCLoAiAoWL5smVgkgsGQxEF8vmgR7rr7btTV1UkfaGXo0rUrfvWrS/Gdw7+TU/x/+MMfMGzYMAEBba1tOP6E47Hfvvvi5ltuETcKXQq0QtCKMG7cOBhMg1QAYecvdS4ULkIqf04m/VX0/RCNnnrqqYIop746FbffcbsEixAUcNHzpM/Pf/nLX/Dyyy/LPX379pXfc7G5F79LwEHT1Ntvv42qykpZdEccMRHpTBr/+te/BGUSjNCstddee+HQQw4RgMBAFVoz2CbplfnZBQasOsnvEFgsXLAAD/33IRx55FEYM2ZMjkhJAYSdv57UE5UElAQ2SoD7FQ8wH3/8sexdVIrc/6hMyTfDfZfKkPswD01UxHPnzsUePXpI9gIVOg9vXbt2lc9UvAz846meQIP3NTQ2wPAYsu9yj2abbIMWA/5u+LDh6NWrJz5f/DnqGxowcsRIARFz5s6VQyHblkMdAO6rtBTMnTNHDos+vx8jhg8X8EELAQ+MzFIYPnw4evfuLbwOn332mfzL/f2NN94QCwUDFvn8YcOGIhgKS+YCnxOJRCSWgs/lnj9v/nwsXbIUXbt2EdmsXLVKDpIcH+MV+Dve4x74dsaeriwIeW8wF8EVV16JhQsX4s477sCDD/0Xd975Dxx99NFi7vnzn/8sC/yuu+6SBUMUSgKNffYZK5NHtPn444+Lj4mTOnbsWPmPi54XzVaMiGWQDP1Y9DnxBeH10osv4ra//10CZQguuMD69+uPIUMGY8nSpXjj9dfR2tqGfffbFyNHjpRoXS5eVif7bO5c9O3TF3uOGiWWB6LV4447TnJ2+V0340FtVkoCSgJKArtMAtmssPznu65QcdXm/yGveq5Tj8YJFncvfnLdv/Ln7B9ybt3s993YMNc9y4OUuGDz2yKbIp+XbSefpMh9nusO5s85voVsn113NEELD5EECAxSPPjgg0VvlJWWSt9da3K+a7kjR4NwP3Tohzwz6/LOjT/b3o6eSwUQ8iRM89f999+Pe+65BzT7PP/88+JSoGL/za9/jX/+619i4iFgoCInghUEXN8gZqNJkyfLAjn6qKPEjUCf2J/+9GdJreHpnm4EmrKoxNk2c2q5cAg6mNpDgEHEyTxZmptotWCgza1/+5ug7HAkIt+98MIL8crLL0swzj5jx4pvbf36dTj//AskfWfK5Ck4+JBDxBdHkxnb2xloc0cvVtW+koCSwO4tgfw4KnckHZX6JiPMBmm7TIg5oJDHnNhRIm5cWE7R8wtZq4ALJDqCALcPHePGNsUsWeIiN6uNbeb1j3v+tKnTsGz5MnFLEyAwPZEugVz/Nw56MxKofFfxlr5PEOMMxQFKO2NPVwAhbwXQTfD666/j15f+GsccfyxWr1olZqrnnn8O4w49DDM/+EBO/kSA1/zhD8J+RYDA9BZaBej/ouK/4447ZPKooH/y45/g5+f/XHJe6+rr8bvLLsP0t6ZLFC7NUrw6AgQuqF/88pc468wz5fnXXX89xu6zD0KhIN5++x1cdNFFkovLvl577bUCRph6c8nFF6OltQV/+9ut4hNjIAx9elLxcSelxeze25fqvZKAksDOlMC2FPLX7Ud+4HhHJdoxePvrPiN3X36dB8uSvZyuCe7hPp8XLM5HtV6IrAMBV1krjApS3O6Z++oNcAI+//xziZalNYERtued90PcfvsdEiRCXxgjbed8+il+f9VV2O+A/dGjew/x848fP16CZF6YMgX33XefZDLQzE/SCypu/kzyjRtuvAH/+tf/4cEHH8ShJN/weCS+4H+PPSbxB/yP7dFKwHxfpsUwVWbfffeVQBm/zy/3EYgw0vWvf/2ruBoYM3HpJZcgkzHxpz//Cddedy0mHjFRESp99WWg7lASUBIosASEICmTkeA6N8PLzeT6Ui7QPD6aLzo50+JLi2tJSYkoa7oEeEBzwcgX3b8li8Q2A8Tzssg2s4pkf5EDJh1cJV9FzOx/or0d1Rs2SMwCdcqOvpQFIU/CnABGurr5p6edeqqk2TDmgK4DKmySbyz5/HNcc+21GDx4sCjuYDCA/v0HiHvi8f89jl9e9As0NNTgwUcfxe//cC2OO+YY+A2PFOOYOnUqLrjoIgzs3x/fPeIIhINByW9lNCyBAIkwhgwejCuvuAJnn3sOxozZR3Jo+ayDDjpQUm369u0nsQzMGSbpxjoChKuvxsVZIELrAd0gp51+GoYMHqIqPu7ot0i1rySgJLBNCTAaf/r06RJsR6sowQGDBxnoN278eMSi0c3SwvMbdOsy5FscXKXrugvcvy1ZshjPPz9JSIcYNEgXK7PBfF7vpqb+Dso6Z+LPs7aynzwc0hIbj8VyltiOrpJ8F8VmQCTrGpCaDNuKHfgC8MB2GRxJNzT5Ehjc+FXBzlddpgogbLIKnShbEl488sgjYhWgopWCHc89J4xejC+gdWHS5El44403kUmnJYf1xBNPFBfD29NnIBaKoHrdcvQfORInf+8MdO/SBUZ2kTQ2NeHll1/C1KnTJIWFyPY733FSXkgfSr5tkocwg2L//ffHfvvtJ3nDjIjlYuULRqpQvlwMhCGpRn1dnRCEsG8EG4yhoNuBfWcMg4pB+Kqvhfq+koCSQCElwP2I1k5aPxkXxb2MsVjc55hqGIvH0VBfL9YFZipwzyKbIA9stDDwd7wY/M2L7mAGf7vWBx6+GBzY3taGNWtW49lnnxMX79o1a+H1GpISmUqnxd3KeyPRqOz1jAsj0OC+y8OXW2WSz2H7tEDc9+97MWLESOyzzz6StSD9amiAx/AgHnfuc4romTBNKwd03AJ/4nZIpRAMhXIKnd/n2NgXtsmKwelUUn5mP5lZwd9HCUoAGRufSwv3TTfdiOuuvU6C0hVAKOQq/aK2skQeLMTBCWF8AdNKOJlU5vwcDoVkAfB3tfX1SCaSiESc+giJ9gSSyRRsk6RHbYgUlwC+APxeA/5sSVHiBC4AmsDaWluF35vlTv2BgBQV4YvD5whRks8nn1PJpDB0JZJ8VgRFxcVIJhLIZNKIxeKyqAk8SKDBF4uuDPKB86Xj97eJWr9IJurvSgJKAkoC2ykBEiAxTmr8uHFiOeUe+tRTT+KFF16UeCmmPvJ0zL2QgeDkFqAblXTMHt2D8RPGS2rgtGnTRLFn0hmpV1DVpYu0Rbpktsd9kPFWG6qrJV6M2V502Q4cOFC4CyLhsJRtJoXxe++9J+mVbI8FmBhUuGDhQnET82L6Ivd51legBZcWCWalke+GmW7MnaCFl/eRjIm1IdgX6gLqj4lHHoke3bsLIRMD2gmMqFMIPvg7Pp/UzRwr26byZwok+8/aEwx0JHkS+/fEE0+IDuK+zww3BsmP3HNPBRC2c11+5dvz00463tyRTtk1bfF7rnnKlshWlui0kbJsLF+7AUWxCEojQSc9pmOw4JbMXO533FroebUg3NKfbtDhZn3o0P6ORphfWcDqBiUBJYFvnQQIEMhyOG7COBw58Ug5CDELi9bRH/zgB/KZ2V4slsTYAQIGWhhYq0EI6pYsxcSJR0gmGS2r5IhhajlN/+l0Cvfcey9WLFsunDWLlyzBW2+/hYv/38UCMnhoOvigg/Dz88/HUUcdnXPVPvifBwV4MAaM/eCz/vf44xg8cKD0hVYFKnqmt9OaTAXPrDZaPVjdkYcw8t4wnfz9mTMx6fnnxUXM4HMp8DTuMOy/3/644YYbMGrUKJx80kly6OOBjpwNVPh0LbN+A0te0zXy3HPPS5o85cMCTyzQ9OGsWVg0fyHOPPtM4VOgK5uZbcqCsBu+RpKeAksSc9O2hvUNzYgEA4j7vY5OV9kEu+Gsqi4rCSgJbI8EBCDceKO4T1kQiUryySeewMuvvCIZYFS6tMbuOWpPUfxPPfkkPp09W1ykVKJ0UZBu+elnnpYAbloE3MMPzfEkqRs6bJgoeZ7EH374YaExdgECYxBoqfj973+PvffaC5OnTBEFTDcs3Rq0AOy5555ChHfllVcIUGFAJZU4uQxOOvFEHHLoofi///s/se7+9Cc/EUswU9Op/FesXIl5n30mYIBWWxLdMXicQOaB+x/Ar379q1yfaRGgZWPhwgVobm7B2++8jTPPOANrVq/Bx59+ist/9zsBLddccy3GjTtMuHXohqY1Yf78ebjyyt9LnByfu6MPgCoGYXtW/Rbudeg+SH2sIW0BtS0phAIGIoYOXQGEAktbNackoCSwO0iAxHIsSkTFTkVHXztrGNA68Lvf/U5iB+hieGfGDImzIqCge+GUU05BIBhAOBSWe5j9xQA9ksnxooKkmZ4Agb/73ve+JwDh0UcexQ9++INNAAKfw3iHPUeOFM4acs/w9E+mQ7ZDi8C/770Xv/7NbwSkMJWQvyMlNF0ABDcEFfX19VK7gUCBWWcMVKdFYOGChZJBxtgBAgBaEdx6OgQ1Qphn21hXXY377r0XPfbYQ1zEL744BaeccqoACro8yOZLgHD1Nddg/GGH4qknn8L+BxwgNSkoI2asMaCdgEYBhN1h9ef10QEILJakI5GxsGRVLUqLIiiPBcV4sKMndDcTl+qukoCSwLdAAvTlMwZg6iuv4IgjjxS/+qRJk3HSSSeKD19iDTwe4XahaZ/p3Qy2pkWAn/k3ugoYyE1l6wIEio7AgRYDZkkcddRRWLF8udAWMwZh0qRJEkRItwQBAgnwWOOGpnqmnI8hC+7QoVJ7oaysVGpCeDy61Epg3YTevXvhqquulrRCWj4IRjgO9rmhsR4fzfpY3AAMZGfguGtBILBgUCbjBa695hqM3Xff3N5PYjsBFmPHisuBrhRaOxhcOXfuHPz2N5eJheWa667DUUceKeCDcQ+UBan6p0yZIpkMZMnd0fpEWRAK/HLmXAywkbZ11DQnEPb7EPVmq29tZAst8JNVc0oCSgJKAp1TAozRqq6uliDDRZ8vEgKhQQMHYtyECRLh/+Ybb4iZnqdvntSpkN988005MRMcjNpzT/Tp21fM+GSPJYjIkQ/JqXw9Xn3lVaxftx49enSXjIEDDjhATvLMdCDIIPhgbAGD/whQmCb+4YezYJoZySLj3+jOYB95gh+15yiM3XesFPBjTATdDjy18z4S1TF4ktT3zJBgOiUDzw85+GB4/X7JbiNo+fDDDwWUlJSWSgwaL4IlAge2y3o8gWBQXBFuTALBDGMQCHhocWFgI8tKs7gf5ULwwEBOjkMBhM653rfaq80AQlM7Qn4vYj5DxSDsZnOpuqskoCRQGAkIuyGZBpnC19oqio2Kj1YBNyuM0f00ybtVaKmkW9vaJA2RpEAECrQWkM+A8QGui4H/UqHyfkb5C4GQpsn33boHBBNU2swac4EFFS3dBPyXVgaXTIltsJ/8mf3j36nU2Tf+x37xPncMHsOQtjkO+Xsqhdlz5oj1giWd6Z7IJ4Pi99Ipjq1V2mc/+XfKxy3IJ99hfw1D+ktAw/H5fT4ZtxTtyysEWJhZ2rwVZUEosGTzAULK1LB0bQ2KYxGUR5gDu2nBkQI/WjWnJKAkoCTQaSXQsUgSO7otgqGONMwdM8zy6Yvz6ZUFODjoQWSRT1y0LRrm3PM6EhaR4ZhxZfmMiXnFoLJIJfcsuiGYlsjvHzlxIsorKjZLNeezcsWmsm1RPjKmLbFGurUn3NlVxZo67TrfZsc6WhAa2tII+DyIeOhiUFkMu+esql4rCSgJbK8EOrIPdmxvs79vQ1Hm7mUqeLbSYT7YyFe0+SCh42e3nXzg0BFQbFbPIZt2nl8MKr+apGsRYR9ckrotcdHkxpsFM1tkZ8wDBPl9LXhNia1MrrIgbO+q73D/JhYES8eGxlaEg37ElYuhwJJWzSkJKAl8myUg7oMsiGhraxWSOhIt0WT/dXzzrjvC2cMdywNdCXQ/0KT/RZcLMvItDXQN8Ofdlc1WAYQvmvWv+Pd8gJA0NaxYX4eiaBhl4YCyIHxFWaqvKwkoCSgJbEkCwh7b2IhQMCjK983p04XE6JRTTxW2268LEEiMxDgHsiGyBsOzzz6Lo44+Gr169vzCNgkQyHrLYEWy3TKmgLT9dE+MHzde+rm7XQogFHjG8gFCxtbRnDThM3QEdU2lORZY1qo5JQElgW+GBNzKjlT8TDkkHbJ7and981T6/Dv/bW5pwTNPPy2pfixaxFo55BCQgnWBgATwuYGBvIcneZr82WZ+OwwE5M9u8CFTCBsRsQ8TAAAgAElEQVQaG3Dqyaegrr5eUhCPOeYY9OzZUywK7vcZ7EgAQDDB37vPIgUz7znjjDNQVlYmmRi8JkyYIN9hPzg+pjfS0sGL45O2smMjkGBfO8Zg7IqZVgChwFJ3AAKjWiykLQ1r6poQDQVRHHIWZjZ8psBPVc0pCSgJKAnsnhKQgD3LkvoDLGFPywCVJNMdqUQ/X7QIe+29tyhN1ipget/KVatw9113Y8jQIRg/fhxWrlwlaYFM/6urq0VFRaXQI3sNw6EqXrhQQAMBBWs6MOWRxEVMa2R6Ie+jsmeNAzIznv6970nVyY8/+ggHH3KIZFbMnDlT+BrKy8sxZswYYXdkeiOzMrp17YrRe+0lmQvkaiDBE7kSaJFg1sWIkSOFwOn999+XLAcW1SO7I8dOFkcCDxIlMRWSBa169+nTKWroKIBQ4HeqI0BYXdOAWCSE4pA/G1SriBAKLHLVnJKAksBuLIEcQFi1SgiOmDL48quvYPSo0VLXgCRBJEciaLjtttuE9IipjHfccYcUTyKQ+HzR55g8ZTJOPOEEtLS2ClfBhRdcICf2Z559VoABGRDJ0Mi6DFddfbVUxSU/AomP+PcJ48fjzrvugpnJ4OxzzkEoGMIfr/8jrr76auFwYD/IldC1W1f0798f1eurpShUdbaewgUXXIA5s2fjvw8/LPUlWADqxRdehM/nxdHHHIsHHrgfZaVl6Na9G2bOfB/77bc/Bg4ahH/ccYc8v6qqCpMnTcbYsfvgrLPPFkCUn6mxK6ZYAYQCSz0fIJjwoDVjwefR4IMN3eFaLvATVXNKAkoCSgK7sQRsG6ZlSUDggnnzsXrtGkydOlUsBSQQmjLlBVx66cXw+fxSEZKAgGyIt/z1rzj+uOOkDDPpiOfMnSO0yDy10xLA4kiLPv9cCirRQtDc3IQF8xfiu9/9Du74xz+EwIjuCRY+qqmtFaZF0j97PAYuvPACoYH+5S9+iSt/fyVmzHgH0WgMP//Zz4RLgaCGFRrnzpmD1WvW4N5/34vfX/l72JaNf9/3b6F0rqyslFoNBDNkTWQ8w0W/+IW4Hh586CEhcTr3nHOEkplMin379MHfbv2bBEVedOFFYvH4OrEUhVwJCiAUUppShWGjiyFlaVhVXY94JISScNaCoDkEH+pSElASUBJQEtiYLcACTW+/847UQXhvxrsYPGQIxozZG5MmT8Kll/5K4gRuueUWMcHvtZcLEI4XgEC/P9kNL73kEolPoKWB1MR0AbAQFCtBBgNBCR4sKSrC5VdcgWuvu04AAr9LdwFrINxHgGAYoDWAAOGSiy/G7y6/XEozswgTqzUaHo/EJ7C2BMmUyP5I3oPrr79eppMU0dddd52wHpISOeD3C/sj4yR+cdFFwovAmhJkiTz33HOlJgT/pbXk77f9HYbXASiG4bqld90qUQChwLLv6GJYm41BKAq61RwVQCiwyFVzSgJKAruxBHga56mfp21mALD+wLPPPYdu3boJXfJ9990nlgIG9j3yyCNS7Ilm+JtvuQW9evYSX/6c2XOwYOECCVKkpeDvt92OU089VdgKqbwPP3wCunTp6gQTAqL0aUEYPHiwKPENNRvwu8t+h/89+ijmzJ0rCpun96uvvgrXXnOt0EDTEnHiiSeKK8Cj67juj3/ExIkTUVpSgtvvuEOKKPH0z6qVLBpFCmZWYmT8wtFHHYV77r0HgwcNljoSU154ASOGj8DovUYLWODzevXqhTtuv10sFOeff/4m7Iu7anoVQCiw5PMBQgY6mpImAsxi8LjsXgogFFjkqjklASWB3VgCbnYAaxOwPHNJSYkoWipM+uaZWbBo0SL5mT55VjYcOGAA3nj9dbE4sD4CT+s0+bMsclt7O6ZNnSoxAGyLiv2jWbOEWZGlnocNHy7xBMccfTSqunQRdwYDDQlMFi9ZgmeefgZVXaqknDKDJo899lhxE7z44otYMH8+uvfoIS4L1megFYCAoa2tTdpjzQVaM9auWSOWjvqGBrEyEOh8/PFHePXlV9DWnkDffn1x3HHHiatixjvvyJjKSksx7bXXZIy8V8Ug7MaLemtd3wgQbKQsYNm6WhTHyIPgVHN06T+/gUNXQ1ISUBJQEvjaEmAmA+MQeLkpjvw3lUqivT0hipZKk5kN/NetkUCrAP/j/fw+lS4zEvg9t34DAQB/T0XP7zJrgN9lO/zMv7nPZM0D92c+w/0e22T/2CYBDC8CA5/XB03XcnUT2J7UTch+xx2PEC+1tUmdB7cOBfvMdt30S37mxT7yUjEIX3s5dc4bNwEINrCuvhXRkB9FAV+WH7xz9lv1SklASUBJQElASSBfAsrFUOD1kA8Q0tDAWgx+1mLQiXpVEkOBxa2aUxJQElASUBLYQRJQAKHAgs0HCEnTxpLVNSgpiqIiFlIWhALLWjWnJKAkoCSgJLDjJKAAQoFlu6mLQUNNUzsiAR+iuWJNBX6gak5JQElASUBJQElgB0hAAYQCC3UTF4OtoaYlgZDXi5ifpBfKxVBgcavmlASUBJQElAR2kAQUQCiwYDdxMVjA0tU1KI5HUBFlhTFbZTEUWN67X3Nu5fgtM2q6f93SuOSObd+++4lD9VhJQEmg00pAAYQCT03HIMW6lhSCfgNRr+4UcVJMigWWeOdvztHpNizR7rbEomhwIlY1WLkB8K/8yYIu3/RIrXv+zO8BOn+0eL8GOIXg1KUkoCSgJLDDJKAAQoFFmwMIYDVHHdWNrQiHfIj7vNkgRVWLocAi7/TN5awC8mGjCcCp+snfOWsi/3vOOsr+lpYnogNWls9+X9cUQuj0E686qCSwm0tAAYQCT2A+QEiaGpavq0E8GkZFLAjN1pSLocDy3h2ay0GCrLFADAPibnJIUZzqHRosC7BcMwItBjqgaxbNBhK/YkOHpdG6oMOTtSrsDuNXfVQSUBLYPSWgAEKB520TC4Kto7E9g4BXR8ijSa1vxaRYYIHvBs1lz/7QLRam0aDZNmzdgq2ZsCwTbckMqhvasLy6EetrW9GcSMGje1Ac9aFHWRG6VxShNByA12PkPFSakGqoS0lASUBJYMdJQAGEAss2HyCkLB3r6psRCfpRzGJNNBpLKoO6vk0ScKIPGFngBBmItQCalAJftLwBH8xZhY+WrMWKJhMNGQPtpkeKwYQ9GRT7NfSvDGPfgZUYM6gCXUu9MIg0tCBtDN8mMaqxKgkoCexkCSiAUGCBd3QxrKquQzwSRmnEn41BUJt6gUXe6ZtzQg8ICzLiLjBtAw3tNqZ/sAQvfrAan9fraIIfLZ4g0poPXtjw2gQUFmyLUCKBSl8r9uvpxUkH9sWAHiXwGQGVM9vpZ151UElg95aAAggFnr98gJCxdTSnTfg8OoIa/cnc0xVAKLDIO31zAhAk/oBuhRQa2zW89O5KPPHqHKxDDA3+YrTrBjLZNeIzTfhsWgl0pGFI3IHXakM0WYc9i2389ISxGNIrCj/ruVgabK4pMUy5+Q7KSrVjFkWHHFMnYjQbQ+JEkmQjSwHGG7kX40eyX80ZEDdGoe6YrqpWd5IEzOxzPE6OUja+yOb7C12KLeWnLnNV5JYNbYmMMeIKsvN4+DvR66sAQoGX0aYuBg2raxoRCwdREvQ5lbmUi6HAEu/8zVmOXwGapSFlJfHap2txz4ursDIRQMrwIq0Z4oJwUiGdIMR0VoFE7AA8dgKtRgqW5UG8tRHfGejD9yf2R9/KsIQr2poHlsbESTPrdFAZDjtmVbjKwElDZZypk1liw7Zs2B5+tiTQVLM80LMKws1A4eRIemsWPKitYMfM0s5rlQsgnX2cV+A51wKQgQYTsA1YtgZTkpVsiUHzaHQ0O5DBWQYOqNeYt+yui050hlQAocCrqSNAWFNLgBBCMas5qnLPBZb27tGcJZuFBc3yYnl1A+56bhbeWeVHgxGDwUwG24OE5oGp6fBZNoo0DXG/Bw1WGqkkN5kMWowkMvCjOJNCFdbh1AO744RDBiLi5XZjCPDUs7wJG4+xu4d8dp9eOiAud2WzVJl90pxMobaxBRvqmtHckpDg06A/gLKiKMpKoiiK+uHxuLsDT5saZy1ncNh9ZKB6mi8BU1Q/aUlsaLbDdEJQkEhmUFPfgpraJjS2ENzbwodTUhxGRVkY0bAXXt3vgAJaGXSAbREbMEOps1wKIBR4JjpmMbRs4mJQFoQCi3u3aM5m7IFtImN68dxby3Dv1EVY46lEs8dA1M7AY+to0XyEEShGEgf3KcWBQ8vwwYpaTP+0Ea0m0KInYcOPCP8/vQF7VRm49LS90LPUA50uBttwdJei895ha8IxH28ECVQE7QkLC1bU4K05q7FgWQ1qGzNoS9FmZMHvtRENWOhZFcE+g3ti1ODuKI0HnaquOYDQeZTBDhPcN7hhSVS2bRhaGpZtoT2l4fOVTXh39gp8uKIG1Y0ptKcMZEwbPsNCLAT0q/TjgCFdsdeAviiLBmQ92LoNU6P9kLaEzmNCUAChwIt3EwuCqWFlNkixJOKXyVcuhgILfHdozs6AVoT6Vh03PvQhXltlo9YfF/NiTFyQHrTy/7UkBpcA5xzaB30rvZixuAGPTKtBbdpAQk/CY3uh2zo8dht6eBO45LgBOHhoEbxCkpA1USqAsMNWhCWBpjZsTUPatLGqugVvzpyPN+esweKWIJJaFBlPBKYuwSF0FMG0E/Bn2lCitWDfPkU4Ymx/DO9XgaBPd9KeO9FpcYcJ7pvcsEXroJOntLaxHVM/XIpXZq3F4kag2Ygg7QnB0oKyGnQ7Bd1uR9BsRaUnib16hXHMfn0wrGcZwr4ssyoJ0DqR70kBhAIv3k0sCExzbGhBJOhDUUClORZY1LtPc7YN07awaF0Lrr5vFuYkS9Hk8yJmmvDaBtIMTtQziHtTmDiqAr1jJkqCJla2e/HQ6/VYlw4AWhv8lgcWDKSQRrHdgp8dWIYzDusHP33fwr3s0DgrpbNjlgbjCyhhep0XrWrA06/Px4yFtWhAGG3eMFKaD+0wYEqkgQ16pQn+6FnwmwnEzXoMLbFw8kH9sf/IngIS1LV7S8A208Jtsqouhcden4Np82tRbcaQ0MPgjm9qdB3oEpjorgm6BE3LRMiqxpDSBE45aBAOHtoTYcMDjZHsnYjjRAGEAq/PTV0MHjS1p+H36ggbDp++ymIosMA7bXOOb1Jm3QIyto33Fq7ENY/MxzJPd7R7LJRnGM5koM1jImqlMKJrBONGVuKzjz/B6KE90KR58MCb9VidDiFgtyJsAWnNi2bdQjTThDOG+nDBcaMR9nPr4SmGWxGVkwpS3PKy6BBPnovZcEGVS33t3k2LX17UgWXKSXBdUxv++8IsvDqvGWv1bkhoYfiRQUozYeqWEGERFHgJDGAjo3nQqBlygixLV2NYpB0/OmZvjBlYBa9MletmUKkNhX2dN5Vn/uw7Us/+PS92p+N3Ns4O14azHsSrkJ01xppUN2fw8Mtz8fzH1Wj0lCBthCSDwbAJDkxkdFoQLRi2B17bC9v2IE12VGQQytRjWJmJH00cin36l8qbq2m0QHWOSwGEAs9DDiDYNpIWsHxtLYqiEZTHAlmipAI/UDXXaSTATUCMxrKXUJk4nmbyGiVtE6/MW4WbH1mJDd5yNBoZVGZ0GJaB1QbQ1deMs8Z0RyJp481Zi3HmIf3Qrqfx4BsbsCIdhUdPIWSlYYLuBgORTD1O6Gvh4pPHIhrwOD5MpCVyXpfwN3Vla2M5gpCJYRgY/3NcMppwTKSdNFH4JPrc0QG6M4f8QecpUGLS4TVttGdMPDFjEe5/cwUSmRha9Sga9QAiloWAZsPj1WDqAaS1FHSkoKeSSFsamjWvuCYidhsiqXqM7BrCb08Yid6VAQfQEUdqju1BUt5UaMLXX8DZfEO+EzL1NlOBnTnMKXcBcTLJsh441fxOPkBwP+vkJGGQMcMHdV2sAryVyrwtbeKVD1fg7imLsUEvQUp35tliirsHCJg6Ml4LeiCJEsuA3a6jzfbDsBl07BwaI5k6HNbbg/930mhUxgxonajOigIIX38ZbvHOfICQtjWsb2hDxC3WpFyOBZZ252lOopcZhcxANgEIFkyNP1MRMRkqhVfnrcRNj1ZjnRFHgzeDrmkfIhkdq7zAfn0NfH/vSnywsB6LGlM4ZWScqguPvFWNjzfoSOuAF0lRHhnbj7DZgFMGe/CLE0aL/5KbIZUf4YFiWHTUAN06jiycjdjWHA5LZpRQI2iWDktPI0MA15RApmU9wrEYvJFi2B4nr51xAgQKcsg0LSxeXYNrHv8EHzRXoFjzIqMlsNrrQ8g2cECXAPYZUALTJKdFGulkBq/Nq8GypowoKUan67YJj5aBz2zGxYdU4rgD+yDocbJQLC0NTdOhW4aawu15tbMAgdYczj2DgDl/pm5KNVRBX5om897UksbymkY0ptOgA29TiOB0wtR1RIJh9CqKoCToga6bThOWB0s3tOCuZz/G9BV+tPnisDmHsJGCDxlPCqOiQQztU4pIUQb+tBdzVzVj2vI2BE1LACF5TnxmAt3MtfjFUYMwbkwv+I3O43pSAGF7FuIW7t0EIEBDbUsSYb8XEW82eUWdDAos8c7RnOxJ3HrcIHdJd7ehmzasZAr1tSsxddYs3P6OH0tCveDzpFFiBhAwNeE42G9gEU4YWo6GJNDmAfaq0pCwPXj2vVpM/rQeSZvZCilomomE7UfUbMWP94vj+4f3R9DDIw03FQmz7xwC2cW9cNLNHGsBMw+kUBo/y2nSYZ3QTCDV3ogNSxZg3QdvwLvhA/QcMhSRfvvC020ozGgVoBswLBu6ZSGRSWLK9Hn4x6vr0RDoB7JXNHtasdLwotL24pw94zhoUAjzZi9HW9pCMu3H9FUWlidcIhzAEPIEE950C8b3NHHBSaPRIx5yAIzunCk1BRC2b/VIrAizAuh608TUD8uUd4fgkKf7xgzw6fJaTP10GV5bugHrdB88no305XQTuc4l06Ohe3EIR+8Rx2E9I+hdEUI06AcsA69+vAp3vjAPy9JVSHrCks1ABlRaqHpFPThtnyp4kMJny1fByoSxLpPB9LUpBEwSoFlIaD4Yto3i5Foc2hP45an7o6KI1ubOcSmAUOB56OhiWLK6BiXxCCpizibQaWa+wONWzTk0R6KIxJXNf02016/G0jnvYt4nL2PxypWYlj4ac+MHIuwFgpLBwI0igyIjjZ56CinNC/hSOP2AbkjrOh57YyWWt8SRtIPQtTRMPYOUbaHCk8Bvj+6Nw0eUwceTMbMY5FijZkIkQNlSH1A2ekpcPs7rx+1bg50BWpctwaLpj2P9h5PhXT0XfaJt6Nnfi0y0H6yex8AYcgI83QbCDkVhe3RUNyVxxzMfYfKCDHRvCQymtXlsNHqALqaGU0dVoU8XLx5+YT6Wm0C9HoZuG/ALQPEIgZKwqSIj8QgDw824+ORh2LtXqcQrOACBeokWBTWPX18CBIYWMvBKEx66krIBps1JGwvX1mPSrHl4btZifFZnIRUthx4rETdTNlJsE74LS7fhLfJjUAQY5W3F3t3jGNu/G3oUxfDQ1AV4bOZa1HkqYGp+hJm2zDBVDThyYBH2H16C+6d9ik/qPYinQ/DoTbIugrRqaBbaNR9sy0DEqkdPXw2uPXNfDN+jGLqzUHb5pQBCgadgMwtCcxIhnxdRnydLlFTgB6rmOokEeGbhBu9ErjMQKdVaixkv3YeFHz8Cu30JYAYxP/h9zLAmoi1QJoorAS9MeBCxTYTNNFKaBZ+ewFGju0pbr3yyDnWZGCAAAUhpCdh2O/Yss3HZycMwuNILQ3yihgKgeStBzn8m/fpCayjuH54KyWaps5JmWyMWPfsIFky6CYG21fBngKpKoH8PJwPB9JUhFR8B9DwI3r4HQusyGMvaQ7jyuUWYtkFHHBpC4sIOSdsxLYljRlViz0FFeGd2PVakLCypS6Ohvh22ydgCAgQqBccZ5bFNdDFacNHRPXHEiG4whFmb/8dGnZgEdX1dCTj0RYzXceJQLLRlLMxeVoMpc9Zg2rxlmLumDi0ZH2w9BESLgDjfMYeoqOMlsSHxMLxFRShCBqVaAsMDJvYuCeGj+fX4eG0a7UYUHs2LkMWjgQnbMHHe2Er0q9IwdfZ6NPoqobdqWF29Hovb/JKL5BHHox9p248g2hA31+L6k4fhoKFV8Hh0pw7LLs5oUADh667BrdyXDxBStoaa5naE/F7EfV4FEAos687VnLPxS6CbWA8MJBrX4IWHr0D154/CizT8dAN0Ow4v1R+DjzwjYXlo/iZA0OGXVEhdAEIEKXQJCnsK1ieTaIYBr+WT802aeQ9aE84YXYQfThiAEh9PyKRb5tbmBEkqB7YzE2kHFkgwYqa5EU2rlsKfakGsshyWEcSCZ/+HJS/+FZHUBnhNoKpCR59eYtMRKdo6A8xKkIkOhqfrflgaG4trPwzitWQ3RDVTTNcGqbBF5GmM6eHB3oOiQNqD4ngAAY8PT79XjVmrW2RuJd1NYiGcGIhyqw0XHVGOE8buAY9F3n536hQ62L5322E0FLebbaPVTOP1eSvxl6c/wOzaNJqE3YhJiCyLZgCRIBAPQReLw0YbgtsHk0RnsSC8RaWSgkjbRJnVht6pBOpXtsKy/LC9dBUYYhlgKDF8Ji4+pCtGdffhs8+b0K550aUsgmV1Kfzn7Xo0ZdoRtFNIa34kbT/8WgpGYi2uP7EfvjOqOwzGwBDQ7mKXoQII27cSN7u7o4th6eoaFMejqIgyl50uYvXyF1jkO7k5J33ROeI5UdCWlYGZSsDweKEbPCWStMiDZNNqvPTfS1H7+dPQzDD8ejN6DOmJmYkzce/6/WH5uyLIE63YEEw0az5kdA0h0wRptfjbVk8abXoGfhMIMj0qk8TQbgFcOrEXRnePOrn2fJ6YJBkgxX+/XVkM+TOysUiSQ14D00TbysVYNO1xNH72LPoVNaK4ag/Y8VFYNftzLJv9ErxmUgBC93IbvXpJiR1nTYnZXxisYHqCWOjZB3fVHIu3Q+Nh6j4kNGfevHYGSc2PYqQQ8KThhY6exQmcPn4I5lRrePSt5WhK0b/AEy1Ptg5AqLBT+OWR5Th+TCU8pteZRy4dFUqyXe+0rAfHcATTtvHJsmX4/UNT8MKqIGxfGE4ksQGYhHY6tJAPWiwMW2dUyRb2Z02HJxZFaTSMIqTR4rHQzpN9SoO+rBGlxJNeDT4GHFpeJOlS8mXwq4OqEPdk8N9py1HrsfCdYcU4bO9BuOGRJVjQ1I4AmP5oIKkFYCCDQHoDrj2+PybsWQWP7qbF71p9oQDCdi3FzW/eCBCIM3XUtaYQ9BmIerPGKwUQCizxndycRdTvQYabRrIFzbXrsXLxTGj1c9Clqiv8JT3gi/aBEahAJtmKFx/7A6qXPAWvZcPwtGPIYD8ygf3xwspxeLZ5P7T6KhGW6HrS73gkSyGlZ9CmWYiZBnTNQrPHRKMNiXweGLZw/ncHYPygGCIS/J5NjZF9xIna/jbZpyVTjSZgBhVQwTKVzMzAbG+EnWiX4jir334e8/53I0LplRjZN4NISIdphbFspYmldW3CWaCbHnQvN9G3RxYguPuyRuZEZ42tMfvh7sazMTn2XbQaRTD1pIAxj1TUNFFsm0hZHrTqHuzhb8CFh/dFY9KLe99YhuWmT5RWsUU2PRsJTUeVP4XLj+6D8UPiwo9iCcmu4wrpTGQ5O/kN2/7HZYMS6fJbWpPALc9MxQNvfoTWYG/AF8sWUnLSG+Xy+oCAXyw4Gyst5nVD06FFI/CXFiHk9zDSVAqsJWwd3pWNKE8Cfq8ny3LqmIGChokfji1Bt3AIf522Goth4ux+xTj1oC647sn5+Kw+g1KTYTIGNkjSCjMZWnH9acMxdkCRAATRJbtYXyiAsP3LcZMW8gGCk+ZIJkU/4opJscCS3jXN2RZRv4621jqsmPUyFs59G9Vr30Xv2Gr071UCPRiFHegBb6AvYEfxwdvPYEP1R47fWQdG9Q+hvDiM1enRmLx6AqY1D8AKrRQwism5Bx+BgsY0KQNp2wu/bckJlSfV4VUGzjmgHPsPjCJq0GVFF8WuPWHsmlnY+FTZ0DW6deh3NmjpR+OqxVj01jMoaV+JktIK1C36BCtmPA+fJ4Xh/SB8+FYaWLpKw+eNtgQIMmWtW5mJ/ntkE0HyyzU79mo0aFX4T8vJuNd7FhpCcZTYbcJgSfNxkTeDEWVx6UNdxkb/Cg3HjS7GG59swDNz6rEGAYlWL7JSopgILYaVJnD1iUMwtCrg5OlrXAFMjc1ahXa1cHfX59NAY2eQQBr3PP8+bnz2TaxqTQLR7oA35gQsZpKAmQAyrJPilFZ3ri29TyQ90IBQEJ54HEZREbzRIqRDEUSqWxFsziDmj+TRnVswdBMTBgZx3IgueGlmA5a2mzhmcDFi0Xb86ZX1qG0DikwTac2HGg9THRuxd6gd1509Fn2q/A7M7wTvtgIIBX4J8gFCytKwYj2JksIojQSz9eI7T45rgYf+7WjOoqq3sHbxe5jx6B/QVPsxTL0e/bpkMHgPKfCLlpSO5hY/6hsNrKtpkQIuTJUyjCRG9w2jR1EaGd3AOnM/zGg4EDNqemJ5SwVqPcVoNegX9cJrCzcfwlYNuvtMjBs1CIftWYHBXQwEPCmQo8/d1DrDRrLLJl/s8QRtJKcxoCVasez1p/Hpw1djn6INKKmIYc26Rqxc0QLDB4wgQAgCZhpY1hEglJvo39Mh1qExxkrboj88PudAn/L68UZyAv7a/GPMLhuAEtsUP3KT7kO5L4Mjh5ViQC/WYzDk/vpVNZjy6QYsbg8gpftgkFoblpw+U2YCZw334IKJg1ARdEh6MmRbpB1J+Ri2bzkJg6GNmkQSF/ztUTz78VJk6FYIFAMWKyiaQCbhAARLAhKcd0nPZgJ1fDq/L9Y5JwAZvgC0UAwoKoFf8yFo+axl9VAAACAASURBVNElUgkPnDRJk4WbNBNVYR2nD4ujZ/citJO/pKkFr3+8Hi/X+KVqq6El0K4F0W77UZxcj7P3DOHHRw1DPMh4lM4B/BVA2L6luNnd+QCBQUlNyQx8Hh0hCUhTVMsFFvdOb46pahZSWDNvGt7978VINC1AxrDRu6uOQT2AlgYbK1fYaGzzoN0CEsLQ5oNmG/AabRgxEOgeJ4ubhbRuoFkfgNpUTyxp7oaParvj07o4EmYIXSMBVAaaUBlrxNB+/TB2v4mIxaOSe0/fqkQ3SxjEt91hbYE1EoT4hjRR7U1Y/eJ9WPjAZRhdkURRJbC2Gli4ToPXC+zZx0Yk5AIE4PNGhxJZLAjlJv4/e9cBXlV9vt9z90pys0hCEggbgbBdiBPEUVfrqFVrHXWgVStO3LNqHVVb90YcdVatishygANQ9h6BhAQSMm6Sm7vP+T/vd865uYQwgkjFP9fHh+TmjN/+3u/9Vs8uNFFLWkMEmq1YUWWHZk0gMz0Of5qCBkcpXmk6GW96f4MGTw5y1SAvhVNVUWxvQkGaBRanA40hFQ2NUVSpbjRbXHBSCVVVWBQ6oybgcERw3wldcNiATnCx5DfDLyWDHn1S/j8ZiX6GLawxtbmKqkgMf374TXy+YB002pE0B6AyQsSIFuE4W23Q3B7A5TIcTtpT4Oh0yLlJQGkOApEwtBiZBzqV2WD1ZqMorxf8Dj9UzaqnVrbE4NI0FCsRZBCX2NyIBoKobfah2maTsNe4JYQwHHDHrejrCOCmM/pgcE+j+NrPMCy78sh9AGFXRm0797Q1MVTVNiLN44bfrVPC+xLZ7OYB38OP08Prw6hcNgXfTLwG4cAqxGxAtwILenWxo6Y6jFWrmeQoDTFrFHFbRHyiHDE3nJob/fsBedn1etY2Q7hzzYSVTJQ19sXslTbYFBVDeriR42mBxRFBet4JyBs8Fqo3RxzvSETTJ/GXoWPs4Qlo8zozfJEGW5WDEg6g8tMXsfKl8ehfGEVuNlBVAyzZZIfHqmFoSQJuH5CIayiraAMQaGIoNvzYFQXR3AOxOe9IVDZE0VS1GtbNK4WhWIBeeNd2NhblDoPTaoVH/Abs8GgRuMAwVBVRsgSKE2FF9yugqUiyY6hheLUmnDS8COcf1RXZXt2sYGb3M2d139zu+rritmLp5ZpoHGMfexsf/7hGah9AcQMWh5gLCAxIDWl2N+DzA960bR7NjBBS0n3QfE74okE4WgLQmpoQbm5GOBiGFtbgSitAoT8fHivTbOvlm10JGpPiaLRYEdW8SEczXAkXEkoCUa4vJQa7GkdnJYIzD+yMs0aVwENf1V/Qzt4HEHZ9HbZ75xYAQVWwYXMD0r0eZNJTdh9A2M2jvecfJ1l6EUX5imn4+rWrEQmsQsKqSrxzz67Axs0JLFmtIKTYoFlVWNUELKqegMWtAaV9XMjNbYGixGGLK1DJbDKHf0xDZVMm5q+OiXfz8F5+pHsDCDtisOVdgszBt0L1ZkFT4rBqLqNU8J7v/y/tjeLayfh1Zqy0KtCiTSj/dAKWvXwz+hU3ojADqNlkwaJqAgQVQ7vF4ErbBoNAgFAkuQz5UMT6/A7WI8Yh5ixGLNiMWEMVmjeuxrLFC/DxIgt+dB+Cjf7esNrtsGkKYlKUh0l2yWrYEVZcEr7I+SQIiGo0HjXj+D4+XHh0b3TNluTLQm9LjgbxdTCQ3z6EsOtLzfBBoIfIhC+W4sH3vsDamloo7lzAkQZNIn5YZ4NRIw4IYvSlw2IxQk3bglBm30z3QfF7kaXE4dNiwgbFEwlsbm5By4aNUBpD8KRlI9/th9PG3Bis4kmzUUTCWjUGKfM+zQurFkfUEhMiIzPeiONL03HOUT3RNdtl+BXtetd39537AMJuHlEBCEaaTqZHaUmosCsKnPRUF4DQvg+CHjrX/mdXzoptPW9XnsVW7dH27e6Xbav1qY5obYbeSIgo30quHRkDTfyZ6ERWsXwavnhzHMJNy8WDvldnJtmxoKomgcVrgcYYEE8ALpsVdktnxK3N8FjrMbAXkOeHeClbVA0ba4F4TEG6E6hXPVi6oQU2KzC0hwt+lxsRRwCWgj+j08DboHkyJeWvonp0p6mOLpjtjet2n7Wd1bQrC21X7tlG++iNIfUNVFV39Iu1YM1nr2PVy7diQOfNKPIDtRsVLKrRAcLgbnE40wE1Sh+EdhgEAgRDA2zKOxg1xaehLp6D/E4FKCgdLiFx1T/MxJSXnsSi5p740X8QNnsLoDgdqLWmI6o54RNjRwhRgkDVCY+mSChlWIngyP65uGR0MfpkskQT28yQVF1n1M8NY16356rU0fHbwX7alcft8lLaxjx2tA0GlDIyVnDU9OgPKbgkmzeBmKri+c9/wAPvf4HyxhDg7QqLwycmBtnLBGXMN+Ami5AOhWHK7ZzPUtMjzQ1XZjp8Fua+UCWKqYHXhqKIV28Empphgw3ZqhU5Dh8SNh8SShgWzQGvsEcJSYoUsZBVaIGWsACxBE4tzcF5o4vRPdtKF1thmH8h7gfG2cdR2vfZbSOgAwRdpMYSGjbU1Ek1xwwPq3TpC6C9z65skO01es89b0eQo/2WbLN9qZK5bQflVXtmufItLLbE7cwwNklwZ0lAVRTRVquXzMBn71yFaONqOFQV3TrH0aNEQTTswObNdjSHPQhEE6hvrkUiwYp9cdisUQzqa0PnDGbSU8HQ+HmLLajcDNjcKqw2C9SwBX53HKX9HEh3awg74rB1ugA5A++G5s3VEwWrdiPvwe4ci208a3un1S69PrV+cpsJ1jdOhz56Zb0EbGpCL6ObCGP15xNQ8fz1GFAQRF4OUFkNLNvoQJqiYVCPGFwZQIIAoXzbJgYuw7qwFUsqM9EScqBbv3wUnnw9PH1GoWbZbMx/ejwQiSBcPBJfOkZhoaME6+IuNCSs8Elq5aikzLIqNuTYgT6ZCo4amIeRA3JQkGGBU2JhmPSgHSSwJ9f5jnBmO1Oib9Ht7fv251G/o72/tVciSV8G275HdyZlpU0+kftLUVlEiSnJLBJK2hRK4E+Pv46P5y2DysRIvu7QnF69JoNh1mHuA7g9sHjTAZod2gkTlowaGW4omekSdkyGiF4jzJuqRVWgejOUcAJOqwXHdk1HD5uCBRsiCDTHEUlYEbHaEdcUONQ43FocPpeCkk5uHDkgG0eU5qDAxxRNtIvoGTS3oUN2aF/srov3MQi7aySN52wBEKgh1jchzePSwxx/lSHq4oXX/ijKgd/RQ397g2RkSOvAnOkt25Y6pmsSW+EQA+BJWlxW/SPaZ/S0hXZuwJpIoGbpVEx6dxzCDcthp4NavoaeXRipQP82inE3whEvVi6vQUOAFeEUWG0JDOxrR2EGo59VhFUFi1ZbUF6t6TZSFmqOK/B7Eujfx4McVwxxuwX2wvOQNegWqN48GWorvfUNLagDQ7Ed1zc9c2D7Hz2ZTPsfs4Bue39tf00YunI7N4hO17Hu8GrmIGBoIP9N8P8WrP38ZZQ/fy36FYWQQ4BQAyyr0gHC4B4xOLcHEBjmKJkwgfoWYOk6OyIhBSU9HcgeNAbeAy5AXTCM+c/djKzIKnTtkY26Ppdjfe+LsbwOKK8LIxwMQY2rcLhdyM4EehS40LsgA12zPZK7QnL1U9u1cB7bD6vb9ljsaIx29Pcth5h93ZaKKExKe/tje7k2kq9v268dnQXt7XujNGp7q4Xaf5KBISkQh6ZSKdNLMtsscdSGgdMfewczFq2GFN/w5AEuZkPkmtb3NpNXWVweaN40+b49jCrHW4YHmp9mCBVeKRENxBQL4tEI1No60BHJa7fikoMLcGH/LNRUR7C0MoTymhDqW+KIqRp8Dis6pTvRq8CDfp1dKMxxwOswqoMYJaL18MaOb4Of6459AGE3j6wOEPTNQITZGE3AYbPAY7EI+jT9kbb414DKZmpNfcPqJgnxY2uF0q2tlRelyF/jZ13n1eubm3s7dcHJO0z038795pGQPLiM92x5iBhtS7IlekrTrVd2yqEgml7ru9ueI617wuhzSqOF5JLf2wAESZimCjNj3q+ztObgGCFrxl/NRybfLd7v7QyutNPEPXSJBgKNETSqQIbfBa81guYN8/Dj128gWL8RaigEBwJIczYClhAsdhVujwN2ZGP1krVoaqhHzBqBxRZPAQgaIqoNZU1dUdHoRjAUQ0IlW2GF1wkU5lmR50mD1++Hu+BYpPU5EwmnX3L5W1lCWtgNo53mqmgjG7Y+aLY8hM05JdiQFWcMW3Is2/jUm9OQXAvUlOXOrU+0lDQ0yaWuNzOlDVusGX2tmF1IXZrbgx/MZ9AUboHdZdXLJkcbsO6ziSh/9hb0LW5BTm7HAIJEMRgAIRAElq9VEA0BvXpoyC5IR6LoBLRkDcKCdyYiu2U5+naPwLL/eUgcey/Crly0xC1IxHT62mK1wmGHRDA5yDyJn0HrWLWtr9VqYWhnbo1BSN0n+inRqmWnjnnbMdviuDC2k75VjPloO+AGuG9dI61JhORsEA/+lAakvsDsY5u/61CudRXIz8kOpayh1k5tsSa2XGYcS5po6AJKxkBFLKZiZVm1pNgu6ZyGqMWF8575GJPmroEWiethji6PcT7oa158QGxOPZJhGzhYKoC6XVB8TsnFZZOQSD0sMh6PQ21slEJPmWlOjD+0CGOHFsBlsSIIIBQDwgmaJpkoDXDbFHisgEtarafqpFmEoIbsZHswaTeLqA49bh9A6NBw7eTFBkCIqMC6TfVIT/Mgl3kQjN2mC189HWhyn+m/GqBAPywVpts0NlvSEsR9ucUGMtukb7/kIZ4iJ1vpwBRiUH9Zsh1mFjF+bRQO1t/DjF6CmPVThQtdNpZZbUwAjJGCTOg+syNG3ZktXmOCnlbUk5pvnM/mc6X3GgW/URlREstZxDNZDkH+rJobXG+fjBXNAizNK3iF9zKsjEVPdK9mq9Uq98kmtFiQSOjtYLa9OL9XFPk5Fk/AYtU3bCIeh81iwcb6CCZ9txJpGWkY1jMb3amIxJolzbIEy8cI/sJIaCGpzmi32RFvacCM9/+JqrJpsCIMq1VnEDqn0y8lgZjFC+9+d0LJHYU4NWCVINIOq0VPtGKxxmFhJSZrJ0SQjYTNKmBT5WHHmvHSVr5LL0oTS8ThYB4FSf+swma1QU0wIpzsqRXxBMeDxYosiCUSuh8E+x5Xpb8EHYk4TR1WmWfaXh02K9QEne402OQZ9Kzh2WhDIqGPmcWqiMbMf/U50H/mXJH1lb9LykMNNos+B/ywHSxII+3jfBjhiuYz+J2+FrhuTBCq/2zOoxpXsKBsA1Zs3IR+JV3QNQOo/eItVDx3G/oX1SP3pwCEZmBlGRALaejRDcjNURB35qPJWox188rgUJvRp0cLbMPOgzrmTqjeAiQsdrF/Uxkg/U3sRQdGOqJKv9l2aouq3meOiYAJ9jVFGnMMdZ9mRR9POtCRxUpoMme6p76mZ9xTNf1nrlnOFU0bVisScVYV5PxYZJ3wffyd64Rrgw+JMjeD3SYpiROxBGx2m8wxEiqcdhti0ZhUFrTb7YhEovIOAp+WSBQ2o75MLBKDw+nQozeicThdDsSiCVl7TrcD0XBU2ut2OhBsYUpyKxxOO1paInA47LI+wpEo3C4HX4twOAqv14VIJCZtcfHnUERCF71uF4ItIdmTXocD9c1B2F0OuGw2NDVHUdMCfDJzKVwOOw7oV4DFTSE89NZnWL22ErBlyOFG8w/NUvphaeQ/kLnYxvmelNpmMS3ex/TmNEnYoMTj0Ox2nP+7UbjyoCKUZpEmciadTlPxkh65pEkRMZ7tFjExGYe6AHXZXTspaH7+y/YBhJ9jjE2AoCmo2NwkGzo3jZ7nFkSiUbhcTiSYRSsWg9vtRjQak83sdLkQjUZk3TqddoRDYTkYuDlbqKU6GAlhQTgUgtvjEsEXiYbh8XgRj8Xkefw5FG6RZ3i4mYItuibjcKC5uRkOh1MO+qamJvh8PlmOwVAIaT4vYrE4opEo0tN9aAmFEY8nkJGRJvdx4brdLjQ1BaU9PFT4DI/HI3usqakZGelp8oxwOIy09DREwtHkM/h37r/0NB8a6hvlIOLzAg2NcHvccgg1BBrhz0iHqibQ1NgEv9+PcCSCaCwKf4YfjfIMDZn+DNTVB2Cz2eDzeVBbWw+Pxy3tqq2tQwYrswHyvOxMvxxywWAQWVlZCAaboSY0+DP9aAgEZWzSfB7U1QXgdjnhcjtRW9eAtAyPbP5AfQP8fh9qI3b8e8ZqrC+vxyF9s3Hiod2Q5aMvALNdRHS/AIVFkxIkkCV9b7SxHJ+9eS0qV30AFwWvFa0MgqYiYctCxtBHYSv+HWBhAhc5vZJ6Fu3rAtbiFlTWNEG1qshNT0PtpjrYPE7YnQ7U19fDn5EhwqW+vgG52dmI0DYejiA7OxONjU1y8PkzOWZNMu5paV7U1NTD53XB6XSgZnMDMjJ8erbAhkZkZvoRjcUQbG5GTnYmWoJNiMUSyMrORKAhIGsyPSMDtbWNMoccs/q6gMwF57G+oRH+TJ+sx2BzUMY6FArJwZ8rbQqIoGK7a+vr4HQ4ZR1x3H1pPpnXurp6+P0ZIvACTU0y56FwSNZUVpbeLy2hIjMrG3PKAnhj+gpkWTw4bmgmcis+w8aJN6C0oB6dOmhi2IJBaAZWlCk6QOiuoVOWPiGq1YrKijiaIkDP7oAy4Cw0DL4DcV8+3BkeNNY1wuNS4OBa2hxCmtcreI7jkp7pQ0TV0NTcgk6ZPoSCQRmb7JxsNAYaRT5k+P2orauXPevzebG5tg5pPh+cDvq3NCAjPV1KRzc2NsPvTxPBHQ5FkJ2VLvuGZwvnsCGg7xGvz4e6+np4vG646EzJZ4g93YLN5nxHY7KHs7P9aG4OIRqJIC87E/W1dQIYuS9rNtfJPLk8LlTXUfEx56pB7ovE4mhuCiJHntEiAj4rOwP1ddSwgazMdGzeXCdrjmuwjvPt88HmsKKurkn+znOL+zw7OwMtzWHZ/5lZ6QgEmqTPfn+6rHOCYr/Xi5q6ADw+N9xOOzYHQmjWXHjvq3LEo8ARA9KxYFMVnvp4CsqqNgIuOii6WKBBNzkYyk4yQZJoa1uzYdyTgk+pMXFDCntgg2TeYsKyKLOfAn84+gD8dUQJhnVOh2p3SjGvth/hQRUgLkuJAMGEA7zYAAi/ICeEfQDhZwMItFEpqA3GsLm2ATk+j3jMcqFnZvLgS6CxKYjcHD+aW8KIRikEM2RzcLGlp3lFkFIQu11uNDQE4PW5RTNoamxGegY3UwLBYEjui0QjAj6yMtLR2BwUjYLPCDQ2C+r3uFwiMF0ulwhSESzp6cIQcFP7M9NFkIbCETmMidJJn1E4NjWFZN943G55ttMACI3NzfIdNYBQsAU+r0e0VAIer9eDSDQuwt7rcYvA4hbwepxoDlKbtsAhwCcs2gQ1oVAoAo/LKRuXGoXH4xSAQU3V7XYiHGFQG+ByOxAOReW9HB8KHoIeAWCRqDyPH7aDQEu0YQIwp10ADLeh08Gf6dRE3wAb4lE+zyrt4jhQc2ZexEQ8JgWYyhs1vP/tJmSme3FgTzd6dLLBQZulODyF9dBD1YaEJSbOjTY6zAWqMPn167Fp9VviZa8DBAWFGQpsDJOyZcE//BHYi34LKIymJw6jIyRFtVX+tYnjg4KwyrSsGhzU3JmkhYyJRWcQKAR4czwWh9NB1kDX+Dk2HD/9Z7sc4LyHGlw4GoPNaoHVwp+jcuByjjlmdocxZnye0y4sCueE3xM4ULjzeaGIPjZWiw2xmP4Mrl0+g0BEH/e4zEc8poeFeahRch6ZXMhhFwFgsVjlXplHh00ACNcLBQnbHpF5dEhfuG8IsLlf2Can3YmZaxrw8Q+bMaAwH4d206D98Bo2vHIdBnQO/SSA0EATQ5kNkbCGXiVx5GfqzFnComFdmYJQzIk+JWEog85G8ND7EfV1gsNlR6w5Bpddgc1uRSBE7doGlmIJt8Tg8NBhTUM4HEeaxyZzFk/EBcwTnHMSqI2Hwrq2znHmWHAuyQQQIBE4iBN0NC5aPFkYGRcHx1nPDMj7Yly7xvqOxGNydhDAcd1zzVBYcUwddpuwG9xnnAcyFpw7u50sm864cW8II0FTqUWRNcY9K745/JkIyGA1+Hf5mWwe84tLdIHuVysMpOmpL4qUDoqFXDG+NxlBqWllsINS+thILa6bKnUBy3fIXgBAxnbJhmZU1EfQvXM6MjxxXP7U65g0pxwJmuXS0qA50nTmgNSWvIB6gAOK06kXWduGT4jF44Lb54bLTgbFBtVqQ8jmRCSuQq1vghazIs9rxS2HFuPCA4uEyZP26hxYUsqIkZUmC/o20URn+B4J49nGFPpziKaOPnOPAwShq1PKWIqd3Zj8X4J3RmpQh2DJXfEYMahCUokx2Sgq63vIkhaKPEmd69S4bmrQv6dg5+06jUg6Uafwk+Zak82Xtm3tg2Da6UxwzMtSbZMS5d0OSG534RjWAtMfoqOLa4vrk8/a/pCm2uDaujVsAcjbM7MYJht5r3GxaUUxhlxvUooNtr0+JUk+Y2+z+l5tUxSBuA3+DBs8tgQigXVoKl8FxUpa1gqfzSFpV1Ulhrgakdj8aFMDvpw0EVVV3zBDP5wWDaV9FBT46b/Op7qQyL0U8bQjYbH6oNgSsDpscFgdcEsZ56hkhdUcflhz+0Ozscaj/jGnMHVMdmS/TL02dfhS7cKp42Gam7YyHBsvTz36UpdUu1NjvERkSpsLzF/NdrR3v9mutn+LReJYV9OEmMON/GwXfPEmVE16EatfuhEDCsIdBghSi8EY3QBNDKttiIUS6N5TRaccBYo7A83uXlj47Wr4EiHs1zUM2wHnAMffi5gnH6piF4903UxHNzp9wbX66etmk9Q5bG8NmmRzR/bc9rb1tsY2lcxO9TGRaUpdZMmf9c0j/TP3mNnIVotlq3tC6hm1nc3XVtmW/Woq1Nua/DYHApm7EO39VsCpxBEIhXD2o2/i8/nVUDQntPRcwMl0yKnaOh0DvFC8PgGq7X0I+C3pXqRlpcFjsHrkDQOKghDZg+o6WBJ2eK3AuJH5uOaAAnhsrXVStt4bBAlGG3Q7rr5ifoFJUfcsQDDAgXl+m45wFKAUiJI+9n/4McGL2QRqMrvjs70Dr90FqapC8XGTOJ168oyOfJJ+APS0FdNDHC6nU7fT72SBH46Ffm8MLrdLNM2f8qHGR+qT2o+ekKRjffop7/6p95o2fbGDC0UYx/oVX+P79/+OaLAG9ETrkWdD93xFQiHJ7FgSccQiCfy4eB2qm4NSrZEcQWkvG/KyKTAS4nPAMLrK+lxJrKM541BsdvidDvTp6obL4YZFdcFScACyBo6F1ZkJK5Uemcef2qtfx/1xbq44+RaFhRyhRRpRMellrHhlPEoLWpCX3TEnxWQmRYuGBpoYVnuFQejWswWdi3yw9DkZTZ79MfeNZ5EVWop+XQHrARdCOeZOJBhlwgQ5Up1Tj0pJcQn+dQz4L7gXuq+UodTRTBlOYOxzH+Cd7xYjRjourRBw+I0eGA7K3NN0UPSRTSXzuPXGkmiJDC+smWlwMiumFGJX0EKAENaA2lpJvZzttuHWkcW4aHCuzjQIO7K9AdsZqPi/HfA9ChAobMrXr4fD6UTnggLRljds2CA2uJ49e+pU6f/wQzt1dXU18vPzDYG6ewBCR7vEcfr666/F6eewww7fpXExwc6KZcuwbMUKHHXkkfCmMZ2o7pi2ow+F+dKlS7F48WL85je/EVvhrn7YliVLlsjYjhgxwvCl2HEbdvV9u/u+JKskPo10AougfPkMzHz9eoQDa4QL6FWgYb9uccmeqFlo6+0ENebD3HlrsCEQkhBJ6i6lvRzIy9ad2FRVQWWgCNV1foTCzWiKbUIwGkSGS8GgPlb4XU7YVDcshacic+itUJz5UBJW0ZB+QWbK3T3cHXoeAYJFznqGDSoCEMonvSK1GHYdIOj6P00MS9e4EY4C3XurKDpoDCwHjUVdpYqFz96AzMhi9O+mwTrsIihj7tgHEDo0cz/fxbJftTgiqgUvzC7D/W9PQsWGTUBaZ8CeSw8h8RWShcOp9roAX5rOMrTnIMijyp8Ghf8jAQcSAhRiZCwigLapCgg246jhvXHHiEIcnEVnXFK/jl1joH++oenwk/coQCAQePvtt7FmzRpcddVVYuN+/J+Po0/vPjj99NNFcOievroQMw9mPdzPoOaNLrb93WSyTG/pttr/tkwHqe9YuHAhPvnkE5x77rkoIIBJsXuljmzqPeb3YibZScZBTAm084l9zQjRM9EvbWmRCJ599ln5+9ixYw2bo26qSPYr5fokE2PY5gREU9PVNEybNg2ff/45/nrVVcjLz29lENrcnzqe7AvtkFOnTsV///tf3HnnneLgp4Nz3STEZ0t/25iLCCxSx97s5+eTJ2P1mjW44IILxDFzb2MQku1l35UoypdNxazXxyEaWCnmoZ75QLduQF0LUNuciQx/D7hcOVi0bBlq62thVVrgZclmAyDwoCFR68w4ErD2RrilEes2LcWylcvhsmgYuJ8dWZ5Gie+3FJ6D9GF3Q3F2BjQpHr+PQTA2Hi3JzEhJUy4rZuKnAITUYk0a0JJwoKw2H02BBLoP6IScM25BvOQQVC75Ease/wtyQqvRr4cC27DfQhn9KBLegn0MQodF0M9xA8OW4miKAvd+9D2en/atODLD3QlwZurplSU9KiOErLB4PFCZaplF1doBCBIH5PcCfp/4DKSpMTgTcYRicYQCQSTKy4CGWhwwsCduOXoAju2TKz5RdFrem8659mZijwIECo8VK1bg8ccfxyknnyw2ri9mfIFLLrkEmZlZmDfvR6xfvx5OpxODBg1CcVER5syZg+49eiA3Nxc/zJ2LnNxcoarJPFD4FBYWonfv3jIR5eXlWLRwCAnaRgAAIABJREFUoTjj5eflYcjQIaipqcGqVavk2oaGBgwcOFDuoUZLZ7Ta2s3iNXzwwQdj+fLlcu0RRxwhf6+rqxM2Yfjw4eLcR0egVatXg0DCbGNGRgZ++OEH0Y7T0tLkWr6nsrIyCQL47kMPPVQE/qJFi6QvjAzgWNBxq3+/fsjNzcGihYtgs9ulf999950IUo4N2/jjj/PQ0tKCosJC7Nevn7S1oqIC6enpGDJ4MNaXl2P16tWi6R9wwAHIycmR90+dNg3/fvNNHHXUUQLI+vbug/6lA1BVVSXsAFkTgqGDDjpI2s2+MDqhR48e2LhxIyZPnowbb7xR+kPHp149e2LZ8mVYu7ZMHJBKB5QKUFi7Zq0wHhyHoqIieR4dIWfPnoNQqAVlZWthtdpw2WWXwethLPLewyBsCQ7pgRxH+fJpmCW1GJbKYdNLajFYUVGrYkkZC0JbJJSMzmGEAkzPyriIJIMAPcmQaqXhwSeArKYpiGUrQnAoQGk/CzJcFlgSPqD4TPiH3gzFVSAHWJxOkGIp3zvHcHeKBAEIDInVWNdCgRYmgzDBMDE0d8zEQIDQVU+BLc53xSOhll6MuDUHDjLQnYcj4nCibsmXqHr5PmTUl6GkcCNsw08Gxjy2DyDszon9Sc9i3oE46oNx/P6R1zBlyVo9YsGarkceSPkLGzQWbrJ5xK9EY6pl0frbekPILoXmdUJx22FtaQZCQSSCLdBaQkCohXGwUNxuZGZn4bYxg3DRyD6wOSyyR/83HPRPGrwtbt6jAIECkiFw//nPfzBr1iwRqBRmxx13nAgmaqsU4BRGvPa3v/0tnnziCZx40okYPHgI7r//fgwbNkw8mN9/730cd/xxIpD77tdXPNjL1q7FylWr0NjYiG+//RannHIKNlRswEcffSTP4HPLy9fjlFN+i/fffx/9+/eH1+vF999/jxNOOAGlpaUiRCk8qcETKHQrKcGgwYNFWPO5BDcUvAcffJAwHwQM7Eu/fv0wf/58ATYMVfz000k4+uijBVh88snHuO666wVUvPbaazjyiCPEhJBfUCAhfNWbqnHkkUfKO9n/AQMG4Mcff5TohXP/dK60v662FoVFRVi5cgWGDRuOyZ9NxoDSAejevTs6deqEN954QwQzBTv7kZeXJ+2cMmUKXnjheZx44kmIhMNYsmQpLrjgfBHQ68rKUF1TI+3/61//Km0iyBo6dCi6dOmCDZUbMOnTSTjmmGOwYP4CHHPsMUhPS8M7776Lbt26CQDgXBBETZ78OY477li5n+DqpvHjMXPWLAFcQ4YMwYIFC+B0OXHVlVfpoZF7K0CgpioAYTq+fv1qRJMAwYa+hT5sqI1hcVkL4qpTBBepzrhVg2rR4FE0DOzlQqdsepeLi7ZkXZQDSAFqGoGly3mwWDGgP5DhZhGiDCgECENuguLOMwCCKnnb9wEEZrjXDIDALJdWqOEmVAhAoIlhFwBCFx0gUEwk9jsVliNvRTytBxCpk1K/lsYKJKqWIb7kG1hqVsCpLoQy9FTg2AeR8ObvYxB2n2za5SfpJgYVtcEEznh4IqYvKdNNgxaaSQmqGQHDH5nLQAcJTJbEmMP2kj7LamA8InOeRML6v7yf9cMdLsDjAjJykOHx4cZDu+MvB3WB06bAZiQ+2uWO/AJu3OMAgYcihdI999wj4VbXXnstOuXl4fXXXxcN+Y/nnit+ChR4J554IiZMmCBAgcCAVDcBBTXsb775Rn6nBs/wHT6XGu+8+fMkhnrGjBliO6dWPO/HeRh/03gBJw/8/QHR5md/Pxt/+tOfUNK1Kya8+qq8m2YPaskrV67EI488gv3220+EfJ/evUWzbw4G8dKLL4oAJKDYf//98eKLL2HdujIceOCBopFTsFKLJztww403Cuvw6KOPomvXriLIlyxejINHjMATTzyBkSNHiufqipUr5HlvvfWWtIFC/8UXX5Q+nXTyyfjnP/8pFD/vX7R4EUYcPALz5s0TcDP66KNRWNgZE155RcZl1KhRGDRosMRNUyuliWHSpEm4+uqrBaAQ4BwyYgT6DxggzyAYIjC7/PLL8dVXX+Hwww4TYEQTAk0M9913n/SJZpdDR46U57319tvShkBjQFgWtpeMxg033CAAgUCO/eB7CeAIAGnmoGnpz3/+814NEPTIqAgqlhEgjEMksEwOjx75CrqVWFDVpGHJWhWRCBOoMBe/Lvz5vw4Q3OiUE2UApe5MbWSTZbTLxgCwYpUNdpuCAf1UZLpVWBIKLEUXIH3I7VDcBRAHBCZZ2AcP5Pik/4fJICQsVmEQCBBWvjIeA/KbkcdESazFUGU3Ui3HhQ1gBkbWYljdwERGVBytKMxJoGeJbppm9kyt6/5QB1+CqCUXauNqJBqXwlu9CkpjHRAvBxJBWBhuOeBc4Li/SSpsqeK3z0nxfyrahAMgQAhrOO+Jd/HpnCV6DlZXFhQCgngEiIeBRMQIu9QTwul5Edpj5VJCx+xWcWi0ZWUh05+NFrsPwVBcSklnWK24+YhiXD4kBx4b/Rvad3r8nw5OB1++RwGCxMNyUycSIgCprVPwUHAREAhA+OMfxczw5ptvCkB4+eWX5d/hw4bhrrvvFs2d95Fyv/vuu0XYEDHyXt7Deymwpk+fjpNPPhmBQEDMFLfccos4Qz744IM47LDDMHv2bPzxnD+ia0lXTJw4UTThy//yF4nNpw8AhT2F4aZNm4QWL6GBWdPEZPHll1+KCYDaPgVi9aZNOOzwwyX2u6Skm5gRVq5YgfHjx4uDITXzf//73+jUKReDBg5C58JCPProYxg9ejSys7Pg92dKDoFnn3tOABMFMtkE9pN9eOqpp9C5c2dx5CSAIfNB08D06dOEETj77LPFpPDFF19Iu874/RkYddQoWQrTpk7FpM8+Ex8EOoc++eQT6N9/gJgjIkymk5MtAOGqv14l7Tzi8CN0gGCAi4ceeghdu3QRoDLqqKPwxZdf4t133xWTBcFZVmamMDM//PgjbrzhBpStW4cHHnhAxmzSpE8xfPj+OJYAYfJnKCtbt/cDBFFOwti0/CvM+PetiNT9AIsSQ5ciK7r20CQeurEuCzXNKupCQTQGw2C2P+ZBYCz8wL5uFGbGYNP0fAwtIQsagyrqmjXUBIDmZgU+j4IB+3mQ625BTPVDKboQ2UPGQnEXS/ImSbzWwY3+a72cBz9T7nJEWGFPCTWjcvILWPnydRiYH0N2roLKTRpWVSpw24CBPTS4vQoDH7CiUgHz5zDLIcezKEvPmCjZS3lW+TKBnOFIRCzQghVQoutgjTXrceypVPSAC4Bj7ga8OdAUXSjoaXQNgbOXsmV775rRM0u2aAremLUY9731GdZtCkLL6AyN1Rzp55ZguVUDKBAN0n9FEpW132uLwwVbZhZs/iwk0jOgur3wWx2wh4PYXNuChObBgT0zcM9h+RiZY9XD2pknZS/fqXsWIBhpUyl8SLUTKJxxxhlwud2YNXMmPv30UwwePBiVVVWIRaP4wx/+IBovTRF9+/bFO++8g9/97nciOOkHcOutt0lCHgIE2vSfefppoez79OkrtvPjf/Mb1NfViWbO91C4b968WTTaVydOROmA/sjKyhZN+qSTThJmgZ/yigosXbJEwMHcuXPFD4BsAkEIqfLa2lr8OG8esrOyUNylC76ZOQvDhg2Fx+sV6p2mhlWrVopZQc/uV4u//e1vAjyoyVPzf/LJJ8UXoqSkRPpHoPPiCy/gr+OuRpfiLjI+NLtccvHFQtXTtk+qnqYO3kcfDD6XQp3CmsmS6hsaMHXKFBx51FECLJhadcrUqcLCkFng+6nF829vvf0W8nLzUFhUKACB7Zr7w1xsrKoSoU6/BL6TJorfHP8bfD3zK4lAyM/LFwaBYIVmDDIbBAg0iRDcrF+/Dg8/9AiuuWYcZs+ZI2wM2R8yDAyXvGzsZXB7PDsVSfFLPKBEFmkxtGxehQVfvoqK5f9FsH4pivOB/oUK3Dxn7HmIuDIQRBbm/bASjbWsTN8Mq01FaR8fiv1RWLUoYqzgEN8P5TUKqutqEQo2Q4kFkeGOorS/HZnpnWDxHwRH19PhKToSsOckE2Hv7QfP7ppbgQZMFsG0ziydHAmh5ruPsPqN29HHuR5ZuW5UbUpgRVkDHHYFpT00pLsUqbS4slLBpkr6geiCvEumhh4lKdwMfRqYMY/5tEg50CdXaGgjHR4FP+3XQy+AMvJ6QGpl2CW3vg4QfnmZ8XbXuP+yn0OAwGlTUBkM49kps/HUR9+i3poF2N1J5i5Z6MbFghkuwCi9vVXfLIAjPQ35mVmw2OwIWAlGFWQngPqohqa6RhxYnIlrjyjEUZ2sSGcCJEnDvPfv0j0KEEzvfwIEhtDxXwpeyQ7Y1CTCmAKMQpBChfZ0CslFixcjNydHrqNgYvavurpaofUpgDnRpNP1sLxFSE/PEBs3hTV9EUh1ExTwfgIQetmT4qfAZSbA3E6dxKmOKUnpob+xqhLffve9AAJq7nwP20QTBcHEmrVrxD+AtnqmAJ4zd45Q9byG35GNCAQasP/+B8i7CIQoQPk8mkjIKpghhPwb20mgsGLFcgwZMlRSqdLjn++iGYPn0Ny5uvMgzQx0ylyxfLkABKYjLh04UAQwAY3X58WIEYegE5PQKwrWr1snYIrvIZtC9qFPn95Ytnw5li9bjszMTMl1cCBNN6oqc8D3cJz5t8oNGzB4yBDxJQi1tIhpgj+vWrlS2CC2hSYVmhrI8gQaG2XO2M9wJIzvv/tOMuuxTwQTHH+7pIzeS3VgMTEkADWMSLACdRVzULboU1jCZehTYIcvvQuUzIFAehFimorp7z2BqlXfirCw2zQM7ONGoT8KO5gZMQe+vjcgljYEDbUbUbtxDQIbFgIty9C3bw6ySo6ALe9AKN6+UOxMwkMvaz3UUo/P2kvHcDdKF3FSFHMNf2IpTQ1qoArBFV/D2bACDq8dG+cvwKKp/0WGFkRpNw1un55td22lgsoqDVE7C+bY0S0jgh5djRwTBHpWoxgWA6sYR28ON9Nhu9OhdN4f6D0aWslhULJKWbNbfBAkU2ASIOwLOdmN071Tj9ITOEklECmYt7Q2iIc++Bavf7cGqo0AgXtHr6QpANDjBhjGbQj1rV5ChinDB296OgMkEbIm4NNU5MU1VMCNXl7gzkPycFi+BT4pHkeWT88bs7fv0D0KEMyBTyYkSglnNEP/yA7wZ0kFaoQDJkPnUpw+JP9Um6Q/BBxmaCLfRUFN1oGClp74FHgU2GvXrsULL7yAs846SwCKmTwoNVyQvgN8lp6etNUXVU9Jqofyie+DwYqY7Ta/4/epBVj0NasXZREFxHgOxyLZV8mcqCczak3Oo//e9r3m72b72KbU9pp9MZ9jttNMUiRzYISUykJOeS+fldo3sx+S2dEoKmOGLyavM+ZD+mb0gwelhK0aKdpEuO1koqadOgn+JxfRLY4imr2Jw5oIIh6qQrx5IxweBRZnLlR7ERizEG2uwGcTb0Ltyg9pTJCKfoP6WlHop29CAhFLMbKGPgBHl+MlzasWDyHeUo14cwWcXhusaV2gWbOgIE3XTIW6Jjjg/1x7e/vx89MnUNfRCRCYYpiULgtNsZxyBBoT8idasOmbqVj45uPIrluMAUUxODJtiDu8KKuIompdECEWp7I40COjBT2KmbBNQiN0xkCXNbpzu2aF5nADhaVQeo8Guh8FLasUqi1dGGq+n9UFdcFgOJgYkO6n93TfE3Z2BIQPkqR8emr2IGyYVxPCve99i29X16KxxXAOJlCwWqHQaZp5EAzQ0PY9cTIC6R7Any75D+IWFnNPoCsU9MxJw5n9/TihswUeesQolFssG81CWXs/iP+fAISdneifcp1kAozHsWzpUtG0yQIwooACShwX582TaAGGHO777BuBnR8BktMU0Xr9A5bwpXBStLiey13KtrIyHxALbMAXE27HppVvI2ZrhsMCDO6toDBTt2FHrH2RPex2OIt/A1i8OihUmIkxrteEEX8D6iw6b9DKHujpWfcBBF1P1HOVM0+KwPJkmm3dmz2BRKAaDQtnIbRoCnJcdXAVFkJL74T1X3+Dsi8nIW4jJ+REDz8BglGplIiArIGZ/9abCa2gP5Qeo6F1G4WEvxssjgzAAG5WCgNDILS6unU0h+rOr8J9V257BPRARc59TIBCQrGhCRasbohg0sp6fLawAotXbkBDc0Tfx14fFGZS3IZA1xQVlnQPstJ9SLckxETVK9uLgwv9GJHvQF8fkK7EoSpWxBQbnwgr3y1s0t4d6PirBQii4fIgZ7lbOohJgRP9w9+lyI3VJpXKUj/tJUH6tW/GtgmpRAP6mUwAbRNc7W1jS9pSX0T0etZlNIW96PRSgEUXCjQ/x5o24rsP/oY1819ATAsJQBjSG+icyePLgrh3OPyDx8OZP8Yo1sSiNox60MMe+B8d6IwXmqVcjFIG+9gDXQwwjoH6OsM+SfC3pq8lk8DvOTuWcDPU5looCmPWPVBjYax65yWs//BZWCxNSFhs6OaPoacAhJRCBO4soHAotF5HQemyPzR/H6iuPCQUK6xSkpzhDhYoFvuvwOK8t+3G9tur10M1QxbJJAjHJI6pdaqC8sYo5qypxeSFFZi5qgZ1MRssvgw9hXk7j+SetGZ40Tc7DQd1cmL/LmkYmOdBV68FfkUVVkH3HNYLrJF8ouOsnjhv796nexQgtKasNavltF+dwrxOsim2mTD+jRQ4WQDatbcQ/EZWv9SsiaYpYqt5b1sJCJAoh6rKSsk4SEdCMxthe+1IrSORKkzl3WYxkyQi2bKfBC90qmT0Bv9v75P6fJpK2AbpK8sIx6LiD8EGEuTwGaT+6UuQap4xTRVtn5/MTGmYA+iM2BgIiMNl5YZKKblLZkXMAVvUIjNEVUr2xB0JfPPvnDMmdmJoK6M4dlediz19pLXSl7oTmmKhhkIRRH2BFSDNIj0KlEQIjRvnYvncN7F24RRE61dhYE8FRXlp8GT1FdOCteAkwNFPz5DIp1iixiDT2Y0aiF63QVeLdV5hX37/1FlneW2L2Jp1yzJNWmapI4tUVOXI2Znp1JivGFmZUCMqJr+Dte//E4mGRZKJsUemim5Fhq+aKwNa5wFQ+hwHrcexAgwSNr1ku4RB0qRhsSBCocAKo7+CpDh7ei/9XO8zAUIr86bPPdkk+Ztip8swyoJxTFrdiP/Mq8KmlgRCVjtiW0kcIA0qSnJ8OKE0H4cXOVDkVJCpJODQIlBglwJdOsNHUxdPAh0s7K3J4FLnZQ8DBL2MqGmdS60JsEWqX6EGjVS+ho1fbOaGnZuRCPQtYAIfhjTqGp0uhM3ntGUCUkGDvNfQkJP+EADKysrw3rvv4be/+23yue0JQB0EtPqopj7bFOxbpFM27ftG6uZQOIyp06aKc2L/fv0NVsN4pnGtKZgpvN977z2JdDjttNOkHOv8BfPx3nvvi08FS/B2K+kmJhQ6ZDL0kNEG9A1I9alIll4z2AEzbTP/ZfTInNlzcMGFF0ioKMM3jz32WBlLsi3UaE0crKfA1qldc2ySgCPFd4LlYc102XwHAc0rr7wi0RoMy9RL1u7Nn1bo2qqztsIpvZyrntEtGqpBfflcbFo+BZnuAPK69YUjbxjgHQCIjwHHwhzhVEi8ve/25rHbnW03GBvjkfqIpbAI7Xwv+zURQZymh2WzUTPnEwQXT0euthldevqhdO4NpccR0LodCSWzBzRHFlSLQzgKflLVFlNP3buJ5N05H7+cZ7WugpQ1YVqkWJYcQJOmoLIljoa4hrheWHerj0MDMm0K8j1WpFkEEkioq6yGLZjW9vbuL2c8dqUlexQgMMyO3u5xpp9NqMjOzkZDfb1EAFDYFRUXi+Bg2Bz9BigUi4uLJYMh8xtQEDHhELVPetubBZ7oHc/7mNmPm5/RBBT2rK9eVFyETH8majbXSGgg/RAYMUCGgB86F1II851sy7Tp03HmmWeKxz21aEZJEJBQA+aH//J6eu6zLXwfNWO+m8KZ7WUlxpZgEMFQSPIVMPKAjAH/Z7ZDXrd4yWJ0yu0kWQgZfmk+s0vXLrBbaXumIFYlVTFzQZDduO222yT99OTPP8fHH38sTpZ8LzMt8mfmQGCK6T+cdZa0m20j+8BIBEYXMFdCpt+Pqo0bpU9sB0MmGeXxDbMpXn01nn/+eYkgYeImtonjnp6RjpKuJcmcE+wH+8yoCM4h+8QIh2BLi0RAsM9du5ZIjgd+z4gMAoQPP/gAeQUFGHvppb8CgLDj7dYKHOPQEi1QWwJQElFYXR5o9jRJs0xN46fVydxxO/Zd0XYEdOArfiPRIOJ16xFc8wMSm1Yhq0sXKJ17Av4SqK5O0CzM+knnx5/P7LZvfvbcCEjeDPmfpmcyf1bQ44dKELmg9jIpMqSRLBV5AjudD6W5+j17twFhx+O+RwEChTa1SH4omJjbgAmNSJEzBHDU6FHIzsqWJEoMP+zVqxdGjR6Nzz77TEAEhR3DDqkhP/fcczj+uOOxaMkiHHvMsSL0me+AiXtY34ChffQidbtdEvfPZ5jCmmmNKdwJOJgw6M033pAQP4IF5mA45+yzMeOLL3DySScJkzDh1QnweX0iLKkBR6IRbN5ciz9feKEAGwpYCtyK8gqcfsbpAmiYCrlX7156/L/LiaKiYkmqRNaAGvS777wjIYMEIUzUROBBwPPb3/0OGWlpgmRpMmCfaE7huxk6ePzxx8uYMf8B0yNTSDPHwqmnnirJnZib4JxzzhGAYGac/OCDDwRsMayz33774euZMwUwVVVWCVNA0Eb2gc8jQOB1ZCSYvCoRTyC/IB+jRo2WjI1kA5jbgG3guwk8fnvKKQLIZs36BkVFhVi3bp2EP55x+un48quv8M03s5CTnSMpnZn58S+XX76FaWjHy7T1ivbYmtTvdFC/5bZNskkG4m/LVrU1EW2lGRiF70VXTWGetnhPSvGrrcURjyU9NFGS8JjHEM0HPGRSFI+tzFUpD0s197TXx7bmoPb8SNqO37bGYitGbwcCckempp2a4+2MYer92zSdGRdtoce1N1/CgJkXqwLaoIagMqc+QxXtbqGNEyykprGOBpMxkdFsZR7NpG/JUvWGKcNcO23Hz4zs+bl8e3ZqfH/lF8mYp2j1bVlk/kn3ICI4ZKQLzQ66OUDTLFDp39puLQbDH0hMVwQIdDJujSL6NYOEPQoQmH6YAohCjgKElROp1VNIUftl8Z+mxiY5NM8+6ywRahQ2r7/xhiQDosCjtswaC08//TQuv+wySV2cnZuLEYccgomvviqRCayzwLwHrBswceJrOPuP5+C7b7/FwEEDMWTwEEkCRJaBm5tJgihYmXaZLAKzBJJBmDFjOnJyclFaOkBCIpks6IuvvpR/CW4IYg455BD5n+CFjMHb77wjzyaIYEKla8aNk3TFX38zC7fdfItETpChuOaaa/DqhFcxaPAgSSy0etUaXH7FXySnAdtshhLyuUyzzMyPzHHAdkpCo7lz5f0cE4IHgqtzz/0TPvzwAwEIBCAECNTmmYWRDAbHQ2ogANi4aZOu0X/4IdLT0pGZlSnZJpkemcmahg4bJvPDdxBMsc4E+0X2hQcrARATKvFfzgfHnACJ43fxxRdj4YIF0k8mp6LJgvPL/AtsS16nPMmySNNIRz+cr1BLCNU11TJ/ZETo05B04zN9I8ywSnH2000hJhVoClFTyLQ9VNqS+m2Fkdzfjv8K+2IeSBQGHI9oOCw5NgiAVRayqqtGc3OjUOBumxvZ/hw43S40B5tRW1sn8yS+L4ZQ43onKCaAI2vD78n6MEGX1SiN3rZ98ZhuRTVDZ7cYYwPoyHdtnVC30SfTdGf2b1sAaWu6taOzqwNiModknViUjeuVzBnHkkXJ2Hf+zrXr83qFhdpcWysJwJiunePNdOtkssjwcS+Y48m1w/0QCDSiU24O3FzLFPg87GUBtWZklDBWvUOyX/RUzkyGoGuNcrWqStZQnltDhwxBL6NgXNtes0/crzXV1ZLALLVsusydEWq8Dzh0fL2k3mHuPf6bGl7eVmHQrcOtjr80lSbolcpaTttpgn6P4aCcBAj6DfsAwk+bu+TdBAjUSplemRv66aeekpwE1FaDzUHkFeRhxrQZGDpsqJ5h0emUmgvPvfAC9h8+HB63By3hEAaWluLhhx/Gtddcg0g0Knn+meiIz6L2e9ddd4l/AgUIDxemamYCJgpYbkQKS+Y/4KHBFMgUdOeff75o+NTmmcFxc+1mfDPrG2EIKISPPeYYvP+f/0i7ePAQoPBdPNRZ94GHF9tKYcmf2ZYbrr8en02eLDUO7r33XikKxUJV464eJ+/pP6C/HB486Cj4U8sgk83gc5944kkccsgIERRmtkKCBdauYK0Jvr9Pnz7SzmefeUYEkgkQKFhYB+Lwww+X9Mn0CWDSqa++/BK+tDQ53MiQsD9z58yVdMsEcEzOxIJS02fMwLJly6RdBHVMXEWhRbZhzpy5SEvzSVIkMjocQzI0l156qQAEjhXvIeC66KKL5D3/+te/hIm5dOyleoKrDn74bqaTZp0MFui6+q9XC6OUqhW3PXDbHhjyd0NAygGtSz7jKz3nRKp2KBp+OxEd5nOkXHeKlsoHURDdf9/9wrRce9212H/4AQi3RPDMs8/i86mfoCA/j4WeMWjAcJx86glYtGS+gFBmouReMB04OX+ffvIpPv7kY2G3nA6n9JslsznvqULbTMjFOSWIGnnoSFlXpqOtjEPbfqTkvkhORQpQMHOKmGOQBFOpVn7jmT9VwPHZ3H/MnMpU5WSzuGaZlIvzzbolLAnPzKDMFso9ymqtTz/1tOzxiy66GB99+CFmfTNL/G8IKGh2Y5VWjg33D1lEnj83jb9BgL/EqUuuDuYl0X2c9DoK+nrQgSBDVvWsF0ydq7tH6aCT5w7rj9x0883MsC60AAAgAElEQVTiH8TxTR1jAkXuibvuvFP2HVlPKhfi12MwMpKXpD3A1sG98f/9cq5VgjGCRQJyni/tOkKbMp7za5EyacIJECHoTNHWI7nV9pdzoxUW7AMIu2n1ESCQzme9BXqyv/3WW7JxTjvtVLjdHtEYuMmp4XJzU+jxkJw48VUcdvgR6N6tm+6tH43hlltvkc1J+zcPEAooFnWi2YKUO7Vu2tK5YVk1sbmpCTWbN4vA4vdMrcxn8dCY+fXXcuBsqq4W2/4lF1+CDH8Gnn3mWawtWysHMjc20x///ve/R16nTnjyqacwZNBg1NRulgONwpoaOftFM8e2AALZDQqCVydMkCqRZjpnClGaG0y/h0BDA5548klBtqNHj5IDiTUVaKLg4UewwUOUPgA8EKlhMjskBYdpYuB3rOnAv9OngFrXjC+/xPJly3D8ccfhPx98gKysTHTuXIhpU6biqqv/KqWh6QvCw5hjSv+Ijz76EAcfPAJHjx6NaCwmz6Qmd9ihh+KDDz4UZobmBjIZY8eOlcqP77//Hk4/4wx53pChQ6XK5XPPPofuPboLg7ArTopsD4EhwRV9RP7+97/LPLOfZC/4TGqQPBwIeshysL0CoJgSesMGMYVQA6WJif9zfZHFMgUCWRz6kfB7Cnh+aPohg8L+mWWvN1RUiBbP9SYJuAwHTc4TU0yzj/TTuOSSi2WdxmNR3HzjrZgzay6uuPoKLF+zEi9PmICHHv47mgIB3HrrrQISxowZI/NFMESAyARfNAsdd/zxog3z+QRkPBApPDkm9GNhG/nzg3//O+rq6wWosd98Ds1cPDx7dO8Of2amsHJkqnJycyRqhfugoHPnpBmPa4htJ4NFENirF8upAxs3bpL9xigXmtMS8bhEvmzzMO7AucH+fDFjhtQvoe8L1w7HjXPLAl/duneXCqGcc4Lj22+/XdY5+8m9SeDOgmMEBGQY2SeeFzQ90mGWc/7SSy9J8bGJr7+GQ0aOkDlLxOIoX1eO9evLkYir6N6rOzoX8rxolLXEKKGN1dXw+HzIyczWy7gnEui7335iMrviL1fgiiuvEGBHxrN3r16SSpy+QcyWyn1CHyKCH5pXCbaprDQ1NoqSRKaO556OEX7NoqYDi2EXLuX6njlzpszJiIMPloJ45hmztQlRdwhv1Q30uAdJdCUTsYWfqx62KKxBqvur3K3PWwpYaM+ssQvd+cXcskdNDNwktF3zEOQhRLs6ET0PImrdpMxZXvmll14WGpmb5w9nnikFgqidExlSiyWt/8brb+DMP/xeDi964VOzJEXOw5LX0iGOBwNZBDIG1OIpCHj4UsiT8uYBQZ8DPmv1mtVyLSlAmhjYPmrTNBUQcFCDY30HUu4UCLTr81DmQUQWgppxPBEXQciDQg6500+XolAEEAQZrNpIVoJAhtoHD3BqwBR4FFw9uvfAeeefJ0KfbX39tddx/PHHyWHENfvNt9/KdebY8VAkWOCHwovggzUZxhxzjPSTi5XtJ81PTYbMAP06aBbgoc5Dme1lP1599VUpHkVBT/Bxyikn4/vvZwvlywOMY9aLaa4TCSlWxTHnnPEdPJT5fKL3U04+BatWrxIfCTI3rHzJiBO2k2NITZC+HayOuTOfVOqQ6aWvveY6lA4qlcOXz7riiivEPEIHTgpQtp/riYKb5a3XV1Tg4osuEtaKwIY+EdQ4s/x+3HnXXQLkqNmRJeL6JHC88MIL5VoyNvRNGTJ4sAhqHvY333yzrEOOC4UAwR6dQsl28cNrCFi5HjmPBBn/fusN5ORm4qYbxmPtsg34xxP/wKq1q/D7M8/Egw8+ALvVIQCB5p1jjj1WBAWf849//EPMcGReOEcsrkVt1ulyyfhz3bG/nEe2g/264447JMU1q23S3DNjxhfiA+KwOwScnX/eeQI8CaAIiqndcs3QQZWgl++mz87rr72GJsMZleuYh+69f/ubPJM/337HHcjtlItrr7lWTGM/JWyVc8y1w1oq38/+Dl27dsO8H3/EQw8/LIXLWGht9apVuOmmm3DrbbejsnKDMIQE1WwPlQkKaJoJ+/Xti0vGjsWggQOR4feLqYUfAoSXDYAw4bXXMGLkSMl+WLOpGv945BEsXbwYVRuq0WtAf9x6+y1YuWI57rrrTnH6rdq4CYH6evTv10/mfUN5BW6+5WY5B8Zeehm6dS8RwU9/nPE33iimBJ4dLz7/PIq7dhU/p+LCYrz48ouyd6iEcO3QHMT1xP1qZjjdmT2x75rWETDPByoyNN1SATzppBPxyCP/EFBP4MBzmcwA2Wa7nblvLOLAbrVY4Tb2LddfjI7oiiKmVJ6fZJ2Y1l8HbxYxi1osVnGypx8ak2PRVEU5w7ON//PDeeV3XBOp+2JvBIB7FCBwwImc0zMyZOPSAa4h0CBaKsP3iKi9Ho9oQDywOcA8yLi5KXA5idR4WWuBf+fB5HK6EGwJivZEwcnn8j0bN1ahpSUkAp/aZl1tLRqbmkRQ8ToKSE6Y1ChoaJB3UsDwewpEag8EAXw/6UNeSxaC1DwnnQczESqvZzVHPoe1HExtiouFB4gIznBYfuYC5e9sN9vLhcgFxiJL1Fj5O9kJCk/2ld+TjeB7uBEYHhkOheQdXPh8ppnqmFoNr2f/CVDMD9vBQ03G3fBxqKV9PBaTsaGw43tNIMB+so5Ehj9TxoUaHN9DZsMsqx2ORKTP3EwcK94vqak1TfrG+WJp7MyMDAEUnDu2n9fxfQQWOyNQZPMblDf7SwBEk8n1110nPg5kXx577DExg1x//fXiqEnQxSqfrInxx3POwSP/+IewOvfecw9WrliJTdWbRKOmFnrdddeJNk7QRfbn+9nf49JLLpUxfunll0UAsc8EC6z8uV//fiIAaDrhfXfceQcOPOBAEWCmrZvauVT/LCkRgMvKlv/61z/FzHPLLbfi88mTceLJJ8mYcI1RoK9asRI333wrXnjx+SSDwPXBcuYEGAQI/JfOsNR0x427WuZ47do12LSpWvpChuiYY8YIULJabcIuMafHPx59VKh6Xk9Qeu24a/DDvB8FMFPwE4RwfmliYwEx+v6ccMKJAma5j+gky3/ZDz6bDAKdicffOB5/+ctfBDiaGUp3SXAxe6SqSmQNQRifTyBLkDVu3DgBmdS8TfaOfaUZj/uPYI5jwzEcNnQoXn7lFQG/PLz79O6D8847DwcdeGByP5FBINjns6hkcK1zP7JIWaA+IOa+jz/5BI888rCALc712MsukzOD72Bfacq84/bbRaizlDlZDq4Tgqa/P/Ag/Fl+AS2cu/369sU5f/yj+BFVVlVKSfZgsEUYHO53loo/6cQTceVVV7bvM7JLA/r/56ZU5UEq9t58s4BCsnv33X+/KBBc5zQ7eT1e2ec88wo6F2Bd2TpYrRacccbvpW7NRx/9FxUbykXRoun4qKNG4btvv8P8hfPFZMcPq9J2Le4ifmvry/WoOiqMVJCoVJG9oHxi1VruCe4pKrTmWbcPIOxobbbxUk6tm5DM32/Y/pJkm2ETTnWq0iOft44cNyfAFPw68ts2bWd6GpvPM81PBAJcBNzEPHipxSRt0an5Foz+to1+Tdq2zfEw+i3v2ZYzWKqzSxubttmPVFs7v0sVsqnCNPW6pBOb2W7emGJz1ymyFERujn+qV7begOR9+iO29Bhua0c1+9qeR/mO5qV12AwHQ9r1Gxul3DcZp9GjRmHV6tWoqqoUtoltoXZJPw4KDwoumh4oqPk9x4nC7e233xbmgWCODAcpa0aNkNWi8KAzJYUmNXmac/71z39KNjSyFDxsjjjySNG4Wd2Tpa//bPhWkO6mACZIYggqKXGGhZLCpwmL7eAzHnzwIUydOkV8RHhIDSwdiD69ewsQHX/jTXj+heeS7A+BGYUyDzg6dxKosP333f8AXp3wigjtKVOnSNEw+oSwyimZkptvuUUAJKl0gp577rlHTGoEyQRZZBAINAlqyCZxLDh+BKFkTB5/7DH5ndVOecixMimBOhkmjj3HisBnxvTpePqZZ2S8pX5ISr2SHR0DbeeX76M55aorrxRAXti5M6ZOny7jRMHMyql33nGHjDHB5+mnnSbtoymIigJLuNPHhb4fNLvwWfQR4t5lP8nkEHCnAgTOJz9k6l54/gUBjryfjBtBE5/Lef3bvfciKztb5pTrimCL88miY4wq4vPp88S1QzaA0VOXXnoJHnvscWGi2Ad+v2jhIjz73LOY/f1sTJ8xXRQN+gKdetppAnhNhWVnx27fdXo9G35o6uLccs9SKD/80EM4+ZRTBOwzAo1sDllhgj7uiRNOPAGdcnLx77fekjmif9mc2bMRjkZkfS9dukyAJ9cDgTmBNZlGzrUA9U8n4egxRycL5PGMITP0zDPP4MILLhBFlOzeQw89JCDW9LfaBxB2ctUmBbMhZNoKkbaCsK2jmfmath7nqYKH1HCySJDp3Z4CNlI9iM328Duz4BM1CwoWasipiZXaOqQlBXCqYE3J6NjWozbVK9x8FsGRxGXvoJBR6rvaCtmk7asdBzLTqSp1euRd7WRJTD28k+DBACxmciW5JiVSIHU+U8FMG1PeFklIdmazmKCH/y5fsUJMSPRVOfTQkaKB03TCA4H0MlkDUowUWLRFU2OnfdoECDzgqaEeffTRIlgee/Qx+Xu37t1E82DIKQ8LyQvxySd48aWXcN3114tmx41OOr60tFSABv0sWD5bgEBJiWiLZBAo1OmMynbRPs5Kn5M/nyxaKn0DXp34GtatKxNfERN0UtDzMGE7aeqgoOGaIfPDw4zfU/jTLDN/wQKMu/Za/OvxxwU4kInh9TzMqBFTk6VAJRtEkwWZFfpsMNyUtDdBRkF+vjBZ7CvNP7T50yTDA5aa0CMPP4xXXn5ZBDQFHwUxK4K+NnGiPI/t2bRxE449/jh5B7Vrc13uzJymrkFzXZpmmbfffgcnnPAbYTSmTZuWtN9zPMj2kB34w9lnYexFFwtj9P2cOTIXFMAEZ4wqIIig6ZLXU8PnfBAgRKMRicq57bbb5TsKeM4t2aR/PfEELjj/fAFLZIsIzAgQOJYEWswdctHFFycBAhkCaplkE266cTyuuOpKHDryUGGUqKHy7xzXYcOHiT8TGYny8gp5FhkvgiDOKdcEgcq1110HB01u+3wQdlKC6JeZAIHmGjI5BAD0b6OjK/2LCByZZI4sGMedZus7br9DzhFTkeD+ofmRDATXAp2uyQSwpD0ZIJqIyTrx3KBJl++hwOd3NB1zLRH806+Ee4hrjHuX33GN8p72fCE61NH/4cV71MSwJ/uZSj9xAZENoI8B7a1SjnU3bkbzXaa5wul2i6nEBDY76rcJSqjl8NAS7/Pd3D5SZxRU1CRNu+z22mUe3jHa4VRVTCGpbdqd7duZdlArJEI/++yzhP6jWYqCm5uRmiL9SM7907mi3XLTUjj8/owz8Oijj4lgPOvss8TBjUKcfip0mOVhwkOFGgapba4PhnRS2FJjpk8CP/QTofbIeeJBQ22EwoEaJgHF2LGXwev1iDZKsEAHwOtvuEGEBf1W6KRGMMHDh05uFDx8Jj+cc/oTkFInyKHAMP1HKLjpuMhQWQpi+h80NTULoOHBNWfuXHFa5eHEXCDnnHM2Xnv9dTkQOQ501ps2dSoWLlokQpJJuM45+xx07dJFtOSZs2bhtltvReXGKjz5xJNymNGeT0aDhx39U9gGgh+ONdcPBR81X4Ic5rRIrV66o3Xe9u/mvqGp6P7774PD4ZRxJkCgnf7tt9/CVVf9VYQ5D16aGqi90+zAeaB/BkEKf+dcUXOsrqkRdoVsCYEiD3aatTjOFBZcA/n5DH/0yXtGHnKIsD5kSThffA7BRWNjAE899TSuvPJKAWKcV5oYCEbvuPNOcRyVaKpHHpG5pJ27saFRQOdBBx2I5194QeaVLA37x7VFgUEWhsCM87Nq5SrxpaDf0T4GoaOrpxUgMHx87KVjJUyejNyKlStlr9K0w33C/fCvf/5LAAL3LJlGRrFxbun3RrMk1zf3HvcwAQLniWfLfX+7D4VF3ONj5Yy47rprEInEBGguXDAfjz72mDyPzALXJ/cN333Z2Mskgolrhuft3upj8usGCJqGllBIbI6BxgDGHD1GkONPOdS2t4xpN6adnEKGtO6OGIFUbZ1mDdrVeeBTU92dApjAxUTGdJZM9VHYVn94eHOhk3amrZy2Niav0mvdtxNH3/H9vVN3mEKEgpXCiuPDiAQ6ApH2Iw1IjYybv7ioWIAZnSQz0jNQUNBZolC4ObsUF2PN2rWiXVJYcnwJFKi98tlmuCN9KGg35KFOEMEPHQSp8VPI8J10fqJw4d8JnLp07ZqMJOF3FChsJ9cZgSkFON9lOnLyQCJ9zw/nhu/ic/v26SN0tjn3PKAIbvk3sgJOpwO5uZ1EwNNnhuYSAgfOC+8rKiyUvACk2Tl3PATpT7Fs+XIBRmw3v6PAZ5QCwRG97ulTQvssD0CGyTbU1Yl2RKbBjKohhc+xI7Dgs+gLYtbr2KmJbOcikyEieF22Yrnk5CAjwwOVAJC2egpf+gwRxNA5kJoh37uurEz8FujAy/lkP9lm+l3Qh4dj1L1Hj+Q4811cPxxLU/MkEOe88l38n+/hdfyOY0+wwPdReFMAcA457/RlYSQHIzzIDLC9nGeCb64Vgg2OLdcC55IsJIvC0QmZCcpWLF8he5DfmxlkrSnhsrs6nv/f7uM80o/t5VdelggpCmSe7wRgZM4IdvkhMCRYIOtI/5Grx42TfcDoE55rNGndc8+9OO7YYyWSjWclWTmCVLJpTNbHM4GAuHz9erw68VXxceEe4hzeNP4mfDb5M0yYMEEAPdfOlVdciWuuvUbYO4fhCLk7z/Q9Ndd7BUDgQuCgc/OaBYlMT1MesDzk+Tf5jjHPRtEi/o3C7YH77xfPbIa+mHZMUvout1s2tyw0I5WyeXhQqFAg8JDnAUHbJ7/j5ueH7+Q9PGScrCugKHKY8wClkxVt4Hy2mZCJz+W1Zrwuf2af+By2mWYGOrrwkObBRgrf9IylBmQ6KrId/J5e8zwI6VEbDkekbabQ4YHLdvN3Mz6edrT33n0X9z/wgBxk1LLM/qVex/ZwIYtGAwga5+FJzYntSB1rk4n4uRZ+KgvEMRdGJqWOhsyVUbOjrZmorSlIxlhV5f9Ue3l7ZhvzO6kEyuAnq55CxTRBmcAvNU8A/26uHfPvphmLc5uk4U3fkTZ+Jqb5JnUsTQHKWG2mhTX/xjk1+5KqmSTbbdhmTR+VtnH3MpaMxed4Gommkj4lZj8Np1OTzSA4IEVOGpaaF/fTzjBRO2KHzL+n+iOZ/RCzmyE4OYYy1wY4NQHsFjVHjD6ZzF1bgL4tU5v5vWl2M9dH6nzK/BhrbyuTmlH0LHUueA3NnGZehNZ51aAmtlyDe7MT254SVO29x5QH9BsgQGMUFs82nsNk7gj2+TujSEYfPRrNTc0SCsnzOTcnR3wWKPiLi4vw4YcfoTHQiM6FneV8JYtIwEmwTXDHKCCykmSEpkyZgkWLFsLnS5N3EmzQd4XAhIwQ5QJZP76HTFNqUrP/5Xjtyrv3CoBAoUQBV11dg6amRgEJpBWppc2fPw9ffz1TbJC0C5Z0K8GUKVOTSYcYqsXwJtqkaUc2k+3wmQyF4wRXbNiAuXPmiAAkzUiByIOH//Jd1J6oTfA7OkhJe6ZMEY2Qi4Ye7RTY9YEA7rn7bpkHajm0K9LjnR79XKT8mdrqrJkzcfSYMQIIqGXQi5bgZcH8+aKBMGkLnZ1YtZGod8CA/hgz5hjRNKdPmyZaIu3ofC/ptWVLl8n7Rh4yQjSxZcuWC6XJcFJJzKJpsmHee+dd3P/3B8Sph97a1BqptY0Zc7Qs/O9mz8bMr76G1+cVLZPjSUDC95KKY6Ip2r4JHmi7o/YmyWF2wUFtVxbrz31P0o/DyHCXdIbdxf6lCh6Ra9vwD0ntV1uwlXyGIRhNkGIClmQRLsNslirUktfsysC1cSim4xUduQgKGPaZZvge7Mqjd/Uec37a3v9zAVQTlJrv3Wqdb8fheFf7uO++jo2AAMU2QJ5PMBU+E2yaQDcViPMaAYVUKiMRMRMxGRk/qdebLeL8Sx6eGJWy8BZKGJ9LQEvAbSoL5vUd69Ev6+q9AiCQRqY3NgecAp0OJXV19bjggvPx5pv/RklJF9isdqxYsRzDhg8XOon218GDBklsMu2lp556GgYNKsUbb7wpNifSiXQCo42Ik00bJz2OMzP9eP75F3DQQQeje/duQhvReYtggmFmzKkgoVFz54pHMylRAggKzYZAAHffdZcI/ENGjhRPb6aMZVlq1j+g0xdRKR2haEv9zwf/wbChwwToEOmS1mLyIbaHtSCYLKZqwwYsXbZMPOfpuEWqmaiXSNhErgQp7BMBDh10iFwp3NlmomguXgIExggz3I9tIeomyKLjGZ/JfBN0SGNbmFCHmRAPPexQtARbhMqmfZo2Ntql+V5WkMxjRsBfCTXaVis0synurJloWxqOKeB5GHGsUtkI8x5TG+a72gqhJGgxLpbfU/1TUtNKp6R73p1CU9qX4kjbntPuHjnW2qnVsDv72bYPqfPCv/1agPAemau95CWpmVS3B9RT/2Yye7vbl+2XOGR7DUD4v/bOBDqqKlvDm8FE6X5rMUQZZNKnEkQBFRIaRIT1uhVUFNEOLSD0egpKT08bkUnFbmZw6AbUbgQFFZmxW1AIgoAKJChP8IkgahMGQQlzCJEgvPX9Vae8VAcMmUiFU2tlQVL33rq1z7ln/2fvf/8b50punzI0ckTkQCGO4LTI2dMBMSv7sBzYpEmT7cknh0gMCaW4ocOGijzEAw65CbIQaoEjR4zQDpvcIiEhyG3U/g8dNkzRhkaNrrRRI0eLsd7iZy1UOsU9cC5lkEQICClBohJA2L/fnhr7lCW3SFa5GgBh7dqPrEaNWrZ69Spd//8++cT+/reJNnBwqDSGPCvtlbkG12/durUQKqFcWPnkr3HsRC6mvvKKogHkRcl/AQyIMKBqd9XVVwkYACLIu1/V6CqV75BT5hzK7UgxQNKhtwURBwARZWzk62DyEp347/vuE9MdZjfRDHTxiRwAeBanLrb+A/orL4xwSHlp2ZcdBTgXsiTHrp1GhQriNOSHNOoAhtt1uoed6wDCsCFg0s0VZzfOI6QJcCR6BdgMcmR4/+hRJGRzFBVzvSdIIwEkcZDcn6ptypdXdItRIX1WFGOT1679lDvqYlrh3OdhJ/QP2O2hVkipIPYoDEgIjlv07ZOG4/kjmsY6EQEIAZAWtE9JcnOKydSl9rIOGJ+J1mQwIni6L3bSHHeAOxzty2tuBaN6Z1reG71OFGbulsRgxQRAYMGGRQzzF0e5Oi3NpkyZan36PCjnSTfB6jVqKOdOWmD48GEinbDThVRC7rRX795aSHGG5FAJ0cMav6pRI6uWkKAd9fARI2xvZqb9eehQOU9K30aPGqXwOqz1F1543ho0SFQUATW31NTFWthhUkOUA1yMHjPGkpOS7Kb2N6telhQCAASwgBId0tLU2cNaJ5y14bMN+g7s+NHRp74echi5L4RiUHicPWu2xJpw8PUvuUT3AiCB4MSL3Bc9HgAXcB9wSFyzzY03SlKZFymamTNmSD2QenpsAWERsIVADiVylJEBwHBS/A0w5MhfaADAbofhLfnaU+yGS2LSFsdnEB5kl/zF5s2q78fRMp8AmaSGGENXshpMFbg0hHPG8Do2bPjU6tSpK/Icc5foFxEEwCQRIkhLLBTuejh75jdpnh49e4Y4LSGkoTw2rOrFi1MtJaVLRCFy7rx5UmtkHLk3rt24SRNVLQAwmLN5Nmw6Q+OdzoGe4aUKfDj3ABhavnyFzZkzWzYlikZlCM+xeDZ55PvdQh7hYgS5IIHS3SBYC0aMACNEEAHkVMrkxekI2kfzIlxKHeHAEHkowoqkAhsxRk90ztulzvICvadyskGAEBknB+7yaOAWMVEgUhXhDrkxPEUELxRtgid06m6y7vqKFFJSH90DphSOUUwABFIMLKDs0HGO7LpZuOEVwFClFO/i2rUj3RAnvviiogTsgClbeW7CBOvWvZtdfHFtPfDsilE9ZHcQKnXbbe+9977O4TMI0wM66NDGrh7CCg4cSWScI0RCOAWwokkrPNC7tzrskc4gssEWjhA8zGfSE4T5cbg3tmmj1Agse5Tu+B5UPhDCR/mPkhyOZ6cE2xqnzTELFrylfhWAEX5gaFf6yU90H5AwsQ9ABClYnM/hrCzb/MVma9u2na7HhCQlIkXA7t3lnAAQMH53fbPLatWspTp7QMa27dvlcBDfIQXBC6cJQJk9Z45+Jw3BThjAVpZSDDjk9DVrlJKChAehFSYzc40W4CxSsJzZWQII2fHjrIjiYAeiMgBUAAHnM28Yn5EjR8p+lFHhtF0zIaoH6AKK8uGQIU/Inow5qSLhg+PHpY45dswY+3jdOut6T1f7ZcovBV6YTyjBJSe3EEGKuQZ4+8cb/7C4+Di7t0cPRbhK+w4lP2sidoAsS3koaT2eFZ4RQAKpObo3opwKkZP0HvwInmNHCGZssCnPIS9KGJHMZSwYO+zJdQB0pA8lpfvdUcs9lmszZ8zUOsJ4Av4YT9dtknM495tduwRQeG6I8jAHeK6JPBCNc4CwLIxFfsarKI9xTp61mjWMF5ujYJO6IKiLEFwDYDDomN3/T4ouhAHBSWDAdT4N91iJjF0UeOB6RHzhjDFHIUOzsSDK6vpssH5SasyLSB8bMH5iQR8hJgACJYBPPvknyVgmt2hh8fHnyxlCpuPhZPIwSITTkSreum2bcvIs4Ow82I1TusSCj1Pnd0AFErw0gTl08IDt3p2pc7gOiy2lL4QwcdSUkKGfAFGRBYDdIAQ/FpJ69eqrzI1QJ44D4MAiww+TgUnCpGGB50EnWlIAABrnSURBVNohmeFyVrt2HTl/FjJK1WgsQ9lW1WpV1QOEXSVghH+5Z3ZKLFCuQQ/fpUaNmrZ797e6Br8DGDiWnQ+/831cSSOObMNnn4m9iyPjOiyOlMg1SEzUAoktAQjcO9EEdk1cg3O5F0q3sAcPC4smTrLMAYT0dKVyEDqhLJCyJVQc4YAsWbrUvvzyKzlmxpZIErt4WNNEcwASlLARpYK/AUkU9v+UqVNVbw/gwobYjH4cLBzLVyxX+e248eM1V9gVO4Cg8tSP1tpfx42zZs2uEx+kz2/6aJeCdkP9+pcousHC+fxzz0lFkQgCvRpIGZWV2noWc1JuCCIRKcGOlatUFrMcEvIb8+Yp5QYgQsYdAi3RLuY3awDpAdYBpLiRdAfoAnKZ54ByHDmgDfEiynpZ7EXGvOYagS/GxY01ETfGh2eAe4EPtTVjq1QzOZ7nDaCtduTVqkmel+ctr51vUTrSsnot58jZCJJmhlfF2LDOMfcR/FIb+3LlIlU1rLOK9oRBAuDNVZw58iHH8Dd+d9U4rpLGVcqpHcD330fOdek93ueH54v5RCk9EWH0FkhxSyZ/3z49yze3v9nmzpmrzRkpYYAjGwO0TNigFYbjVBJjHhsAISw7m5jYQGRDkJcLz2qnFSUdHK1W6FoAR9BjXj3Yo5QB3bGuLC6i2hiedGKtwnYNk/QiealAVz9HOnP3d1K+Muq4SEjSlXKFVpTQTtIpQYb/736Pvh7XiDBzA4S34PHBc1R+Fw51M8nhLwCOIC1yLRThWFx5BcO0brErSzuiUIjwuJwtrZrbtmurMtL0tDQBJZqIjRo9Wg2BiBZBhMURITbE++he4BQAjogJEQkg5UMEi9LSHvfeqwUCIRUWF8RVqEAh3YMaJA4fMIZUq6ubZncKxwZgCkkUPY+u3boKrCFsxFjDO8HJMWYoRdIYix1Mzx49VF5VVsYIkLpg/nx79bXXBISxOek0gAOiVtS8w2afPXtOqM343DkC3gAlog2vckzXrlrQAWO33nKrLVy00Nq1batIBKCQqiBsjfMhxUjEAVVM3kdWGSLztddeY5dddrlNnznD6lxc25a9u8xubHujAATgAF4RfB/Sd7Uvrq2usDgSR4bzRMczd2us3/CmUC+EQ0X0EtE0wDnRXuYGGymiSzhn0qm1atVU1ZvrMwOAdNEn1jhSypzHxpGxw2fwLAMK2DzxL7v8jK0ZivKhl9CkSVOVU76z+B1FaFkb6XDLBpJ0NUTwp5952qpVrWYjR420nCM5UnPk74AH7p+N6OOPPyawQwfg0g7iYwIgsKASJQApnkQWOvO55s/IywLoSxw7JudGhABUTT6cMBkA6Fxg6zoghrN1SoyfbvhU4jaQYUnt4PjvuP12ieRs2vS5nDbzEs4HO1Kn2gd3BDnX61u3lnAPiwEkWci09DqgmdBDDz1sH6/7WCFsdhrILCNaBEnUcRDoREkPAqI78EFQ5iO8/utf99QCSeMm/g5gaZ6UpKjOxBcnaofbs0dIna8svARqwx0f/7Vli6WlrbaFCxfZLbd2sCpVqtrLL71sSc2TpKRHhAbghmAZuzkcPesHdrko4SKVsiGyxNiweAOwAAIZGVvVVp1nQPbr2VNOx7Uox7YcDzijhJjSXwAF6T3KlXE0VFgRkQPEEE0MNf1pF+IKhfU6ygpgK8l5BXBH2RAJbMYAm+LgAcR0MQUUkP7luUWI6s9/+rP17NnD5syeo3UNYA5wA9CNGDlCgmk850SQKNvmWSWd/D9/+IPWPAAoJHTGmvlBgzWer/79H9VzCheGaGFaero4RVSk0S+FeyLiyDMJmCQ9DYChfJ1OqVTMMW/WrVtvTz01VqAzr8qlkrTtj31WTAAEtzsvizvXHxug4n4/GF1w4jt8ZkSAJqqMrrjv52xeH1ukp6XblKlT5NDZSSLny+4UZ0EfBgiugCdsxUKC8wFUcRzgtV3bdjZo0EA1cmLHws4e/gzXo1pl3Phxtm/vPnFQiFbMn/+m9erVWxEEyHCkMnAyjpxIxIHzAMekr+CrUKGzdOm7+nzC3Dg0frgnQplE2HBwZQkgEAWQAFj5CrZnT6bSOPCIiCIQhemS0kVlt8xb0goIluGgGTv+Bsnz3XeX2XdHcqzDLR1Eaoa8zC4O4MbYw0Gg9BlbQhZl54g9Se8RDmbBh9MjpVMzdZ8lHwhQS12Uqt1q93u72YEDB5WqAKQgHQ1v6lwC2kX9DAcBAlLZAHGarVHlxXME0bz/gAFqjITODBVDPG/s6nHWjAEOG7IvzxnPBdE7wCRROYjZRPv69n3EuqSkqFspoIGIHgAE4MHcQ7r7j3982K67rpnWAeTdF7y1QMCFeUMEFoDAXHll6lTx0eimyjMLsIGAznPNc8x1mXvFLTZX2LGIGYAQDLV7FF7YYf/h/JPSDyEjh/JiAVEfx7gvuk8thVcK1/p/uOZDmz5juhYVdoo4aEL5HTq0l4OAqUx1DOVN1zRtItldqk7Wr//Err6qkd10880i0/HgQ0wETNCUh8hAk8aN7fXp05Uzb9mqldIP5CQhF86bO08tlln00JPnmrQ25rPv+dWvlO7geDrK3dW5s2Vs3aoFjN2ycz7slqiQgaRIe+qiqGIoDSPF/Nu2fZv94403LPfosVCXvS82K31A+J9xYc4SEgZIoS0y+eWXpIPimuXQGnvosOGKzjzx+OMCUZMmT1aKAiDB70lJzW3VqtV2Xtx51r37vSqnZMdIlIgoD6XQRBjYPeJkyIcTrqbSh8gGu092q3AYcCg4JJr7cH2vlljAmRR+Ll0EAYAAv+fVV161CRPG2+jRY9TSm+osHD7PCECBlAA7eyrKcPaM4/wFC2zcuL/akiVLtasnGvfm/Pl6ngCaNGcj3cczBVAHXBClcA3QaLxFYy4qw4gSkn4CEHBPpJUACH+b+He77NJLbfSo0UpZPPvMM7Zy1So1ZBs2bKhVr15DEUlAJgDGtYkvrT4tJgBCAaeWP81bIN8WcFEqcozkoXE8PLyw1vnhd0KSkNIghRJShryGg4BsCqv6umuvVT96OjZSVQKJkN0nOU3ClaQKYLh/8MFKqVle+p+XyrEBIrgm18LpcC12zJznyKccR9ia3RH3xa6KXgBUoDg5YsAEzowds/pDlCERK/LF7MpdfphdGkANnsWO7dulhIpiKSABB44jx97YH3vg7EkF4agbXnml/mUsiOJAZqxVs6YcOT1b0PggmoPNIZlyLT4P+zL+hInp+5HYMFFzhQgS40Q4mldaepodzjqslA9pDifPnu/J6A+MWEDcoBMnbMbrr9vAQYPstltvVcrmrbfflm1xsjwvRGsoNy93wuy1aa8pinT/fffZtc2aCSAQOSDKBw+ARlpE6dC3mTz5JXUQJVXwaP/+4hgRlSMCAUAA4LkKOkiyRK6YD/BcAAWQYh8bPEg8mGnTXlcjN8Ah75HeAgwQ4SIShbYOcxGwA3AlCsHcKK3gQBH7E0HWmp+Y3gLnqAWCRFIXVVHZU5iM6h5inATO2e3O+b9TSURYyZFZj6GcGCaKBns2cG0nAytGdbhOPkhydbvN6N4ODI0jobphiia95dUPItaH1NnG2Z4qIMoUNSbhsrPguIjAHCAiRwjA4bF0DPfj9FAIj2e0LG6QNByMoCkNJ4ne8uI84LxCv5cLpeXCY+QIzKryKaBUd6yPW1Hcvxt7UgqkA/idZ49oTcfbO1rDxIayPdUmOPWmTZqqMyiVApS7X1KvnipJ2N3DI6INe/qadFuxfIWqlKhuaXPDDQJ702fMsOtbXW9XN25sL02apNJ5ohFwGY7kHFEqAgCOw2fTQLSKvxGJgLMAB8GVMQMuAB40jOOzATC8xw98Ja7Lv6WdtOoBQlHMYn+NMmOBoKN2X0qAQXD6h6qS4BeOvOfqqaOODTqyk84L1Fg7jfhTVqhE9XGIrmAJ3muw6qU0707yO2mC4C36++RVGRRt42BVU2BrKscd5DfleT9Rwjh5fX5QLCv6GqW9jC2/Y3C2jnPjk5NzxLKyDkcExuB7sPvGwRLBo7SUCh5y+1S48CIVRWkiqpsAAUrbKV0nEkcZIhUt8E3Oi4tTyig7+7BK6CmXJRoF4AMEEBHg+SRyB/BE7wYtjPgLLlBrd5U6ZmdLE4MXGwXOoz8Pawbv8aP3wg3/uH8RFAPN586WjU/3uR4glMZR8fcUOxY4Ww17ztbnloKRCYK4IEAo0t3Yj9hXZc6B8uMi/exSYONSdQt5jEUQNNIjBx0ChPPQL6G89UzHw12vWAB1DD+rHiCUqifB34y3gLfAj1nApXXghJBaYPdHzwyleEpI1thJc7sIQUl97o/Z5lx7H8cOP2XP3r3azTu1zDMFCOea3fL7fT1AyK+l/HHeAt4CpcICTnvg/ffek4od5Z4QwNCDKIl8P04Jxjxha/LYkZLgUmGdc+cmgrt+J1wX7HsRBG3BaM+pLBRMN0UDjGDUKshPcdcqqwDRA4Rz53ny39RbIOYtgO4EDHGU6ShNc0QvtCKqVqkiYRwIauSRKV0MLvrkoOELkHcm8kCliCOOuePIT6t3A+dCYjx+XNQTSJFyQmGiIz06EMHq1r27ohe8jubm6prklz1oKP6pFnT6jpTKGG3bttXOjz9f0vuMJZwB5NLplXFSu/Vw6J/rMK/QJ0BHgRQFpcb09IBfdPDQIb2HpgnXQFWVXjjHcnPt2927xTeoUrlyiHBcxgipHiAU/zz2n+At4C1QWAuEF3PKQZ2iIToIkNAceZSSQwSRkLMFBNAcq2Fioi19913bk5lpR3JyVNJI+SEOAfldSiU5jmgE71PmitJl2zZtxWxHJRGnwHG0Rud8SiCR2saZ0BcCZT9KHzmW61ISS/dT+rf4FtCFHfj8ne8AHqqKAwcMULqpb98/2oUXXmSrVq60Fe+9J20Tyh9VSXT8uMqAceiACmS8F7/zjlIUkA5/cdNNKnulFPbll19WGXKlShfYwYOHVN58Z+fOIklOmvSiKicQRXN6JPm749g4ygOE2Bgnf5feAueuBQId9HZ8/bWNGjXSbu94uxwzL8K7OOapU6aqRv0XN/1C6nVbMjLUhZMadV7UrlOOxjH0ykDciDbsENtwAmhVUPK2fMUKOX8cCux4RG2QUZ4zd66acXXr1tUmTZ5ke/fsVd08jgIhHErbENdatmyZyt/QxThXZMrP9uR05b2kfRjbrRkZ9mCfPnbHHXdIdRENhCFPPKHy1A2fbZB+BXoK6FvQQA/xrLr16tqdd3YWpwWdBEpYGecvv/hSHXsprUSgjHJLlBcBlih2opQpwbIS5MCUlL09QCgpS/vP8RbwFiiwBVy+GceNtC3tlwUQFFmgpC1LkQVSDR1vu00LOS2x6Z2xKDXVrrjicrvrrruVmkBm9/HHHlfbddjvSOiiZInELo17EEMaO/Yp7UBx9gAE5H3nzptrmzZukrwvYjfsKhG7Qdefz6Ye/j9++lPbsiXD7ul6j2SZy0q30wIPXAmdyPzAoR/NybGHHn5Y40BrdsaHKABpqccGD5aqIWOKmBZpAzptdu/eXU5/w4YNkcZryG4TLeJ8unyiikrKCgBCO3jKFmlmN378eAEE1BWDJNn8cB5KyDSF+hgPEAplPn+yt4C3QElaYP++fTZ8xAjJTENMVKfEEye0cOOkWfgBD0QJUK8DICxctEgKlSzys2bOtHXr10t1D1VGZLABCEQHiBK4Fs4Txk2wh/o+bEveeUeRAVp3U2ePU0FmFxlsctK//93vBBAmTnzR7r77LrWQx5EQjSBc7XUQSm52MA/QIkD9EInlr3fulBYC4wfoA9ghnV6vfn3Jl69JT7fXpk1TZ1U0DmjLDHio9JNKcv6AhAd6PWB9+/XVvICvAkcFaW+A6u9/93t7/oXnLTk5WcDStZJ2hMWyQFz0AKHk5q//JG8Bb4FCWMCRyWjnS8iYnT2LeMUKFbV7/2DlB1LUY8FG/hhngaTttNemiXfQqdMdAgLIVeNEcPbsANHfpxsgIWd2/WvXro10dCTiACj5WcuWtmrVKjkJHMpbby2wD95fae3b3ywyHEp54iokJlrFuDi7smFDuzAhwacYCjHeZ3qqAwj9+vWTjDIcAropHss9ZsdPHJeI0vPPv2DNmzezTp06KWKABHPv3g8owoTzR1r79RnT1dSLRl9IM9MSnFbhpJIoqXzuuQl2fvwFar3O9ZOTkq19h/b/Fi3yAOFMR9Af7y3gLeAtUAgL4ARocAVhkH4XVA0kVEuw1jdcr2wDTpyQcvz58eqNUK9OXfto7Vr1ZSDqADeBnT9hYQiJ9Hdgt0+7XrpxQkBkJ8i59FsgX52WliZmO/0WiAo0a97cvt21y1avTlNjLBo0cU2uxf1Q+ghI4TN9BKEQg32GpzqAQPOzn//8v6x9+w62dMlSG/vUGKtRvYaNGTtWHRhzj+Uq+sRcYWwBfFQkMFaQF+GdMDeQboajsmz5cqUhIJ8yf2i7Dreh8dVX26jRo/V3KmqYN/AZAK1lhbDoIwhnOAn94d4C3gKlwwLRdet5STKrnwbIIUxmzOv/X+/YoYWeMDJkM0ngUq7myJFOQjuqy6mzQvAzyINTix+slS8LO8nSMeKnvwsHEOCo0FMBjgrNt4gS4fBp107qafz4cZaZuUdjTG8Gxpy0AekFAB4lrvAYiCbl5h5V1GHJ0iWWdSjL6LHS6/77RUKFGEnLcICGk34mvZWSkiKSo6uuiQXbneoePUCI5dHz9+4t4C1QaAtANsQ5XH75ZdbwykYhfXz/ii0LhEEceghEkNApcF1PGV/SBxdVr67GWmgXfPvNN4oKEe3Bue/Zk2m7dn2jSEK1hGpWo0ZN8Vt4kVag6gFyK6Ws9erVtVatrrcmTZva3sxMO5SVFeoRUa68ValSORQ5CndSjXVw6AFCbD0G/m69BbwFitgCiCZBcsQh8BPri3oRmycmLhfsyfFvUaJw189gpCe69wLvuf4aeTVQAnh8d/SoyIm0ZSeVQBrKCS9FokmhUFUkYhUTxjvNTXqAEOsj6O/fW8BboHAWiOFmOoX74mXn7AhAoIFWuEtnyFfnnWIKfnNXkhj8Ny/LuK6satdOe+/yiHT98Bnus4L/xrqFPUCI9RH09+8t4C3gLXAOWiDIQXHOHV7B6TQInFS2awHupJEFMMJcFXgG/L9CxYqRSMC5GlXyAOEcfLD8V/YW8BbwFoh1CyCrvGPHDjtyJFu9MpBRpoKAcsRTOXQUN0klKJVEhCHQO0ESzN9/b5s2brTD2dl2dePGdn58fJlJFxRkvD1AKIjV/DneAt4C3gLeAmfNAjhzwAEVC0QBIBpScYAmQYdbbpGSYqh25YcX58AfoLLhumuujRAJg8dAZkQQa+fOnXZ/r166Dq8frUoJVLpwfDCKEcvRBw8QztoU9x/sLeAt4C3gLVAQC+CAv/rqK/XLQAmzadOm9uFHH9pfnn3WBg0arBJFtCn4iYs7T30U6MNAXw6cf8+ePa1mrZp29LsQ8ZDIQo3q1a1ylSo2Y8ZM27LlXxJTIqJQr25d6V/QWhwhJUBEQrVqVrNWLUUjdu3apc+hKiL0OeXUCOzw4cNWvXp1S7jwQjUVi0Wg4AFCQWanP8dbwFvAW8Bb4KxZwAGEPn362MCBA61Vq1YqR6SR13lxcWqitWrlKoGBzMxMa5DYwJo3a67eGzh0hI7ovbF923b7+OP/tf37D0gls0uXLrZixQpLTU21pKQk9WPA8aPISfkkwkoHDhywffv2WZ8HH7ADBw/ZP//5T6U3KJls2bKlSiE3bdqkNAYAg66jCHDFYitoDxDO2hT3H+wt4C3gLeAtUBALBAHC4MGDrGXLVooC0H8DKe0hQ4bY4aws23/ggK1Z86Ft+PRT6/doPzVlOrB/vyIPRAtw9oAAfuj02aVLim3cuEkOnq6QXBM5ZQSQkPbek7nHMvdkqqcDx+bmHrOFCxeqzwdy3qh8AlLatm1ntWvXtlmzZklUiWZf0SWRBfneJX2OBwglbXH/ed4C3gLeAt4ChbIAAIFeGkQQBg8abK2ub2WQFp99+mnL3LtX/TXoo4HDJoLA8c88/bTNmj3b9h/Yb/0e6afj57/5pqWnr7Fj3x/T9R7p+4htydiiKMNv+vRRFGDY8OHWsGFDiS8tXpRqFc+raGnpadb/0f7qAUIfjpUrV0o4qWGDBvbsX/5iTZo0saoAkIMHLaVLiiU1T/IAoVAj7k/2FvAW8BbwFvAWyIcFHEB48MEHxUHAUePgab5Ee+bjx7+32bNm229++1v7ZP169eMYOWKEmnXBDyCCQCQBieUb2rRRioDdPtLLcBs2fvaZ3Xff/erbgFQzqYOFb7+tPhyAhZcmv2QpKb+0Nm1utIMHD9imzz+3KVOmWIvkZHv//fftjk6drEmTplahQnmlHkhTeA5CPgbWH+It4C3gLeAt4C1QGAsAECAM0pUTSWXKG/nbFVdcYbd37Gifb96sdANtvo9kZ9uRIzk2YOAAdeqkSuGyyy63G25obYtSF1lO9hGrUrWqbd221bre01XXXbJkiRw75EP+ve2229TEaefOXVa/Xl3buGmT0grIKtOLAf4D/R46d+6sLpHr162TtDPAoGPHjmoI5jkIhRlxf663gLeAt4C3gLdAPi2APDbOPDsbHYTy6rZJ1UB8fLyks13Lb9p4x8XFydGTVqCvAk2Z6tapYwcPHdLv8BFosJSQkKBzSU0cOnRIx0MwBAgAALgm0QbKKgEl9HbYkpGhe6CCgY6gVDl89dWXukblylXU7bFSpUo+gpDPcfWHeQt4C3gLeAt4CxSbBYK9GaJD+9G9GpxmQfC4iLJiVF8FyhpdC+9oJUdAipNZDn5GLKYW3MB4kmKxTVF/YW8BbwFvAW+Bs2GB0wGE4P1EN21y70X3dgj+PdLrM9DnwUk3u/ciIk3hPh+xChI8QDgbs9d/preAt4C3gLdAsVkgPwAheAw38m9OPEodERCA48/rOJo3RfeAOBX4KLYvXQwX9gChGIzqL+kt4C3gLeAt4C0Q6xbwACHWR9Dfv7eAt4C3gLeAt0AxWMADhGIwqr+kt4C3gLeAt4C3QKxbwAOEWB9Bf//eAt4C3gLeAt4CxWABDxCKwaj+kt4C3gLeAt4C3gKxbgEPEGJ9BP39ewt4C3gLeAt4CxSDBTxAKAaj+kt6C3gLeAt4C3gLxLoF/h8/4XIRhyVEKgAAAABJRU5ErkJggg==;" vertex="1" parent="1">
          <mxGeometry x="80" y="530" width="770" height="447.19" as="geometry" />
        </mxCell>
        <mxCell id="LMVX7M_dMNZhRoX6le78-14" value="" style="endArrow=classic;html=1;rounded=0;" edge="1" parent="1">
          <mxGeometry width="50" height="50" relative="1" as="geometry">
            <mxPoint x="760" y="440" as="sourcePoint" />
            <mxPoint x="760" y="510" as="targetPoint" />
          </mxGeometry>
        </mxCell>
        <mxCell id="LMVX7M_dMNZhRoX6le78-15" value="Serverless - Web App Pattern" style="text;html=1;strokeColor=none;fillColor=none;align=center;verticalAlign=middle;whiteSpace=wrap;rounded=0;fontSize=16;fontStyle=1;labelBackgroundColor=#000000;fontColor=#FFFFFF;" vertex="1" parent="1">
          <mxGeometry x="80" y="500" width="250" height="30" as="geometry" />
        </mxCell>
        <mxCell id="LMVX7M_dMNZhRoX6le78-16" value="CI/CD Pipeline Pattern" style="text;html=1;strokeColor=none;fillColor=none;align=center;verticalAlign=middle;whiteSpace=wrap;rounded=0;fontSize=16;fontStyle=1;labelBackgroundColor=#000000;fontColor=#FFFFFF;" vertex="1" parent="1">
          <mxGeometry x="60" y="348" width="250" height="30" as="geometry" />
        </mxCell>
        <mxCell id="LMVX7M_dMNZhRoX6le78-17" value="Text" style="text;html=1;strokeColor=none;fillColor=none;align=center;verticalAlign=middle;whiteSpace=wrap;rounded=0;labelBackgroundColor=#000000;fontSize=16;fontColor=#FFFFFF;" vertex="1" parent="1">
          <mxGeometry x="550" y="630" width="60" height="30" as="geometry" />
        </mxCell>
        <mxCell id="LMVX7M_dMNZhRoX6le78-20" value="Developer" style="text;html=1;strokeColor=none;fillColor=none;align=center;verticalAlign=middle;whiteSpace=wrap;rounded=0;fontStyle=1;fontSize=14;" vertex="1" parent="1">
          <mxGeometry x="110" y="266" width="60" height="30" as="geometry" />
        </mxCell>
        <mxCell id="LMVX7M_dMNZhRoX6le78-21" value="CodeCommit&lt;span style=&quot;color: rgba(0, 0, 0, 0); font-family: monospace; font-size: 14px; text-align: start;&quot;&gt;%3CmxGraphModel%3E%3Croot%3E%3CmxCell%20id%3D%220%22%2F%3E%3CmxCell%20id%3D%221%22%20parent%3D%220%22%2F%3E%3CmxCell%20id%3D%222%22%20value%3D%22Developer%22%20style%3D%22text%3Bhtml%3D1%3BstrokeColor%3Dnone%3BfillColor%3Dnone%3Balign%3Dcenter%3BverticalAlign%3Dmiddle%3BwhiteSpace%3Dwrap%3Brounded%3D0%3B%22%20vertex%3D%221%22%20parent%3D%221%22%3E%3CmxGeometry%20x%3D%22160%22%20y%3D%22400%22%20width%3D%2260%22%20height%3D%2230%22%20as%3D%22geometry%22%2F%3E%3C%2FmxCell%3E%3C%2Froot%3E%3C%2FmxGraphModel%3E&lt;/span&gt;" style="text;html=1;strokeColor=none;fillColor=none;align=center;verticalAlign=middle;whiteSpace=wrap;rounded=0;fontStyle=1;fontSize=14;" vertex="1" parent="1">
          <mxGeometry x="2450" y="256" width="100" height="50" as="geometry" />
        </mxCell>
        <mxCell id="LMVX7M_dMNZhRoX6le78-22" value="CodeBuild" style="text;html=1;strokeColor=none;fillColor=none;align=center;verticalAlign=middle;whiteSpace=wrap;rounded=0;fontStyle=1;fontSize=14;" vertex="1" parent="1">
          <mxGeometry x="550" y="266" width="60" height="30" as="geometry" />
        </mxCell>
        <mxCell id="LMVX7M_dMNZhRoX6le78-23" value="S3" style="text;html=1;strokeColor=none;fillColor=none;align=center;verticalAlign=middle;whiteSpace=wrap;rounded=0;fontStyle=1;fontSize=14;" vertex="1" parent="1">
          <mxGeometry x="757" y="266" width="60" height="30" as="geometry" />
        </mxCell>
        <mxCell id="LMVX7M_dMNZhRoX6le78-25" value="Source Artifact" style="text;html=1;strokeColor=none;fillColor=none;align=center;verticalAlign=middle;whiteSpace=wrap;rounded=0;" vertex="1" parent="1">
          <mxGeometry x="425" y="244" width="90" height="30" as="geometry" />
        </mxCell>
        <mxCell id="LMVX7M_dMNZhRoX6le78-26" value="Build Artifact" style="text;html=1;strokeColor=none;fillColor=none;align=center;verticalAlign=middle;whiteSpace=wrap;rounded=0;" vertex="1" parent="1">
          <mxGeometry x="650" y="244" width="70" height="30" as="geometry" />
        </mxCell>
        <mxCell id="LMVX7M_dMNZhRoX6le78-27" value="" style="endArrow=classic;html=1;rounded=0;" edge="1" parent="1">
          <mxGeometry width="50" height="50" relative="1" as="geometry">
            <mxPoint x="190" y="281" as="sourcePoint" />
            <mxPoint x="310" y="281" as="targetPoint" />
          </mxGeometry>
        </mxCell>
        <mxCell id="LMVX7M_dMNZhRoX6le78-28" value="" style="endArrow=classic;html=1;rounded=0;" edge="1" parent="1">
          <mxGeometry width="50" height="50" relative="1" as="geometry">
            <mxPoint x="411" y="282" as="sourcePoint" />
            <mxPoint x="531" y="282" as="targetPoint" />
          </mxGeometry>
        </mxCell>
        <mxCell id="LMVX7M_dMNZhRoX6le78-29" value="" style="endArrow=classic;html=1;rounded=0;" edge="1" parent="1">
          <mxGeometry width="50" height="50" relative="1" as="geometry">
            <mxPoint x="623" y="280.5" as="sourcePoint" />
            <mxPoint x="743" y="280.5" as="targetPoint" />
          </mxGeometry>
        </mxCell>
        <mxCell id="LMVX7M_dMNZhRoX6le78-31" value="Unzip" style="text;html=1;strokeColor=none;fillColor=none;align=center;verticalAlign=middle;whiteSpace=wrap;rounded=0;" vertex="1" parent="1">
          <mxGeometry x="841" y="244" width="70" height="30" as="geometry" />
        </mxCell>
        <mxCell id="LMVX7M_dMNZhRoX6le78-32" value="" style="endArrow=classic;html=1;rounded=0;" edge="1" parent="1">
          <mxGeometry width="50" height="50" relative="1" as="geometry">
            <mxPoint x="814" y="280.4999999999999" as="sourcePoint" />
            <mxPoint x="934" y="280.4999999999999" as="targetPoint" />
          </mxGeometry>
        </mxCell>
        <mxCell id="LMVX7M_dMNZhRoX6le78-33" value="S3 Production&lt;br&gt;(Static Website Hosting)" style="text;html=1;strokeColor=none;fillColor=none;align=center;verticalAlign=middle;whiteSpace=wrap;rounded=0;fontStyle=1;fontSize=14;" vertex="1" parent="1">
          <mxGeometry x="940" y="266" width="221" height="30" as="geometry" />
        </mxCell>
        <mxCell id="LMVX7M_dMNZhRoX6le78-35" value="CI/CD Pipeline Pattern" style="text;html=1;strokeColor=none;fillColor=none;align=center;verticalAlign=middle;whiteSpace=wrap;rounded=0;fontSize=16;fontStyle=1;labelBackgroundColor=#000000;fontColor=#FFFFFF;" vertex="1" parent="1">
          <mxGeometry x="60" y="226" width="250" height="30" as="geometry" />
        </mxCell>
      </root>
    </mxGraphModel>
  </diagram>
</mxfile>
